<svg width="480" height="1236" viewBox="0 0 480 1236" fill="none" xmlns="http://www.w3.org/2000/svg">
<g clip-path="url(#clip0_117_6401)">
<g filter="url(#filter0_d_117_6401)">
<circle cx="52.4012" cy="881.371" r="2" transform="rotate(-45 52.4012 881.371)" fill="#EFEFEF"/>
<circle cx="52.4012" cy="762.577" r="2" transform="rotate(-45 52.4012 762.577)" fill="#EFEFEF"/>
<circle cx="111.798" cy="821.974" r="2" transform="rotate(-45 111.798 821.974)" fill="#EFEFEF"/>
<circle cx="52.4012" cy="643.783" r="2" transform="rotate(-45 52.4012 643.783)" fill="#EFEFEF"/>
<circle cx="111.798" cy="703.18" r="2" transform="rotate(-45 111.798 703.18)" fill="#EFEFEF"/>
<circle cx="171.195" cy="762.577" r="2" transform="rotate(-45 171.195 762.577)" fill="#EFEFEF"/>
<circle cx="52.4012" cy="524.989" r="2" transform="rotate(-45 52.4012 524.989)" fill="#EFEFEF"/>
<circle cx="111.798" cy="584.386" r="2" transform="rotate(-45 111.798 584.386)" fill="#EFEFEF"/>
<circle cx="171.195" cy="643.783" r="2" transform="rotate(-45 171.195 643.783)" fill="#EFEFEF"/>
<circle cx="230.592" cy="703.18" r="2" transform="rotate(-45 230.592 703.18)" fill="#EFEFEF"/>
<circle cx="52.4012" cy="406.195" r="2" transform="rotate(-45 52.4012 406.195)" fill="#EFEFEF"/>
<circle cx="111.798" cy="465.592" r="2" transform="rotate(-45 111.798 465.592)" fill="#EFEFEF"/>
<circle cx="171.195" cy="524.989" r="2" transform="rotate(-45 171.195 524.989)" fill="#EFEFEF"/>
<circle cx="230.592" cy="584.386" r="2" transform="rotate(-45 230.592 584.386)" fill="#EFEFEF"/>
<circle cx="289.989" cy="643.783" r="2" transform="rotate(-45 289.989 643.783)" fill="#EFEFEF"/>
<circle cx="52.4012" cy="287.401" r="2" transform="rotate(-45 52.4012 287.401)" fill="#EFEFEF"/>
<circle cx="111.798" cy="346.798" r="2" transform="rotate(-45 111.798 346.798)" fill="#EFEFEF"/>
<circle cx="171.195" cy="406.195" r="2" transform="rotate(-45 171.195 406.195)" fill="#EFEFEF"/>
<circle cx="230.592" cy="465.592" r="2" transform="rotate(-45 230.592 465.592)" fill="#EFEFEF"/>
<circle cx="289.989" cy="524.989" r="2" transform="rotate(-45 289.989 524.989)" fill="#EFEFEF"/>
<circle cx="349.386" cy="584.386" r="2" transform="rotate(-45 349.386 584.386)" fill="#EFEFEF"/>
<circle cx="111.798" cy="228.004" r="2" transform="rotate(-45 111.798 228.004)" fill="#EFEFEF"/>
<circle cx="171.195" cy="287.401" r="2" transform="rotate(-45 171.195 287.401)" fill="#EFEFEF"/>
<circle cx="230.592" cy="346.798" r="2" transform="rotate(-45 230.592 346.798)" fill="#EFEFEF"/>
<circle cx="289.989" cy="406.195" r="2" transform="rotate(-45 289.989 406.195)" fill="#EFEFEF"/>
<circle cx="349.386" cy="465.592" r="2" transform="rotate(-45 349.386 465.592)" fill="#EFEFEF"/>
<circle cx="408.783" cy="524.989" r="2" transform="rotate(-45 408.783 524.989)" fill="#EFEFEF"/>
<circle cx="171.195" cy="168.607" r="2" transform="rotate(-45 171.195 168.607)" fill="#EFEFEF"/>
<circle cx="230.592" cy="228.004" r="2" transform="rotate(-45 230.592 228.004)" fill="#EFEFEF"/>
<circle cx="289.989" cy="287.401" r="2" transform="rotate(-45 289.989 287.401)" fill="#EFEFEF"/>
<circle cx="349.386" cy="346.798" r="2" transform="rotate(-45 349.386 346.798)" fill="#EFEFEF"/>
<circle cx="408.783" cy="406.195" r="2" transform="rotate(-45 408.783 406.195)" fill="#EFEFEF"/>
<circle cx="468.18" cy="465.592" r="2" transform="rotate(-45 468.18 465.592)" fill="#EFEFEF"/>
<circle cx="230.592" cy="109.21" r="2" transform="rotate(-45 230.592 109.21)" fill="#EFEFEF"/>
<circle cx="289.989" cy="168.607" r="2" transform="rotate(-45 289.989 168.607)" fill="#EFEFEF"/>
<circle cx="349.386" cy="228.004" r="2" transform="rotate(-45 349.386 228.004)" fill="#EFEFEF"/>
<circle cx="408.783" cy="287.401" r="2" transform="rotate(-45 408.783 287.401)" fill="#EFEFEF"/>
<circle cx="468.18" cy="346.798" r="2" transform="rotate(-45 468.18 346.798)" fill="#EFEFEF"/>
<circle cx="289.989" cy="49.813" r="2" transform="rotate(-45 289.989 49.813)" fill="#EFEFEF"/>
<circle cx="349.386" cy="109.21" r="2" transform="rotate(-45 349.386 109.21)" fill="#EFEFEF"/>
<circle cx="408.783" cy="168.607" r="2" transform="rotate(-45 408.783 168.607)" fill="#EFEFEF"/>
<circle cx="468.18" cy="228.004" r="2" transform="rotate(-45 468.18 228.004)" fill="#EFEFEF"/>
<circle cx="408.783" cy="49.813" r="2" transform="rotate(-45 408.783 49.813)" fill="#EFEFEF"/>
<circle cx="468.18" cy="109.21" r="2" transform="rotate(-45 468.18 109.21)" fill="#EFEFEF"/>
<circle cx="53.6595" cy="1120.22" r="2" transform="rotate(-45 53.6595 1120.22)" fill="#EFEFEF"/>
<circle cx="113.056" cy="1179.61" r="2" transform="rotate(-45 113.056 1179.61)" fill="#EFEFEF"/>
<circle cx="53.6595" cy="1001.42" r="2" transform="rotate(-45 53.6595 1001.42)" fill="#EFEFEF"/>
<circle cx="113.056" cy="1060.82" r="2" transform="rotate(-45 113.056 1060.82)" fill="#EFEFEF"/>
<circle cx="172.453" cy="1120.22" r="2" transform="rotate(-45 172.453 1120.22)" fill="#EFEFEF"/>
<circle cx="231.85" cy="1179.61" r="2" transform="rotate(-45 231.85 1179.61)" fill="#EFEFEF"/>
<circle cx="113.056" cy="942.026" r="2" transform="rotate(-45 113.056 942.026)" fill="#EFEFEF"/>
<circle cx="172.453" cy="1001.42" r="2" transform="rotate(-45 172.453 1001.42)" fill="#EFEFEF"/>
<circle cx="231.85" cy="1060.82" r="2" transform="rotate(-45 231.85 1060.82)" fill="#EFEFEF"/>
<circle cx="291.247" cy="1120.22" r="2" transform="rotate(-45 291.247 1120.22)" fill="#EFEFEF"/>
<circle cx="350.644" cy="1179.61" r="2" transform="rotate(-45 350.644 1179.61)" fill="#EFEFEF"/>
<circle cx="172.453" cy="882.629" r="2" transform="rotate(-45 172.453 882.629)" fill="#EFEFEF"/>
<circle cx="231.85" cy="942.026" r="2" transform="rotate(-45 231.85 942.026)" fill="#EFEFEF"/>
<circle cx="291.247" cy="1001.42" r="2" transform="rotate(-45 291.247 1001.42)" fill="#EFEFEF"/>
<circle cx="350.644" cy="1060.82" r="2" transform="rotate(-45 350.644 1060.82)" fill="#EFEFEF"/>
<circle cx="410.041" cy="1120.22" r="2" transform="rotate(-45 410.041 1120.22)" fill="#EFEFEF"/>
<circle cx="469.438" cy="1179.61" r="2" transform="rotate(-45 469.438 1179.61)" fill="#EFEFEF"/>
<circle cx="231.85" cy="823.232" r="2" transform="rotate(-45 231.85 823.232)" fill="#EFEFEF"/>
<circle cx="291.247" cy="882.629" r="2" transform="rotate(-45 291.247 882.629)" fill="#EFEFEF"/>
<circle cx="350.644" cy="942.026" r="2" transform="rotate(-45 350.644 942.026)" fill="#EFEFEF"/>
<circle cx="410.041" cy="1001.42" r="2" transform="rotate(-45 410.041 1001.42)" fill="#EFEFEF"/>
<circle cx="469.438" cy="1060.82" r="2" transform="rotate(-45 469.438 1060.82)" fill="#EFEFEF"/>
<circle cx="291.247" cy="763.835" r="2" transform="rotate(-45 291.247 763.835)" fill="#EFEFEF"/>
<circle cx="350.644" cy="823.232" r="2" transform="rotate(-45 350.644 823.232)" fill="#EFEFEF"/>
<circle cx="410.041" cy="882.629" r="2" transform="rotate(-45 410.041 882.629)" fill="#EFEFEF"/>
<circle cx="469.438" cy="942.026" r="2" transform="rotate(-45 469.438 942.026)" fill="#EFEFEF"/>
<circle cx="350.644" cy="704.438" r="2" transform="rotate(-45 350.644 704.438)" fill="#EFEFEF"/>
<circle cx="410.041" cy="763.835" r="2" transform="rotate(-45 410.041 763.835)" fill="#EFEFEF"/>
<circle cx="469.438" cy="823.232" r="2" transform="rotate(-45 469.438 823.232)" fill="#EFEFEF"/>
<circle cx="410.041" cy="645.041" r="2" transform="rotate(-45 410.041 645.041)" fill="#EFEFEF"/>
<circle cx="469.438" cy="704.438" r="2" transform="rotate(-45 469.438 704.438)" fill="#EFEFEF"/>
</g>
<g filter="url(#filter1_d_117_6401)">
<mask id="path-76-inside-1_117_6401" fill="white">
<path fill-rule="evenodd" clip-rule="evenodd" d="M89.4566 1109.25L69.2535 1129.46L94.5074 1154.71L69.2537 1179.96L89.4567 1200.17L114.71 1174.91L139.964 1200.17L160.167 1179.96L134.914 1154.71L160.167 1129.46L139.964 1109.25L114.71 1134.51L89.4566 1109.25Z"/>
</mask>
<path d="M69.2535 1129.46L65.0109 1125.21L60.7683 1129.46L65.0109 1133.7L69.2535 1129.46ZM89.4566 1109.25L93.6992 1105.01L89.4566 1100.77L85.214 1105.01L89.4566 1109.25ZM94.5074 1154.71L98.7501 1158.95L102.993 1154.71L98.7501 1150.47L94.5074 1154.71ZM69.2537 1179.96L65.011 1175.72L60.7684 1179.96L65.011 1184.21L69.2537 1179.96ZM89.4567 1200.17L85.2141 1204.41L89.4567 1208.65L93.6994 1204.41L89.4567 1200.17ZM114.71 1174.91L118.953 1170.67L114.71 1166.43L110.468 1170.67L114.71 1174.91ZM139.964 1200.17L135.722 1204.41L139.964 1208.65L144.207 1204.41L139.964 1200.17ZM160.167 1179.96L164.41 1184.21L168.653 1179.96L164.41 1175.72L160.167 1179.96ZM134.914 1154.71L130.671 1150.47L126.428 1154.71L130.671 1158.95L134.914 1154.71ZM160.167 1129.46L164.41 1133.7L168.653 1129.46L164.41 1125.21L160.167 1129.46ZM139.964 1109.25L144.207 1105.01L139.964 1100.77L135.722 1105.01L139.964 1109.25ZM114.71 1134.51L110.468 1138.75L114.71 1142.99L118.953 1138.75L114.71 1134.51ZM73.4962 1133.7L93.6992 1113.5L85.214 1105.01L65.0109 1125.21L73.4962 1133.7ZM98.7501 1150.47L73.4962 1125.21L65.0109 1133.7L90.2648 1158.95L98.7501 1150.47ZM73.4963 1184.21L98.7501 1158.95L90.2648 1150.47L65.011 1175.72L73.4963 1184.21ZM93.6994 1195.93L73.4963 1175.72L65.011 1184.21L85.2141 1204.41L93.6994 1195.93ZM110.468 1170.67L85.2141 1195.93L93.6994 1204.41L118.953 1179.16L110.468 1170.67ZM144.207 1195.93L118.953 1170.67L110.468 1179.16L135.722 1204.41L144.207 1195.93ZM155.925 1175.72L135.722 1195.93L144.207 1204.41L164.41 1184.21L155.925 1175.72ZM130.671 1158.95L155.925 1184.21L164.41 1175.72L139.156 1150.47L130.671 1158.95ZM155.925 1125.21L130.671 1150.47L139.156 1158.95L164.41 1133.7L155.925 1125.21ZM135.722 1113.5L155.925 1133.7L164.41 1125.21L144.207 1105.01L135.722 1113.5ZM118.953 1138.75L144.207 1113.5L135.722 1105.01L110.468 1130.27L118.953 1138.75ZM85.214 1113.5L110.468 1138.75L118.953 1130.27L93.6992 1105.01L85.214 1113.5Z" fill="#83D0F7" mask="url(#path-76-inside-1_117_6401)"/>
</g>
<g filter="url(#filter2_d_117_6401)">
<mask id="path-78-inside-2_117_6401" fill="white">
<path fill-rule="evenodd" clip-rule="evenodd" d="M439.457 -2.46175L419.254 17.7413L444.508 42.9952L419.254 68.249L439.457 88.4521L464.711 63.1983L489.964 88.452L510.168 68.2489L484.914 42.9952L510.168 17.7414L489.965 -2.46163L464.711 22.7922L439.457 -2.46175Z"/>
</mask>
<path d="M419.254 17.7413L415.011 13.4987L410.769 17.7413L415.011 21.9839L419.254 17.7413ZM439.457 -2.46175L443.7 -6.70439L439.457 -10.947L435.214 -6.70439L439.457 -2.46175ZM444.508 42.9952L448.75 47.2379L452.993 42.9952L448.75 38.7526L444.508 42.9952ZM419.254 68.249L415.011 64.0064L410.769 68.249L415.011 72.4917L419.254 68.249ZM439.457 88.4521L435.214 92.6947L439.457 96.9374L443.7 92.6947L439.457 88.4521ZM464.711 63.1983L468.953 58.9556L464.711 54.713L460.468 58.9556L464.711 63.1983ZM489.964 88.452L485.722 92.6946L489.964 96.9373L494.207 92.6946L489.964 88.452ZM510.168 68.2489L514.41 72.4916L518.653 68.2489L514.41 64.0063L510.168 68.2489ZM484.914 42.9952L480.671 38.7526L476.429 42.9952L480.671 47.2379L484.914 42.9952ZM510.168 17.7414L514.41 21.9841L518.653 17.7414L514.41 13.4988L510.168 17.7414ZM489.965 -2.46163L494.207 -6.70427L489.965 -10.9469L485.722 -6.70427L489.965 -2.46163ZM464.711 22.7922L460.468 27.0348L464.711 31.2775L468.953 27.0348L464.711 22.7922ZM423.496 21.9839L443.7 1.78089L435.214 -6.70439L415.011 13.4987L423.496 21.9839ZM448.75 38.7526L423.496 13.4987L415.011 21.9839L440.265 47.2379L448.75 38.7526ZM423.497 72.4917L448.75 47.2379L440.265 38.7526L415.011 64.0064L423.497 72.4917ZM443.7 84.2095L423.497 64.0064L415.011 72.4917L435.214 92.6947L443.7 84.2095ZM460.468 58.9556L435.214 84.2095L443.7 92.6947L468.953 67.4409L460.468 58.9556ZM494.207 84.2093L468.953 58.9556L460.468 67.4409L485.722 92.6946L494.207 84.2093ZM505.925 64.0063L485.722 84.2093L494.207 92.6946L514.41 72.4916L505.925 64.0063ZM480.671 47.2379L505.925 72.4916L514.41 64.0063L489.156 38.7526L480.671 47.2379ZM505.925 13.4988L480.671 38.7526L489.156 47.2379L514.41 21.9841L505.925 13.4988ZM485.722 1.78101L505.925 21.9841L514.41 13.4988L494.207 -6.70427L485.722 1.78101ZM468.953 27.0348L494.207 1.78101L485.722 -6.70427L460.468 18.5495L468.953 27.0348ZM435.214 1.78089L460.468 27.0348L468.953 18.5495L443.7 -6.70439L435.214 1.78089Z" fill="#8D9CDC" mask="url(#path-78-inside-2_117_6401)"/>
</g>
</g>
<defs>
<filter id="filter0_d_117_6401" x="-505" y="-270" width="2068.53" height="2068.53" filterUnits="userSpaceOnUse" color-interpolation-filters="sRGB">
<feFlood flood-opacity="0" result="BackgroundImageFix"/>
<feColorMatrix in="SourceAlpha" type="matrix" values="0 0 0 0 0 0 0 0 0 0 0 0 0 0 0 0 0 0 127 0" result="hardAlpha"/>
<feOffset/>
<feGaussianBlur stdDeviation="10"/>
<feComposite in2="hardAlpha" operator="out"/>
<feColorMatrix type="matrix" values="0 0 0 0 0 0 0 0 0 0 0 0 0 0 0 0 0 0 0.25 0"/>
<feBlend mode="normal" in2="BackgroundImageFix" result="effect1_dropShadow_117_6401"/>
<feBlend mode="normal" in="SourceGraphic" in2="effect1_dropShadow_117_6401" result="shape"/>
</filter>
<filter id="filter1_d_117_6401" x="49.2534" y="1089.25" width="130.914" height="130.914" filterUnits="userSpaceOnUse" color-interpolation-filters="sRGB">
<feFlood flood-opacity="0" result="BackgroundImageFix"/>
<feColorMatrix in="SourceAlpha" type="matrix" values="0 0 0 0 0 0 0 0 0 0 0 0 0 0 0 0 0 0 127 0" result="hardAlpha"/>
<feOffset/>
<feGaussianBlur stdDeviation="10"/>
<feComposite in2="hardAlpha" operator="out"/>
<feColorMatrix type="matrix" values="0 0 0 0 0 0 0 0 0 0 0 0 0 0 0 0 0 0 0.25 0"/>
<feBlend mode="normal" in2="BackgroundImageFix" result="effect1_dropShadow_117_6401"/>
<feBlend mode="normal" in="SourceGraphic" in2="effect1_dropShadow_117_6401" result="shape"/>
</filter>
<filter id="filter2_d_117_6401" x="399.254" y="-22.4619" width="130.914" height="130.914" filterUnits="userSpaceOnUse" color-interpolation-filters="sRGB">
<feFlood flood-opacity="0" result="BackgroundImageFix"/>
<feColorMatrix in="SourceAlpha" type="matrix" values="0 0 0 0 0 0 0 0 0 0 0 0 0 0 0 0 0 0 127 0" result="hardAlpha"/>
<feOffset/>
<feGaussianBlur stdDeviation="10"/>
<feComposite in2="hardAlpha" operator="out"/>
<feColorMatrix type="matrix" values="0 0 0 0 0 0 0 0 0 0 0 0 0 0 0 0 0 0 0.25 0"/>
<feBlend mode="normal" in2="BackgroundImageFix" result="effect1_dropShadow_117_6401"/>
<feBlend mode="normal" in="SourceGraphic" in2="effect1_dropShadow_117_6401" result="shape"/>
</filter>
<clipPath id="clip0_117_6401">
<rect width="480" height="1236" fill="white"/>
</clipPath>
</defs>
</svg>
