<svg width="247" height="68" viewBox="0 0 247 68" fill="none" xmlns="http://www.w3.org/2000/svg">
<g clip-path="url(#clip0_9_1863)">
<path opacity="0.9" fill-rule="evenodd" clip-rule="evenodd" d="M88.071 0.0207861L88.0716 0.0207747C88.3833 0.0103037 88.6899 0 89.0066 0C101.096 0 110.928 9.74405 110.923 21.7351V45.483C110.923 57.4634 101.096 67.2073 89.0066 67.2073C83.2578 67.2073 78.0192 64.9979 74.1077 61.3929L74.1146 61.3837C78.0255 64.9842 83.2609 67.1911 89.0066 67.1911V64.0925H89.0123C99.3606 64.0925 107.78 55.7542 107.78 45.4936V21.7404C107.78 11.4852 99.3656 3.14153 89.0123 3.14153C88.7276 3.14153 88.448 3.15217 88.169 3.16282L88.1684 3.16283C88.1313 3.16549 88.0949 3.16681 88.0584 3.16815L88.0465 3.16859L88.0245 3.16945C88.0113 3.16997 87.9981 3.17054 87.9855 3.17122C87.973 3.17186 87.961 3.1726 87.9484 3.17348C87.8316 3.18376 87.7134 3.1928 87.5966 3.2018C87.4703 3.21144 87.3452 3.22103 87.2233 3.23205C87.2101 3.2339 87.1963 3.23509 87.1825 3.23611L87.1724 3.23683L87.1643 3.23737L87.1636 3.23738L87.1473 3.2385L87.1404 3.23902L87.131 3.23978C87.1222 3.24057 87.1134 3.2415 87.1046 3.2427C86.8551 3.26648 86.6145 3.29876 86.3663 3.33196L86.2777 3.34386C86.2324 3.35202 86.1903 3.35705 86.1463 3.36375C86.1331 3.36579 86.1193 3.36799 86.1055 3.37048C85.9201 3.39443 85.7442 3.42734 85.5683 3.46026L85.5676 3.46032L85.5305 3.4673C85.5098 3.47108 85.4897 3.47484 85.4696 3.47859C85.4432 3.48342 85.4174 3.48822 85.3911 3.49295C85.3477 3.49828 85.305 3.5036 85.2622 3.51426C84.977 3.57283 84.703 3.63139 84.429 3.70061L84.365 3.71659C84.3053 3.73257 84.2456 3.74825 84.1865 3.76391L84.1834 3.76471C83.9861 3.81667 83.7894 3.86845 83.5965 3.92957C83.5644 3.94022 83.5318 3.94554 83.4997 3.9562C82.9411 4.12659 82.3926 4.32359 81.861 4.5419C81.8503 4.5419 81.8396 4.54723 81.8289 4.55255C79.6259 5.45774 77.6378 6.76762 75.9507 8.39159V8.38629C75.0591 9.23822 74.2585 10.1807 73.5548 11.1924C74.1348 12.2307 74.6399 13.3116 75.0484 14.4457C77.6378 9.50443 82.855 6.11267 88.8508 6.11267H89.1844C97.7539 6.11267 104.728 13.0134 104.728 21.5062V45.7119C104.728 54.2047 97.7539 61.1161 89.1844 61.1161H88.8508C82.8506 61.1161 77.6397 57.7309 75.0496 52.7805C75.0528 52.7725 75.0553 52.7645 75.0584 52.7564C77.6479 57.7083 82.8601 61.0947 88.8615 61.0947H89.028L89.0066 57.9798H88.8401C82.0055 57.9798 76.4502 52.4689 76.4502 45.7012V26.4793H73.1727V45.4776C73.1727 48.0281 72.6462 50.4455 71.7055 52.6552C71.7055 52.655 71.7055 52.6549 71.7055 52.6547C72.643 50.448 73.1677 48.0292 73.1677 45.483V21.7298C73.1677 11.4746 64.7484 3.13088 54.4002 3.13088C44.0521 3.13088 35.6328 11.4693 35.6328 21.7298V45.483C35.6328 55.7329 44.0521 64.0819 54.4002 64.0819H54.4052V67.1911C60.153 67.1911 65.3906 64.9824 69.3021 61.3789L69.3046 61.3823C65.3931 64.9873 60.1545 67.1967 54.4056 67.1967C46.2281 67.1967 39.0876 62.7294 35.3212 56.1269V67.4153H32.178V0.846613H35.3212V11.0699C39.0876 4.46736 46.2334 0 54.4109 0C61.4387 0 67.7036 3.30127 71.7062 8.40224C73.8715 5.6441 76.6978 3.41308 79.9426 1.94349L79.9753 1.92751C80.5609 1.65596 81.1729 1.41635 81.7912 1.20336L81.888 1.17142C82.4893 0.963757 83.102 0.782722 83.7253 0.633633C83.7366 0.631385 83.7485 0.6289 83.7599 0.626279C83.7812 0.621483 83.8026 0.616231 83.8239 0.611134L83.8409 0.606998L83.861 0.602214C83.8698 0.600142 83.878 0.598173 83.8868 0.596356C84.4938 0.452594 85.1114 0.335452 85.7404 0.239609C85.775 0.234284 85.8089 0.23029 85.8422 0.226295C85.8755 0.222305 85.9094 0.21831 85.944 0.212985C86.5673 0.127792 87.1907 0.0638939 87.8247 0.0319489C87.8611 0.0291972 87.9001 0.0278669 87.9403 0.026491L87.9415 0.0264569C87.9604 0.0257955 87.9805 0.0251228 88 0.0242753C88.0188 0.0234809 88.037 0.0225307 88.0559 0.0212993L88.071 0.0207861ZM69.3021 61.3789L69.304 61.3769C68.7881 60.706 68.0096 59.6411 67.488 58.7945C64.0981 62.0638 59.4825 64.0763 54.4052 64.0763V64.0819C59.4913 64.0807 64.105 62.0575 67.483 58.7998C68.0033 59.645 68.7862 60.7078 69.3021 61.3789ZM70.2339 26.474H70.239V45.4776C70.239 48.0173 70.7655 50.4451 71.7055 52.6547C71.7043 52.6585 71.7024 52.6621 71.7011 52.6659C70.7605 50.4561 70.2339 48.0281 70.2339 45.483V26.474ZM66.9621 26.474H70.2339V21.7298C70.2339 21.618 70.2396 21.5115 70.2446 21.405C70.2503 20.4306 70.1108 17.3955 68.3696 14.4298C68.3696 14.4324 68.3684 14.4351 68.3671 14.4377L68.3658 14.4396C68.3652 14.4416 68.3646 14.4437 68.3646 14.4457C65.7745 9.49914 60.5629 6.11267 54.5614 6.11267H54.2336C45.6639 6.11267 38.6954 13.0241 38.6954 21.5062V45.7066C38.6954 54.1994 45.6693 61.1107 54.2336 61.1107H54.5614C60.5629 61.1107 65.7745 57.7189 68.3646 52.7724C68.8315 54.0716 69.4227 55.3069 70.1215 56.4837C70.5996 57.3249 71.1369 58.1609 71.7011 58.7998L71.7062 58.7945L71.7118 58.7998C72.2755 58.1662 72.8183 57.3302 73.2915 56.4837C73.7119 55.7809 74.092 55.0511 74.4313 54.2978C74.655 53.8021 74.8611 53.2964 75.0496 52.7805C75.049 52.7796 75.0484 52.7787 75.0484 52.7777C74.8605 53.2939 74.6544 53.801 74.4313 54.2978C74.0945 55.042 73.7181 55.7636 73.3016 56.4623C72.8284 57.3036 72.2861 58.1396 71.7219 58.7785C71.7169 58.7785 71.7162 58.7732 71.7162 58.7732C71.7112 58.7732 71.7112 58.7785 71.7112 58.7785C71.1469 58.1396 70.6097 57.3089 70.1315 56.4623C69.4328 55.2856 68.8421 54.0503 68.3746 52.7511C65.7846 57.6976 60.5732 61.0894 54.5717 61.0894H54.4052V57.9798H54.5721C61.4011 57.9798 66.9621 52.4742 66.9621 45.7012V26.474ZM66.9621 26.474H66.9615V45.6959C66.9615 52.4689 61.4006 57.9745 54.5717 57.9745H54.4052V57.9798H54.2444C47.4101 57.9798 41.8546 52.4689 41.8546 45.7012V21.4955C41.8546 14.7226 47.4155 9.21693 54.2444 9.21693H54.5721C61.4064 9.21693 66.9621 14.7279 66.9621 21.4955V26.474ZM89.0066 64.0925V64.0763C83.9182 64.0763 79.3086 62.0638 75.9237 58.7945C75.4128 59.6294 74.6437 60.6587 74.1379 61.336L74.1077 61.3769L74.1146 61.3837C74.6255 60.7071 75.4103 59.6533 75.9293 58.8105C79.313 62.0786 83.9207 64.0913 89.0066 64.0925ZM88.8401 9.21157C82.0111 9.21157 76.4502 14.7173 76.4502 21.4902V45.6906C76.4502 52.4582 82.0061 57.9692 88.8401 57.9692H89.1731C96.002 57.9692 101.563 52.4636 101.563 45.6906V21.4902C101.563 14.7226 96.0077 9.21157 89.1731 9.21157H88.8401ZM89.0066 55.0141H89.0116V55.0194C84.7991 55.0194 81.2163 52.2831 79.9797 48.5103C81.2207 52.2828 84.7954 55.0141 89.0066 55.0141ZM89.0003 51.8991C85.5079 51.8929 82.6665 49.0733 82.6665 45.6108V21.5808C82.6665 18.1144 85.5142 15.2924 89.0123 15.2924C92.5097 15.2924 95.3574 18.1144 95.3574 21.5808V45.6108C95.3574 49.0771 92.5097 51.8992 89.0123 51.8992L89.0066 51.8991L89.0116 55.0141C94.2427 55.0113 98.5004 50.79 98.5004 45.6055V21.5754C98.5004 16.3892 94.2402 12.1668 89.0066 12.1668C83.7737 12.1668 79.5128 16.3892 79.5128 21.5754V45.6055C79.5147 46.6189 79.6787 47.5953 79.9797 48.5103C79.68 47.5966 79.5178 46.622 79.5178 45.6108V37.1819H82.6609V45.6108C82.6609 49.0751 85.5054 51.8959 89.0003 51.8991ZM44.9061 21.5913C44.9061 16.4051 49.1668 12.1827 54.4 12.1827C59.6331 12.1827 63.8939 16.3945 63.8939 21.586V45.616C63.8939 50.8022 59.6331 55.0246 54.4 55.0246C49.1668 55.0246 44.9061 50.8022 44.9061 45.616V21.5913ZM60.7452 37.1819H63.8939V45.6108C63.8939 50.797 59.6331 55.0194 54.3999 55.0194V51.9045C57.0463 51.9045 59.3204 50.2858 60.2707 47.9966C59.3199 50.284 57.0448 51.8991 54.3946 51.8991C50.8968 51.8991 48.0493 49.077 48.0493 45.6107V21.586C48.0493 18.1196 50.8968 15.2976 54.3946 15.2976C57.8923 15.2976 60.7453 18.1196 60.7453 21.586L60.7452 37.1819ZM60.7452 37.1819V45.6108L60.7453 45.6107L60.7452 37.1819ZM19.7449 67.4153V35.1638C20.7926 34.5408 21.7866 33.8273 22.7053 33.0446L22.888 32.8849V67.4153H19.7449ZM22.888 0.846662H19.7449C19.7449 12.2307 11.1751 21.6606 0.0909424 23.1515V26.293C12.9106 24.7808 22.888 13.9506 22.888 0.846662ZM0.0909424 38.6675V35.5419C9.07437 34.7699 17.1122 30.6379 22.888 24.4081V28.8063C16.7737 34.3652 8.84333 37.9753 0.0909424 38.6675ZM25.9613 0.841326V0.857304C25.9613 15.6384 14.6085 27.8478 0.0909424 29.3654V32.4962C11.5083 31.4207 21.2009 24.3921 25.9613 14.5788V67.4153H29.1044V0.841326H25.9613Z" fill="white"/>
<path d="M88.7747 60.8454C82.9078 60.8131 77.8175 57.4908 75.2815 52.6418L75.017 52.1359L74.8222 52.6719C74.3547 53.9566 73.7753 55.1778 73.0854 56.3356L73.0835 56.3383L73.0816 56.3411C72.6657 57.0817 72.1994 57.8102 71.7169 58.3984C71.2349 57.8112 70.7718 57.0865 70.3508 56.3407L70.3496 56.3383L70.3483 56.336C69.6571 55.1721 69.0734 53.951 68.6115 52.6674L68.4174 52.1284L68.1516 52.6364C65.6156 57.4808 60.5243 60.8083 54.6565 60.8401V58.2233C61.5854 58.178 67.2128 52.5785 67.2128 45.696V26.7231H69.9876V45.4776C69.9876 48.0518 70.5211 50.5127 71.4743 52.752L71.7055 53.2963L71.9374 52.752C72.89 50.5127 73.4241 48.0626 73.4241 45.4776V26.7284H76.1989V45.7012C76.1989 52.5789 81.822 58.1842 88.7565 58.2287L88.7747 60.8454ZM54.6565 66.9408V64.3242C59.592 64.26 64.0824 62.3197 67.4384 59.1864C67.9059 59.9152 68.5097 60.7462 68.9659 61.3468C65.1751 64.7681 60.1593 66.8785 54.6565 66.9408ZM75.9733 59.1869C79.3243 62.3203 83.8095 64.26 88.7553 64.3242V66.9408C83.2515 66.8785 78.2348 64.7675 74.4439 61.3452C74.8913 60.7454 75.5033 59.919 75.9733 59.1869ZM60.9966 45.6108V37.431H63.6425V45.6108C63.6425 50.5761 59.63 54.6344 54.6512 54.767V52.1489C58.1721 52.0172 60.9966 49.131 60.9966 45.6108ZM82.4095 45.6108C82.4095 49.1314 85.2346 52.0124 88.7559 52.1436L88.7603 54.767C83.7819 54.6342 79.7692 50.576 79.7692 45.6108V37.431H82.4095V45.6108Z" stroke="white" stroke-width="0.3"/>
<path opacity="0.9" d="M125.53 20.2381H121.641V17.461H122.762L123.711 0.809509H130.878V20.2381H127.938V3.58654H126.484L125.53 20.2381Z" fill="white"/>
<path opacity="0.9" d="M133.014 0.809509H140.303V3.58654H135.96V8.30539H140.163V11.0771H135.96V17.461H140.303V20.2381H133.014V0.809509Z" fill="white"/>
<path opacity="0.9" d="M141.685 0.809509H150.231V3.58654H147.427V20.2381H144.483V3.58654H141.685V0.809509Z" fill="white"/>
<path opacity="0.9" d="M130.803 24.6594H134.396V44.0879H131.449V35.7599L131.927 30.2096H131.787L129.738 40.2033H126.99L124.881 30.2096H124.741L125.279 35.7599V44.0879H122.332V24.6594H125.919L128.308 35.7599H128.394L130.803 24.6594Z" fill="white"/>
<path opacity="0.9" d="M137.818 44.1448C137.036 44.1448 136.533 43.6165 136.533 42.864V25.9403C136.533 25.1877 137.036 24.6594 137.818 24.6594H144.045C144.826 24.6594 145.33 25.1877 145.33 25.9403V42.8693C145.33 43.6218 144.826 44.1502 144.045 44.1502H137.818V44.1448ZM142.395 27.44H139.461V41.359H142.395V27.44Z" fill="white"/>
<path opacity="0.9" d="M148.755 44.0879C147.971 44.0879 147.466 43.5611 147.466 42.8108V25.9365C147.466 25.1862 147.971 24.6594 148.755 24.6594H156.012V30.2096H153.068V27.4319H150.403V41.3101H153.068V37.7022H156.012V44.0879H148.755Z" fill="white"/>
<path opacity="0.9" d="M167.385 44.0879H164.261L161.676 34.9297H160.916V44.0879H157.959V24.6594H160.916V32.1519H161.757L164.261 24.6594H167.385L164.347 33.5408L167.385 44.0879Z" fill="white"/>
<path opacity="0.9" d="M170.052 44.1448C169.27 44.1448 168.767 43.6165 168.767 42.864V25.9403C168.767 25.1877 169.27 24.6594 170.052 24.6594H176.279C177.061 24.6594 177.564 25.1877 177.564 25.9403V42.8693C177.564 43.6218 177.061 44.1502 176.279 44.1502H170.052V44.1448ZM174.63 27.44H171.696V41.359H174.63V27.44Z" fill="white"/>
<path opacity="0.9" d="M188.246 31.375C188.246 32.4872 187.655 33.2322 186.79 33.5408C187.66 33.8442 188.246 34.5679 188.246 35.7067V42.8108C188.246 43.5611 187.741 44.0879 186.957 44.0879H179.7V24.6594H186.957C187.741 24.6594 188.246 25.1862 188.246 25.9365V31.375ZM185.308 27.4319H182.649V32.1519H185.308V27.4319ZM182.644 41.3154H185.302V34.9297H182.644V41.3154Z" fill="white"/>
<path opacity="0.9" d="M191.671 44.0879C190.887 44.0879 190.382 43.5611 190.382 42.8108V25.9365C190.382 25.1862 190.887 24.6594 191.671 24.6594H198.928V30.2096H195.984V27.4319H193.32V41.3101H195.984V37.7022H198.928V44.0879H191.671Z" fill="white"/>
<path opacity="0.9" d="M210.301 44.0879H207.179L204.591 34.9297H203.83V44.0879H200.876V24.6594H203.83V32.1519H204.672L207.179 24.6594H210.301L207.26 33.5408L210.301 44.0879Z" fill="white"/>
<path opacity="0.9" d="M212.977 44.1448C212.19 44.1448 211.684 43.6165 211.684 42.864V25.9403C211.684 25.1877 212.19 24.6594 212.977 24.6594H219.249C220.036 24.6594 220.543 25.1877 220.543 25.9403V42.8693C220.543 43.6218 220.036 44.1502 219.249 44.1502H212.977V44.1448ZM217.593 27.44H214.638V41.359H217.593V27.44Z" fill="white"/>
<path opacity="0.9" d="M231.09 24.6594H234.681V44.0879H231.735V35.7599L232.208 30.2096H232.068L230.025 40.2033H227.272L225.171 30.2096H225.03L225.563 35.7599V44.0879H222.617V24.6594H226.208L228.595 35.7599H228.676L231.09 24.6594Z" fill="white"/>
<path opacity="0.9" d="M242.844 44.0879H238.847V41.3154H240.369L240.962 37.7075H238.847L236.064 24.6594H239.074L241.269 34.9297H241.41L243.125 24.6594H246.055L242.844 44.0879Z" fill="white"/>
<path opacity="0.9" d="M123.621 68C122.836 68 122.332 67.4719 122.332 66.7191V49.7901C122.332 49.0375 122.836 48.5092 123.621 48.5092H130.877V54.0757H127.934V51.2897H125.269V65.209H127.934V61.5903H130.877V67.9944H123.621V68Z" fill="white"/>
<path opacity="0.9" d="M141.811 48.5092V68H138.881V51.2951H135.813V68H132.888V48.5092H141.811Z" fill="white"/>
<path opacity="0.9" d="M145.232 68C144.451 68 143.947 67.4719 143.947 66.7191V49.7901C143.947 49.0375 144.451 48.5092 145.232 48.5092H151.459C152.241 48.5092 152.744 49.0375 152.744 49.7901V66.7191C152.744 67.4719 152.241 68 151.459 68H145.232ZM149.81 51.2951H146.876V65.214H149.81V51.2951Z" fill="white"/>
<path opacity="0.9" d="M157.819 61.5955V68H154.88V48.5092H162.264C163.047 48.5092 163.552 49.0375 163.552 49.7901V60.3147C163.552 61.0672 163.047 61.5955 162.264 61.5955H157.819ZM157.819 58.8096H160.618V51.2951H157.819V58.8096Z" fill="white"/>
<path opacity="0.9" d="M164.997 48.5092H173.543V51.2951H170.739V68H167.795V51.2951H164.997V48.5092Z" fill="white"/>
<path opacity="0.9" d="M181.14 68H177.143V65.214H178.664L179.258 61.5955H177.143L174.359 48.5092H177.369L179.565 58.8096H179.706L181.421 48.5092H184.35L181.14 68Z" fill="white"/>
</g>
<defs>
<clipPath id="clip0_9_1863">
<rect width="246" height="68" fill="white" transform="translate(0.0909424)"/>
</clipPath>
</defs>
</svg>
