<svg width="320" height="36" viewBox="0 0 320 36" fill="none" xmlns="http://www.w3.org/2000/svg">
<g clip-path="url(#clip0_640_62)">
<path d="M136.594 11.2821V24.7543H132.862V23.2019C131.894 24.3708 130.492 24.9548 128.656 24.9548C127.387 24.9548 126.239 24.6708 125.212 24.1034C124.185 23.5361 123.38 22.7256 122.796 21.6745C122.211 20.6226 121.919 19.4035 121.919 18.0182C121.919 16.6329 122.211 15.4138 122.796 14.3619C123.38 13.3099 124.185 12.5003 125.212 11.933C126.239 11.3656 127.387 11.0815 128.656 11.0815C130.375 11.0815 131.719 11.6238 132.688 12.7092V11.2821L136.594 11.2821ZM131.786 20.7354C132.437 20.0586 132.763 19.1537 132.763 18.0182C132.763 16.8827 132.437 15.977 131.786 15.301C131.135 14.6251 130.317 14.2867 129.332 14.2867C128.331 14.2867 127.504 14.6251 126.852 15.301C126.202 15.977 125.877 16.8827 125.877 18.0182C125.877 19.1537 126.202 20.0586 126.852 20.7354C127.504 21.4113 128.331 21.7489 129.332 21.7489C130.317 21.7489 131.135 21.4113 131.786 20.7354Z" fill="#1D1D1B"/>
<path d="M152.946 11.2822V24.7545H149.039V14.4874H144.782L144.657 16.8661C144.59 18.6358 144.423 20.1055 144.156 21.2736C143.889 22.4425 143.455 23.3608 142.855 24.0284C142.253 24.696 141.418 25.0302 140.35 25.0302C139.782 25.0302 139.106 24.9299 138.322 24.7294L138.522 21.5243C138.789 21.5577 138.981 21.5744 139.098 21.5744C139.682 21.5744 140.121 21.3613 140.412 20.9352C140.705 20.5099 140.901 19.9677 141.001 19.3076C141.102 18.6483 141.177 17.776 141.226 16.6907L141.427 11.2822L152.946 11.2822Z" fill="#1D1D1B"/>
<path d="M157.792 23.7025C156.698 22.7508 156.151 21.3488 156.151 19.4956V11.2822H160.033V15.8393C160.45 15.5393 160.988 15.3053 161.649 15.1382C162.308 14.972 163.046 14.8876 163.864 14.8876C165.55 14.8876 166.87 15.3053 167.821 16.1401C168.773 16.9748 169.249 18.1938 169.249 19.7964C169.249 21.5159 168.66 22.8352 167.483 23.7527C166.306 24.6709 164.691 25.1305 162.638 25.1305C160.5 25.1305 158.885 24.6542 157.792 23.7025ZM164.578 21.6997C165.037 21.2485 165.267 20.6394 165.267 19.8716C165.267 19.1371 165.046 18.5606 164.603 18.1437C164.161 17.7259 163.53 17.517 162.713 17.517C162.111 17.517 161.577 17.6265 161.11 17.8429C160.643 18.0601 160.283 18.3684 160.033 18.7695V19.8716C160.033 20.6561 160.262 21.2694 160.722 21.7123C161.181 22.1543 161.819 22.3757 162.638 22.3757C163.472 22.3757 164.119 22.1501 164.578 21.6997Z" fill="#1D1D1B"/>
<path d="M188.017 22.9137C186.623 24.1244 184.632 24.8213 182.045 25.0051V29.6123H178.464V25.0051C175.875 24.8213 173.885 24.1328 172.491 22.9388C171.097 21.7456 170.4 20.0888 170.4 17.9682C170.4 15.881 171.088 14.2617 172.466 13.1095C173.843 11.9581 175.843 11.2905 178.464 11.1067V6.17285H182.045V11.1067C184.632 11.2905 186.623 11.9665 188.017 13.1346C189.411 14.3035 190.108 15.9144 190.108 17.9682C190.108 20.0553 189.411 21.7039 188.017 22.9137ZM175.208 20.748C175.893 21.3989 176.977 21.8083 178.464 21.9746V14.1364C176.977 14.2868 175.893 14.6753 175.208 15.3011C174.523 15.9269 174.182 16.816 174.182 17.9682C174.182 19.1697 174.523 20.0963 175.208 20.748ZM185.313 20.748C186.005 20.0963 186.352 19.1697 186.352 17.9682C186.352 16.816 186.005 15.9269 185.313 15.3011C184.62 14.6753 183.53 14.2868 182.045 14.1364V21.9746C183.53 21.8083 184.62 21.3989 185.313 20.748Z" fill="#1D1D1B"/>
<path d="M206.11 11.2821V24.7543H202.379V23.2019C201.41 24.3708 200.008 24.9548 198.172 24.9548C196.903 24.9548 195.755 24.6708 194.728 24.1034C193.702 23.5361 192.896 22.7256 192.312 21.6745C191.727 20.6226 191.436 19.4035 191.436 18.0182C191.436 16.6329 191.727 15.4138 192.312 14.3619C192.896 13.3099 193.702 12.5003 194.728 11.933C195.755 11.3656 196.903 11.0815 198.172 11.0815C199.891 11.0815 201.236 11.6238 202.204 12.7092V11.2821L206.11 11.2821ZM201.302 20.7354C201.953 20.0586 202.279 19.1537 202.279 18.0182C202.279 16.8827 201.953 15.977 201.302 15.301C200.651 14.6251 199.833 14.2867 198.848 14.2867C197.847 14.2867 197.02 14.6251 196.369 15.301C195.718 15.977 195.393 16.8827 195.393 18.0182C195.393 19.1537 195.718 20.0586 196.369 20.7354C197.02 21.4113 197.847 21.7489 198.848 21.7489C199.833 21.7489 200.651 21.4113 201.302 20.7354Z" fill="#1D1D1B"/>
<path d="M218.919 24.0658C217.775 23.4734 216.882 22.6504 216.239 21.5993C215.597 20.5474 215.275 19.3542 215.275 18.0182C215.275 16.6822 215.597 15.489 216.239 14.4371C216.882 13.3851 217.775 12.563 218.919 11.9706C220.062 11.3782 221.352 11.0815 222.787 11.0815C224.206 11.0815 225.446 11.3782 226.506 11.9706C227.567 12.563 228.339 13.4102 228.823 14.5123L225.793 16.1399C225.092 14.905 224.082 14.2867 222.762 14.2867C221.744 14.2867 220.901 14.6209 220.233 15.2885C219.566 15.9561 219.232 16.866 219.232 18.0182C219.232 19.1696 219.566 20.0803 220.233 20.7479C220.901 21.4155 221.744 21.7489 222.762 21.7489C224.098 21.7489 225.108 21.1314 225.793 19.8965L228.823 21.5492C228.339 22.6178 227.567 23.4525 226.506 24.0533C225.446 24.6541 224.206 24.9548 222.787 24.9548C221.352 24.9548 220.062 24.6582 218.919 24.0658Z" fill="#1D1D1B"/>
<path d="M244.349 11.2822V24.7545H240.442V14.4874H234.833V24.7545H230.952V11.2822H244.349Z" fill="#1D1D1B"/>
<path d="M250.346 24.0658C249.219 23.4734 248.338 22.6504 247.704 21.5993C247.069 20.5474 246.752 19.3542 246.752 18.0182C246.752 16.6822 247.069 15.489 247.704 14.4371C248.338 13.3851 249.219 12.563 250.346 11.9706C251.473 11.3782 252.746 11.0815 254.165 11.0815C255.584 11.0815 256.852 11.3782 257.971 11.9706C259.09 12.563 259.967 13.3851 260.601 14.4371C261.235 15.489 261.552 16.6822 261.552 18.0182C261.552 19.3542 261.235 20.5474 260.601 21.5993C259.967 22.6504 259.09 23.4734 257.971 24.0658C256.852 24.6582 255.584 24.9548 254.165 24.9548C252.746 24.9548 251.473 24.6582 250.346 24.0658ZM256.632 20.7354C257.274 20.0586 257.596 19.1537 257.596 18.0182C257.596 16.8827 257.274 15.977 256.632 15.301C255.988 14.6251 255.166 14.2867 254.165 14.2867C253.164 14.2867 252.337 14.6251 251.685 15.301C251.035 15.977 250.71 16.8827 250.71 18.0182C250.71 19.1537 251.035 20.0586 251.685 20.7354C252.337 21.4113 253.164 21.7489 254.165 21.7489C255.166 21.7489 255.988 21.4113 256.632 20.7354Z" fill="#1D1D1B"/>
<path d="M274.649 11.933C275.717 12.5003 276.544 13.3099 277.128 14.3619C277.712 15.4138 278.005 16.6404 278.005 18.0433C278.005 19.4119 277.729 20.6184 277.179 21.662C276.627 22.7056 275.851 23.5144 274.849 24.0909C273.847 24.6666 272.696 24.9548 271.393 24.9548C269.674 24.9548 268.33 24.4126 267.362 23.3272V29.6121H263.455V18.0683C263.455 16.6822 263.764 15.4639 264.381 14.412C264.999 13.3601 265.868 12.5421 266.986 11.958C268.105 11.374 269.406 11.0815 270.893 11.0815C272.328 11.0815 273.581 11.3656 274.649 11.933ZM273.196 20.7228C273.831 20.0385 274.148 19.1445 274.148 18.0433C274.148 16.9245 273.831 16.0187 273.196 15.3261C272.562 14.6334 271.736 14.2867 270.717 14.2867C269.699 14.2867 268.877 14.6292 268.251 15.3136C267.625 15.9979 267.312 16.8994 267.312 18.0182C267.312 19.137 267.62 20.0385 268.238 20.7228C268.856 21.4071 269.682 21.7489 270.717 21.7489C271.736 21.7489 272.562 21.4071 273.196 20.7228Z" fill="#1D1D1B"/>
<path d="M301.757 12.5713C302.75 13.5648 303.247 15.0545 303.247 17.0415V24.7543H299.34V17.6422C299.34 16.5744 299.119 15.7764 298.677 15.2509C298.234 14.7253 297.604 14.4621 296.786 14.4621C295.868 14.4621 295.142 14.7588 294.608 15.3512C294.073 15.9436 293.807 16.8242 293.807 17.9931V24.7543H289.9V17.6422C289.9 15.5224 289.048 14.4621 287.345 14.4621C286.444 14.4621 285.726 14.7588 285.191 15.3512C284.658 15.9435 284.39 16.8242 284.39 17.9931V24.7543H280.484V11.2821H284.216V12.8345C284.716 12.2672 285.329 11.8327 286.055 11.5319C286.782 11.2319 287.579 11.0815 288.448 11.0815C289.399 11.0815 290.258 11.2695 291.027 11.6447C291.795 12.0207 292.412 12.5671 292.88 13.2849C293.431 12.5838 294.128 12.0416 294.971 11.6572C295.814 11.2737 296.736 11.0815 297.738 11.0815C299.424 11.0815 300.763 11.5779 301.757 12.5713Z" fill="#1D1D1B"/>
<path d="M320 11.2821V24.7543H316.269V23.2019C315.3 24.3708 313.898 24.9548 312.062 24.9548C310.793 24.9548 309.645 24.6708 308.618 24.1034C307.591 23.5361 306.786 22.7256 306.202 21.6745C305.617 20.6226 305.325 19.4035 305.325 18.0182C305.325 16.6329 305.617 15.4138 306.202 14.3619C306.786 13.3099 307.591 12.5003 308.618 11.933C309.645 11.3656 310.793 11.0815 312.062 11.0815C313.781 11.0815 315.125 11.6238 316.094 12.7092V11.2821L320 11.2821ZM315.192 20.7354C315.843 20.0586 316.169 19.1537 316.169 18.0182C316.169 16.8827 315.843 15.977 315.192 15.301C314.541 14.6251 313.723 14.2867 312.738 14.2867C311.737 14.2867 310.91 14.6251 310.258 15.301C309.608 15.977 309.283 16.8827 309.283 18.0182C309.283 19.1537 309.608 20.0586 310.258 20.7354C310.91 21.4113 311.737 21.7489 312.738 21.7489C313.723 21.7489 314.541 21.4113 315.192 20.7354Z" fill="#1D1D1B"/>
<path d="M58.8912 0C59.3888 0 59.8857 0.0260476 60.3833 0.0784364C67.8218 0.859868 72.7621 7.20146 77.5391 13.3341C81.8963 18.9273 86.0119 24.2103 90.9194 24.2797C90.9422 24.28 90.965 24.28 90.9879 24.28C93.4457 24.28 96.1447 22.4101 97.882 19.4963C99.4566 16.8561 99.6404 14.3295 99.0082 13.1983C98.3251 11.9755 96.1453 11.7636 94.9067 11.7461L95.0425 2.15698C102.745 2.26557 106.079 6.19057 107.381 8.52082C109.831 12.9065 109.348 18.9943 106.119 24.4082C102.589 30.3277 96.6844 33.9607 90.7842 33.8688C81.2747 33.7347 75.2709 26.0275 69.9735 19.2276C66.4287 14.6772 62.7633 9.97159 59.3812 9.61629C57.5748 9.42605 55.3212 10.4498 52.6931 12.6618L46.5177 5.32456C50.762 1.75193 54.826 0 58.8912 0Z" fill="url(#paint0_linear_640_62)"/>
<path d="M94.8733 2.15576C94.9301 2.15576 95.1645 2.15944 95.2213 2.16032L94.9559 11.7468C94.9325 11.7465 94.8593 11.7457 94.8353 11.7457C89.1557 11.7457 74.7616 21.0854 66.3133 27.7513L60.3733 20.2226C64.2114 17.1941 83.832 2.15576 94.8733 2.15576Z" fill="url(#paint1_linear_640_62)"/>
<path d="M50.0385 35.7855C49.541 35.7855 49.044 35.7594 48.5465 35.7071C41.108 34.9256 36.1677 28.584 31.3907 22.4514C27.0334 16.8582 22.9179 11.5752 18.0104 11.5058C17.9876 11.5055 17.9647 11.5055 17.9419 11.5055C15.4841 11.5055 12.7851 13.3754 11.0478 16.2892C9.47319 18.9294 9.28939 21.456 9.92156 22.5872C10.6047 23.81 12.7845 24.0219 14.0231 24.0394L13.8873 33.6285C6.18474 33.5199 2.85063 29.5949 1.54883 27.2647C-0.901409 22.879 -0.417916 16.7912 2.81083 11.3773C6.34044 5.45777 12.2454 1.82484 18.1456 1.91674C27.6551 2.05079 33.6589 9.75798 38.9563 16.5579C42.5011 21.1083 46.1665 25.8139 49.5486 26.1692C51.355 26.3594 53.6085 25.3357 56.2367 23.1237L62.4121 30.4609C58.1678 34.0336 54.1037 35.7855 50.0385 35.7855Z" fill="url(#paint2_linear_640_62)"/>
<path d="M14.0565 33.6297C13.9997 33.6297 13.7653 33.626 13.7085 33.6252L13.9739 24.0387C13.9973 24.039 14.0705 24.0398 14.0945 24.0398C19.7741 24.0398 34.1682 14.7001 42.6165 8.03418L48.5565 15.5628C44.7184 18.5914 25.0978 33.6297 14.0565 33.6297Z" fill="url(#paint3_linear_640_62)"/>
</g>
<defs>
<linearGradient id="paint0_linear_640_62" x1="92.3271" y1="16.9352" x2="72.131" y2="16.9352" gradientUnits="userSpaceOnUse">
<stop stop-color="#08B0A0"/>
<stop offset="1" stop-color="#443E91"/>
</linearGradient>
<linearGradient id="paint1_linear_640_62" x1="95.2213" y1="14.9535" x2="60.3733" y2="14.9535" gradientUnits="userSpaceOnUse">
<stop stop-color="#08B0A0"/>
<stop offset="1" stop-color="#554596"/>
</linearGradient>
<linearGradient id="paint2_linear_640_62" x1="16.6027" y1="18.8503" x2="36.7988" y2="18.8503" gradientUnits="userSpaceOnUse">
<stop stop-color="#08B0A0"/>
<stop offset="1" stop-color="#443E91"/>
</linearGradient>
<linearGradient id="paint3_linear_640_62" x1="13.7085" y1="20.8319" x2="48.5565" y2="20.8319" gradientUnits="userSpaceOnUse">
<stop stop-color="#08B0A0"/>
<stop offset="1" stop-color="#554596"/>
</linearGradient>
<clipPath id="clip0_640_62">
<rect width="320" height="35.7855" fill="white"/>
</clipPath>
</defs>
</svg>
