<svg width="217" height="96" viewBox="0 0 217 96" fill="none" xmlns="http://www.w3.org/2000/svg">
<g clip-path="url(#clip0_278_152)">
<path d="M87.1096 61.5907C86.468 61.8856 85.7673 62.0298 85.0612 62.0123C83.8222 62.0123 82.7979 61.5625 81.9884 60.663C81.179 59.7634 80.7742 58.6669 80.774 57.3733C80.774 56.066 81.1788 54.966 81.9884 54.0733C82.7978 53.1807 83.822 52.7342 85.0612 52.7338C85.8493 52.7338 86.5215 52.864 87.078 53.1244C87.7316 53.4523 88.3329 53.8751 88.8623 54.3789L90.8049 52.1433C90.0793 51.4151 89.2371 50.8129 88.313 50.3615C87.4404 49.9473 86.3634 49.74 85.082 49.7394C82.8438 49.7394 80.9996 50.4775 79.5494 51.9538C78.0993 53.43 77.3743 55.2365 77.3745 57.3733C77.3745 59.5245 78.096 61.3345 79.539 62.8032C80.9818 64.2726 82.7872 65.0073 84.9554 65.0073C86.321 65.0073 87.472 64.8033 88.4085 64.3955C89.3989 63.9484 90.2866 63.3024 91.016 62.4976L88.9468 60.2833C88.3993 60.8034 87.7807 61.2436 87.1096 61.5907Z" fill="#F1F1EE"/>
<path d="M101.364 49.7394C99.1111 49.7394 97.2353 50.4809 95.7363 51.9641C94.2366 53.4478 93.4869 55.2509 93.4872 57.3733C93.4872 59.5101 94.2298 61.3166 95.7149 62.7929C97.2002 64.2691 99.0691 65.0073 101.322 65.0073C103.574 65.0073 105.45 64.2655 106.949 62.782C108.449 61.2994 109.198 59.4965 109.198 57.3733C109.198 55.2365 108.456 53.43 106.97 51.9538C105.485 50.4775 103.616 49.7394 101.364 49.7394ZM104.553 60.6733C103.722 61.5665 102.659 62.0129 101.364 62.0123C100.068 62.0123 98.9983 61.5625 98.1539 60.663C97.3096 59.7635 96.8871 58.6669 96.8867 57.3733C96.8867 56.066 97.302 54.966 98.1327 54.0733C98.9633 53.1807 100.026 52.7342 101.322 52.7338C102.617 52.7338 103.686 53.1838 104.531 54.0837C105.376 54.9832 105.798 56.0797 105.799 57.3733C105.799 58.6807 105.383 59.7807 104.553 60.6733Z" fill="#F1F1EE"/>
<path d="M119.64 61.6854C119.169 62.0019 118.574 62.1601 117.856 62.1599C115.998 62.1599 114.428 61.5344 113.147 60.2833L111.415 62.5396C112.204 63.3415 113.149 63.9732 114.192 64.3955C115.213 64.8028 116.476 65.0067 117.983 65.0073C119.686 65.0073 121.048 64.5925 122.069 63.7631C123.09 62.9336 123.6 61.8721 123.6 60.5785C123.6 58.8496 122.678 57.6898 120.834 57.0993C122.425 56.4106 123.22 55.2788 123.22 53.704C123.22 52.5517 122.724 51.6028 121.731 50.8572C120.739 50.1122 119.454 49.7396 117.877 49.7394C115.456 49.7394 113.471 50.5478 111.922 52.1645L113.633 54.2313C114.689 53.1491 116.019 52.6078 117.624 52.6074C118.342 52.6074 118.919 52.7551 119.356 53.0503C119.56 53.1767 119.728 53.3541 119.842 53.5649C119.957 53.7756 120.015 54.0126 120.01 54.2525C120.01 55.391 119.13 55.9603 117.371 55.9603H115.702V58.6594H117.413C118.313 58.6594 119.028 58.8002 119.556 59.0816C119.802 59.1983 120.008 59.3844 120.149 59.6167C120.289 59.8491 120.359 60.1176 120.348 60.389C120.354 60.648 120.291 60.9039 120.167 61.1314C120.043 61.3588 119.861 61.5499 119.64 61.6854Z" fill="#F1F1EE"/>
<path d="M139.522 60.7049C139.522 59.7491 139.29 58.9865 138.826 58.417C138.361 57.8478 137.671 57.3875 136.756 57.0362C138.051 56.305 138.698 55.2434 138.699 53.8516C138.699 52.8258 138.361 51.9753 137.685 51.3001C136.812 50.4287 135.524 49.9929 133.821 49.9927H126.958V64.754H133.99C135.707 64.754 137.058 64.4095 138.044 63.7206C139.029 63.0319 139.522 62.0266 139.522 60.7049ZM130.125 52.8395H133.335C134.025 52.8395 134.553 52.9695 134.919 53.2296C135.098 53.3561 135.243 53.5258 135.339 53.7231C135.435 53.9203 135.479 54.1386 135.468 54.3577C135.468 55.4261 134.687 55.9603 133.124 55.9603H130.125V52.8395ZM133.99 61.9072H130.125V58.6595H133.884C135.489 58.6595 136.291 59.1937 136.291 60.2621C136.291 61.3586 135.524 61.907 133.99 61.9072Z" fill="#F1F1EE"/>
<path d="M153.988 61.8653H145.963V58.7651H152.932V55.8758H145.963V52.8815H153.882V49.9928H142.732V64.754H153.988V61.8653Z" fill="#F1F1EE"/>
<path d="M168.39 60.5785C168.39 58.8496 167.468 57.6898 165.623 57.0993C167.214 56.4106 168.009 55.2788 168.009 53.704C168.009 52.5517 167.513 51.6028 166.521 50.8572C165.528 50.1122 164.243 49.7396 162.667 49.7394C160.245 49.7394 158.26 50.5478 156.711 52.1645L158.422 54.2313C159.478 53.1491 160.809 52.6078 162.413 52.6074C163.131 52.6074 163.709 52.7551 164.145 53.0503C164.349 53.1768 164.517 53.3541 164.632 53.5649C164.747 53.7757 164.804 54.0126 164.8 54.2525C164.8 55.391 163.92 55.9603 162.16 55.9603H160.492V58.6594H162.202C163.103 58.6594 163.817 58.8002 164.346 59.0816C164.591 59.1983 164.797 59.3844 164.938 59.6168C165.079 59.8492 165.148 60.1176 165.137 60.389C165.143 60.648 165.081 60.9039 164.957 61.1314C164.832 61.3588 164.651 61.5499 164.43 61.6854C163.958 62.0019 163.363 62.1601 162.645 62.1599C160.787 62.1599 159.218 61.5343 157.937 60.2833L156.205 62.5396C156.993 63.3415 157.939 63.9732 158.982 64.3955C160.002 64.8028 161.266 65.0067 162.773 65.0073C164.476 65.0073 165.838 64.5925 166.858 63.7631C167.879 62.9336 168.389 61.8721 168.39 60.5785Z" fill="#F1F1EE"/>
<path d="M183.953 49.9927H173.204V51.7217C173.204 54.14 173.078 56.0941 172.824 57.5841C172.58 59.0417 172.162 60.4648 171.578 61.8227H170.184V67.8328H173.12L173.331 64.754H182.58V67.8328H185.305L185.727 61.8227H183.953V49.9927ZM180.701 61.8227H174.999C175.886 59.6716 176.329 57.2043 176.329 54.4209V52.924H180.701V61.8227Z" fill="#F1F1EE"/>
<path d="M201.27 64.754V49.9928H198.25L191.746 59.6716V49.9928H188.536V64.754H191.598L198.06 55.0745V64.754H201.27Z" fill="#F1F1EE"/>
<path d="M216.601 61.8653H208.576V58.7651H215.545V55.8758H208.576V52.8815H216.495V49.9928H205.345V64.754H216.601V61.8653Z" fill="#F1F1EE"/>
<path d="M82.6644 73.651H81.19V77.5828H79.4155V73.651H77.9412V78.8419H81.9562V80.062H83.1977L83.3725 77.5828H82.6644V73.651Z" fill="#F1F1EE"/>
<path d="M86.9802 73.5546C85.4673 73.5546 84.41 74.7746 84.41 76.2566C84.41 77.8638 85.5639 78.958 87.1257 78.958C88.0663 78.958 88.7645 78.5904 89.2495 77.9896L88.4055 77.244C87.9984 77.6219 87.6394 77.7765 87.1447 77.7765C86.4855 77.7765 86.0201 77.4284 85.8746 76.7598H89.4916C89.5014 76.6242 89.5112 76.4886 89.5112 76.3726C89.5112 74.9004 88.7162 73.5546 86.9802 73.5546ZM85.855 75.8401C85.9712 75.1715 86.3693 74.7361 86.9802 74.7361C87.6009 74.7361 87.9886 75.1813 88.0759 75.8401H85.855Z" fill="#F1F1EE"/>
<path d="M94.3794 75.6459H92.5656V73.651H91.0913V78.8419H92.5656V76.8568H94.3794V78.8419H95.853V73.651H94.3794V75.6459Z" fill="#F1F1EE"/>
<path d="M97.1433 74.9101H98.6856V78.8419H100.179V74.9101H101.721V73.651H97.1433V74.9101Z" fill="#F1F1EE"/>
<path d="M106.105 73.5546C105.339 73.5546 104.844 73.913 104.485 74.3972V73.651H103.011V80.3918H104.485V78.1642C104.676 78.4107 104.921 78.6092 105.203 78.7438C105.484 78.8784 105.793 78.9453 106.105 78.9391C107.336 78.9391 108.471 77.9896 108.471 76.2566C108.471 74.5035 107.317 73.5546 106.105 73.5546ZM105.726 77.6897C105.038 77.6897 104.465 77.1182 104.465 76.2566C104.465 75.3749 105.038 74.8039 105.726 74.8039C106.415 74.8039 106.997 75.3749 106.997 76.2371C106.997 77.128 106.415 77.6897 105.726 77.6897Z" fill="#F1F1EE"/>
<path d="M113.436 78.8419H114.91V74.9101H116.684V78.8419H118.159V73.651H113.436V78.8419Z" fill="#F1F1EE"/>
<path d="M123.056 73.5546C122.29 73.5546 121.795 73.913 121.436 74.3972V73.651H119.962V80.3918H121.436V78.1642C121.627 78.4107 121.873 78.6092 122.154 78.7438C122.435 78.8784 122.744 78.9453 123.056 78.9391C124.288 78.9391 125.422 77.9896 125.422 76.2566C125.422 74.5035 124.268 73.5546 123.056 73.5546ZM122.678 77.6897C121.989 77.6897 121.417 77.1182 121.417 76.2566C121.417 75.3749 121.989 74.8039 122.678 74.8039C123.366 74.8039 123.948 75.3749 123.948 76.2371C123.948 77.128 123.366 77.6897 122.678 77.6897Z" fill="#F1F1EE"/>
<path d="M129.534 75.3651H128.467V73.651H126.993V78.842H129.611C130.862 78.842 131.61 78.1739 131.61 77.0797C131.61 75.9171 130.737 75.3651 129.534 75.3651ZM129.398 77.6799H128.467V76.4788H129.389C129.874 76.4788 130.126 76.7017 130.126 77.0601C130.126 77.4571 129.883 77.6799 129.398 77.6799Z" fill="#F1F1EE"/>
<path d="M133.772 73.651H132.298V78.842H133.772V73.651Z" fill="#F1F1EE"/>
<path d="M143.509 73.651H141.802L139.979 75.859V73.651H138.495V75.859L136.672 73.651H134.975L136.885 75.801L134.917 78.8419H136.565L137.875 76.7695L138.495 77.4962V78.8419H139.979V77.4962L140.6 76.7695L141.919 78.8419H143.558L141.599 75.801L143.509 73.651Z" fill="#F1F1EE"/>
<path d="M149.735 73.651H148.038L146.176 75.7814V73.651H144.702V78.8419H146.176V77.5927L146.845 76.8666L148.232 78.8419H149.978L147.825 75.7814L149.735 73.651Z" fill="#F1F1EE"/>
<path d="M153.391 73.5546C151.772 73.5546 150.569 74.7648 150.569 76.2566C150.569 77.7673 151.762 78.958 153.372 78.958C154.991 78.958 156.194 77.7478 156.194 76.2566C156.194 74.7453 155.001 73.5546 153.391 73.5546ZM153.391 77.6897C152.577 77.6897 152.024 77.0211 152.024 76.2566C152.024 75.4719 152.528 74.8228 153.372 74.8228C154.187 74.8228 154.739 75.4915 154.739 76.2566C154.739 77.0406 154.235 77.6897 153.391 77.6897Z" fill="#F1F1EE"/>
<path d="M161.508 76.121C161.954 75.9268 162.333 75.5782 162.333 74.9492C162.333 74.1353 161.644 73.651 160.597 73.651H157.745V78.842H160.587C161.79 78.842 162.526 78.3095 162.526 77.4284C162.526 76.7017 162.139 76.3145 161.508 76.121ZM159.2 74.7361H160.257C160.684 74.7361 160.858 74.9584 160.858 75.2105C160.858 75.5104 160.655 75.7332 160.238 75.7332H159.2V74.7361ZM160.364 77.6897H159.2V76.6632H160.325C160.829 76.6632 161.033 76.8855 161.033 77.1664C161.033 77.4766 160.82 77.6897 160.364 77.6897Z" fill="#F1F1EE"/>
<path d="M169.965 77.6897C169.161 77.6897 168.646 77.0504 168.646 76.2565C168.646 75.4719 169.17 74.8228 169.907 74.8228C170.489 74.8228 170.799 75.0359 171.119 75.3363L171.983 74.465C171.498 73.9221 170.896 73.5545 169.917 73.5545C169.561 73.5519 169.208 73.6195 168.878 73.7535C168.548 73.8875 168.248 74.0853 167.995 74.3354C167.741 74.5854 167.54 74.883 167.402 75.2109C167.265 75.5389 167.193 75.8908 167.192 76.2464C167.19 76.602 167.259 76.9544 167.395 77.2834C167.53 77.6123 167.729 77.9113 167.981 78.1632C168.232 78.4151 168.531 78.615 168.86 78.7514C169.189 78.8878 169.541 78.958 169.897 78.958C170.935 78.958 171.517 78.5611 172.021 78.0091L171.158 77.1377C170.799 77.4766 170.46 77.6897 169.965 77.6897Z" fill="#F1F1EE"/>
<path d="M183.115 77.5828H181.467V73.651H179.992V77.5828H178.334V73.651H176.86V78.8419H184.599V73.651H183.115V77.5828Z" fill="#F1F1EE"/>
<path d="M188.721 73.5546C187.208 73.5546 186.151 74.7746 186.151 76.2566C186.151 77.8638 187.305 78.958 188.867 78.958C189.807 78.958 190.505 78.5904 190.99 77.9896L190.146 77.244C189.739 77.6219 189.38 77.7765 188.885 77.7765C188.226 77.7765 187.761 77.4284 187.615 76.7598H191.232C191.242 76.6242 191.252 76.4886 191.252 76.3726C191.252 74.9004 190.457 73.5546 188.721 73.5546ZM187.596 75.8401C187.712 75.1715 188.11 74.7361 188.721 74.7361C189.342 74.7361 189.729 75.1813 189.817 75.8401H187.596Z" fill="#F1F1EE"/>
<path d="M195.354 77.6897C194.549 77.6897 194.035 77.0504 194.035 76.2565C194.035 75.4719 194.559 74.8228 195.296 74.8228C195.878 74.8228 196.188 75.0359 196.508 75.3363L197.371 74.465C196.886 73.9221 196.285 73.5545 195.306 73.5545C194.95 73.5519 194.596 73.6196 194.267 73.7536C193.937 73.8876 193.636 74.0853 193.383 74.3354C193.13 74.5855 192.929 74.8831 192.791 75.211C192.653 75.539 192.582 75.8908 192.58 76.2465C192.579 76.6021 192.648 76.9545 192.784 77.2835C192.919 77.6124 193.118 77.9114 193.369 78.1633C193.621 78.4152 193.92 78.6151 194.248 78.7515C194.577 78.8879 194.93 78.958 195.286 78.958C196.324 78.958 196.905 78.5611 197.41 78.0091L196.547 77.1377C196.188 77.4766 195.849 77.6897 195.354 77.6897Z" fill="#F1F1EE"/>
<path d="M198.341 74.9101H199.883V78.8419H201.377V74.9101H202.919V73.651H198.341V74.9101Z" fill="#F1F1EE"/>
<path d="M206.585 73.5546C204.966 73.5546 203.763 74.7648 203.763 76.2566C203.763 77.7673 204.956 78.958 206.565 78.958C208.185 78.958 209.388 77.7478 209.388 76.2566C209.388 74.7453 208.195 73.5546 206.585 73.5546ZM206.585 77.6897C205.77 77.6897 205.217 77.0211 205.217 76.2566C205.217 75.4719 205.722 74.8228 206.565 74.8228C207.38 74.8228 207.933 75.4915 207.933 76.2566C207.933 77.0406 207.429 77.6897 206.585 77.6897Z" fill="#F1F1EE"/>
<path d="M215.264 73.651L213.838 75.8303L212.433 73.651H210.939V78.8419H212.393V75.7527L213.819 77.854L215.264 75.7234V78.8419H216.758V73.651H215.264Z" fill="#F1F1EE"/>
<path d="M10.5417 22.4431C10.5761 22.4185 10.61 22.3926 10.6435 22.3654C10.7126 22.3159 10.7677 22.2496 10.8038 22.1728C11.0556 21.5287 9.74484 21.2939 9.34967 21.2423C8.42078 21.1212 7.53745 21.1945 6.89182 20.3486C6.55176 19.9029 6.57561 19.3426 6.5087 18.8151C6.42482 18.1218 6.24531 17.4434 5.97526 16.7993C5.66914 16.0633 4.99742 16.571 4.78689 17.0902C4.33356 18.2082 4.83539 19.7596 3.91892 20.6718C3.25077 21.3369 2.1126 21.1335 1.2742 21.2058C0.374353 21.2833 -0.4377 21.8144 0.525663 22.4998C1.43856 23.1494 2.31957 22.8761 3.28686 23.2003C3.62683 23.302 3.92506 23.5101 4.1375 23.794C4.52472 24.3556 4.51847 25.3703 4.56116 26.0328C4.56713 26.407 4.61802 26.7791 4.71275 27.1412C4.82503 27.4979 5.05013 27.8372 5.38884 27.9966C6.35551 28.4514 6.55372 27.2551 6.61786 26.5681C6.71067 25.5732 6.38374 24.3565 7.21803 23.5662C8.10841 22.7228 9.55511 23.1475 10.5417 22.4431Z" fill="#F1F1EE"/>
<path d="M19.3306 5.12713C19.5538 5.14555 19.7856 5.13373 19.9929 5.21865C20.4527 5.40694 20.6041 5.97054 20.6943 6.45864C20.7743 6.8916 20.9106 7.39744 21.3248 7.54837C21.7786 7.71352 22.2701 7.29959 22.3943 6.83344C22.4856 6.49061 22.4433 6.12784 22.4789 5.77489C22.5711 4.86048 23.145 4.91056 23.8848 4.78782C24.1215 4.74862 24.3689 4.61955 24.4543 4.40195C24.4618 4.38292 24.468 4.36338 24.4728 4.34348C24.5396 4.06657 24.3191 3.78805 24.0559 3.67816C23.7928 3.56826 23.4974 3.58031 23.2122 3.57241C22.9271 3.56447 22.6231 3.52688 22.4055 3.34277C21.9174 2.93005 22.0368 0.661438 21.2477 0.736052C21.1871 0.745569 21.1291 0.767184 21.0771 0.799606C21.025 0.832027 20.9801 0.87459 20.9449 0.924751C20.4193 1.60118 20.8951 2.70291 20.1951 3.37279C19.7037 3.84313 18.6231 3.39821 18.3491 4.11157C18.3088 4.24274 18.3084 4.38295 18.3481 4.51432C18.3878 4.6457 18.4657 4.76232 18.572 4.84933C18.789 5.0199 19.0546 5.11718 19.3306 5.12713Z" fill="#F1F1EE"/>
<path d="M12.5468 52.8616C12.6367 53.1091 12.7566 53.3622 12.9748 53.5101C13.1929 53.6579 13.5339 53.6528 13.6833 53.4359C13.7286 53.3615 13.7609 53.2799 13.7786 53.1947C14.0452 52.188 14.0755 50.8976 15.2669 50.4897C15.7913 50.31 16.5269 50.4027 16.7468 49.8944C16.9173 49.5003 16.5779 49.0526 16.183 48.8824C15.7881 48.7122 15.3404 48.7108 14.9334 48.5723C14.8083 48.5384 14.6914 48.4797 14.5895 48.3998C14.4876 48.3198 14.4028 48.2202 14.3403 48.1069C14.2718 47.9119 14.2482 47.7041 14.2713 47.4988C14.281 47.1168 14.2601 46.7181 14.0764 46.3829C13.8928 46.0477 13.504 45.7971 13.1317 45.8853C12.7985 45.9642 12.5729 46.2827 12.468 46.6084C12.3634 46.934 12.3485 47.2817 12.2618 47.6125C11.9785 48.6923 11.3179 48.9613 10.3312 49.1249C10.042 49.1729 9.73963 49.3306 9.63503 49.5966C9.62596 49.6199 9.61844 49.6438 9.61252 49.6681C9.53088 50.0065 9.80046 50.3469 10.1223 50.4813C10.6597 50.7056 11.3601 50.5251 11.8508 50.8687C12.4383 51.2799 12.321 52.2409 12.5468 52.8616Z" fill="#F1F1EE"/>
<path d="M60.5967 11.4394C61.195 11.8442 60.9328 13.0152 61.8618 13.0869C62.3567 13.1251 62.7077 12.6136 62.8697 12.1452C63.0317 11.6767 63.1539 11.1346 63.5758 10.8734C63.8692 10.6917 64.2363 10.6964 64.5742 10.6253C64.912 10.554 65.2784 10.3381 65.3004 9.99389C65.3216 9.65832 65.0071 9.40299 64.7072 9.25015C64.1778 8.98042 63.3378 8.81852 62.9892 8.29966C62.7278 7.91062 62.9226 7.20404 62.3158 7.05236C62.1412 7.02256 61.9617 7.05455 61.8082 7.14281C61.0473 7.51445 61.219 8.22228 60.8678 8.83052C60.5851 9.32013 60.0222 9.57051 59.5101 9.64726C59.2424 9.68745 58.9578 9.76251 58.786 9.97159C58.7221 10.0453 58.6726 10.1302 58.6398 10.222C58.392 10.9834 60.2642 11.2146 60.5967 11.4394Z" fill="#F1F1EE"/>
<path d="M27.7254 32.5497C27.981 32.7025 28.2842 32.7479 28.5763 32.8063C29.3227 32.9557 30.1898 33.2813 30.5376 34.0195C30.8855 34.7577 30.6588 35.6579 31.2324 36.3218C31.3475 36.4653 31.5053 36.5685 31.683 36.6164C32.1951 36.7317 32.6152 36.2052 32.8149 35.7204C33.0379 35.178 33.1699 34.6026 33.2056 34.0174C33.221 33.7614 33.2208 33.4932 33.3417 33.267C33.6258 32.7353 34.3639 32.7243 34.9667 32.6949C35.5696 32.6655 36.3309 32.3463 36.2671 31.7471C36.2448 31.6201 36.1943 31.4998 36.1193 31.3949C36.0443 31.29 35.9467 31.2032 35.8337 31.141C34.978 30.6106 33.642 31.0415 33.0168 30.2529C32.5089 29.6121 32.8704 28.6072 32.4594 27.9006C32.3265 27.6722 32.08 27.479 31.8185 27.518C31.6826 27.5458 31.5578 27.6128 31.4597 27.7106C30.5769 28.5065 30.8815 29.994 29.9183 30.7003C29.5118 30.9983 29.0048 31.1268 28.5043 31.1883C28.2674 31.2029 28.0334 31.2472 27.8076 31.3202C27.6999 31.3569 27.6019 31.4175 27.5211 31.4976C27.4403 31.5777 27.3788 31.675 27.3413 31.7823C27.3386 31.7918 27.3363 31.8015 27.3341 31.8112C27.2712 32.102 27.4698 32.397 27.7254 32.5497Z" fill="#F1F1EE"/>
<path d="M66.6348 25.3095C66.5243 25.2982 66.4127 25.3089 66.3063 25.3411C66.2 25.3733 66.1011 25.4262 66.0155 25.4968C65.9298 25.5675 65.859 25.6544 65.8073 25.7526C65.7556 25.8508 65.7239 25.9582 65.7141 26.0687C65.5233 28.0611 65.299 29.9976 65.057 31.901C65.0311 31.9113 65.0058 31.9231 64.9813 31.9363C64.6454 32.1553 64.4685 32.5447 64.3194 32.9168C64.3194 32.9168 62.0702 29.8977 60.6862 29.2599C60.0205 28.9532 59.5378 29.0719 59.0733 29.5966C58.4306 30.3238 57.9604 31.1865 57.6978 32.1203C57.7058 32.0905 56.8815 26.8897 50.0513 10.971C49.0047 8.53135 47.6942 6.05258 47.0812 3.42499C46.8817 2.57065 46.7335 1.56548 46.2608 0.809749C46.1708 0.665694 46.047 0.518607 45.8778 0.501704C45.5979 0.473607 45.4281 0.798466 45.3538 1.06958C45.0961 2.01075 45.1224 2.94617 45.0275 3.90014C44.9103 5.07796 44.9876 5.75511 45.8081 6.61261C47.1434 8.00811 48.6614 13.8821 49.0049 14.9917C49.5424 16.7277 51.271 21.8774 51.4106 23.3628C50.8854 22.4723 48.1919 16.6589 47.058 14.2163C46.5465 13.1145 44.6342 8.29747 44.0388 7.02007C43.7315 6.36054 43.6176 5.64588 43.4297 4.93391C43.2408 4.21733 43.1804 3.45781 42.9117 2.76448C42.8161 2.5178 42.6192 2.23616 42.3599 2.29075C42.2538 2.32223 42.1604 2.3862 42.0928 2.4736C41.8867 2.71146 41.7311 2.98858 41.6354 3.28821C41.5396 3.58785 41.5057 3.90376 41.5358 4.21684C41.6086 4.72973 41.7267 5.24503 41.6726 5.76028C41.6726 6.3072 41.2662 6.92735 41.5404 7.46534C41.7321 7.84118 42.2464 8.22696 42.5207 8.5631C43.1229 9.30149 43.3942 10.2821 43.6313 11.2005C44.272 13.6836 44.9105 16.216 45.8124 18.6154C47.5309 23.1872 49.227 27.7273 50.5695 32.4118C50.8529 33.4009 52.4039 37.3492 52.5495 38.4334C52.6895 39.4775 52.0978 40.3378 51.961 41.3242C51.8608 42.0461 51.9912 42.9135 52.3656 43.5538C52.776 44.2555 53.936 44.6377 54.7317 44.331C55.0672 45.1019 55.522 46.1223 55.919 46.9652C56.2972 47.7684 56.7509 48.0359 57.6356 48.1793C58.1692 48.2659 58.7027 48.3524 59.2359 48.4389C59.8546 48.5391 60.4672 48.5965 61.0908 48.6378C61.4359 48.6745 61.7827 48.6913 62.1297 48.6881C61.4936 51.5244 60.7856 54.3432 60.0055 57.1447C59.306 59.6529 58.5462 62.1432 57.7261 64.6156C57.0047 66.7862 56.2342 68.9397 55.4145 71.076C54.7129 72.8999 53.9726 74.7083 53.1935 76.5013C52.5539 77.9695 51.8851 79.4247 51.1869 80.8667C50.6508 81.9705 50.0942 83.0642 49.5173 84.1477C49.3156 84.525 49.0342 84.9808 48.8686 85.3689C48.7198 85.7177 48.4691 85.7006 48.1125 85.5672C46.4986 84.9632 44.6652 84.5553 43.4455 83.3066C43.0744 82.9277 42.6843 82.5678 42.2767 82.2284C41.521 81.5974 40.7017 80.9988 39.8007 80.5907C41.3307 79.877 42.9378 79.0124 44.0254 77.6999C45.3571 76.093 45.4176 69.9008 45.1469 68.9751C45.0977 68.8062 45.0471 68.356 44.8131 68.3377C44.5959 68.3206 44.4328 68.7254 44.3657 68.8709C41.8623 74.3001 35.3243 78.7768 29.0766 77.1965C26.5123 76.5479 24.117 75.438 21.6448 74.5373C20.9351 74.2787 20.2256 74.0199 19.5162 73.7607C17.5828 73.055 15.6519 72.3414 13.7098 71.6597C13.1958 71.4792 12.6813 71.2962 12.1595 71.1394C12.0198 71.0975 11.6496 70.9369 11.5697 71.1182C11.4783 71.3257 12.1392 71.723 12.5817 71.9245C12.9251 72.0808 14.6925 72.9322 15.4623 73.3053C17.9491 74.5109 24.0762 77.2734 26.5682 78.4489C26.6214 78.4742 26.6845 78.5169 26.6716 78.5743C26.2515 79.0398 11.849 73.8478 10.8221 73.6213C10.6903 73.5815 10.5498 73.5807 10.4176 73.619C9.86382 73.8565 11.124 74.5057 11.2957 74.5958C11.9308 74.9292 12.5907 75.2183 13.2523 75.4979C14.8033 76.1538 19.8054 78.2399 21.3961 78.7986C23.647 79.5911 25.7326 80.7903 27.5488 82.3364C29.0034 83.5654 29.9545 84.8175 29.2369 86.6459C28.0441 89.6854 25.926 91.9535 23.6384 94.2454C23.2936 94.5909 22.9314 95.1291 23.238 95.5C26.3669 94.8074 29.3804 93.6707 32.1863 92.1244C32.8206 91.7691 33.4487 91.3602 33.8701 90.7744C34.5065 89.8899 34.9336 88.5909 35.2502 87.5694C35.5215 86.6936 35.5755 85.4019 36.4178 84.8297C36.6631 84.6633 37.1824 84.725 37.4588 84.7171C38.1516 84.6975 38.8458 84.7089 39.5386 84.7226C40.3359 84.7383 41.1329 84.7635 41.9298 84.7928C42.9885 84.8317 44.0819 84.9476 45.0613 85.3492C45.6017 85.5708 47.5284 86.4281 47.9514 86.6302C48.3169 86.8048 48.8322 87.1256 49.2434 87.1462C49.9192 87.18 50.2999 86.2706 50.5611 85.7894C50.7378 85.4708 50.9121 85.151 51.084 84.83C51.5035 84.0474 51.911 83.2587 52.3066 82.4637C53.3733 80.3258 54.3647 78.1507 55.2971 75.9512C55.8166 74.7252 56.3178 73.4918 56.8009 72.2508C60.5438 62.6461 65.4204 46.8651 67.3952 26.2291C67.4058 26.1189 67.3945 26.0076 67.362 25.9017C67.3296 25.7958 67.2765 25.6974 67.2059 25.612C67.1353 25.5265 67.0485 25.4559 66.9505 25.404C66.8525 25.3521 66.7453 25.32 66.6348 25.3095ZM62.5634 46.7004C62.1901 47.0384 61.912 47.486 61.3811 47.5355C60.8707 47.5832 60.4652 47.3473 60.0052 47.186C59.4277 46.9835 58.8478 46.7849 58.2759 46.5664C57.7343 46.3595 57.62 46.1017 57.3284 45.5139C57.058 44.9679 56.8324 44.401 56.6537 43.8186C56.488 43.2808 56.1102 42.038 55.9516 40.8606C56.2193 41.2784 56.944 42.5993 57.2125 43.0178C57.2386 43.0586 57.2725 43.104 57.3208 43.1058C57.3758 43.1078 57.4115 43.0523 57.4411 43.006C57.7268 42.562 57.8543 42.0348 57.803 41.5095C57.7246 40.985 57.3348 40.5649 57.2728 40.046C57.2121 39.541 57.2736 38.973 57.2428 38.4565C57.2237 38.3192 57.2381 38.1792 57.2847 38.0486C57.3861 37.825 57.6479 37.7345 57.8553 37.6026C58.3962 37.2589 58.6045 36.5848 58.7723 35.9669C58.9955 35.1457 59.2972 34.3491 59.5941 33.5525C59.8151 32.9589 60.0052 32.3589 60.2331 31.7696C60.4086 31.3153 60.8524 31.5379 61.1214 31.7687C61.9269 32.4605 62.7689 33.1089 63.6437 33.711C63.8568 33.8758 64.0982 34.0005 64.356 34.079C64.4898 34.1193 64.6321 34.1225 64.7676 34.0883C64.147 38.5511 63.3993 42.76 62.5634 46.7004Z" fill="#F1F1EE"/>
</g>
<defs>
<clipPath id="clip0_278_152">
<rect width="216.667" height="95" fill="white" transform="translate(0.0909424 0.5)"/>
</clipPath>
</defs>
</svg>
