<svg width="73" height="100" viewBox="0 0 73 100" fill="none" xmlns="http://www.w3.org/2000/svg">
<g clip-path="url(#clip0_931_2)">
<path d="M61.8689 2.20585C53.5792 0.465658 44.9564 -0.362774 36.3336 -0.343166C27.7107 -0.362774 19.0928 0.465658 10.7983 2.20585C6.39865 16.3627 3.8608 31.3578 3.95389 46.2745C12.9442 57.1176 24.3988 66.3774 36.3336 73.8578C48.2683 66.3725 59.723 57.1176 68.7132 46.2745C68.8063 31.3578 66.2685 16.3627 61.8689 2.20585Z" fill="white"/>
<mask id="mask0_931_2" style="mask-type:luminance" maskUnits="userSpaceOnUse" x="14" y="2" width="44" height="53">
<path d="M14.8794 5.24506L15.3056 30.1421L36.1768 54.0882L56.2003 32.5637L57.7877 5.69604L57.7142 2.16663H36.554H15.4967L14.8794 5.24506Z" fill="white"/>
</mask>
<g mask="url(#mask0_931_2)">
<path d="M1.8717 19.1813L20.3226 8.94602C27.2355 5.61759 41.1986 5.80876 48.5721 7.71563C49.8753 8.05386 51.0463 8.51465 52.2466 9.12739C57.582 11.8431 63.3436 15.2107 68.5614 18.2254C69.164 18.5735 69.9185 18.9117 70.3447 19.4509H68.14C62.2559 16.4166 56.6756 12.4068 50.8601 9.30876C43.6189 5.45582 27.6618 5.76465 20.5039 9.79406C14.948 12.9264 9.62734 16.5637 3.93432 19.4411L1.8717 19.4509V19.1813Z" fill="#C6C8C8"/>
<path d="M56.4356 42.3235L49.4981 42.4411L39.4153 14.0685C38.4649 12.4852 33.7664 12.4852 32.8698 14.1421L23.4974 41.6813L23.4043 42.4558L16.4473 42.2548L16.7363 41.3382L30.0331 13.9754C31.6842 11.7009 38.3522 12.0195 40.7626 12.8578C41.3163 13.0489 41.8356 13.3676 42.1883 13.8431L56.4405 42.3235H56.4356Z" fill="#C6C8C8"/>
<path d="M45.025 11.4705C51.5019 19.0735 58.4639 26.2695 65.0682 33.7597C65.1759 33.8774 66.0333 34.8872 65.9353 34.9656C64.2402 35.1029 62.447 35.2401 60.7763 34.9754L42.8056 11.6176C41.0124 9.87738 34.5894 10.1225 32.2084 10.5244C31.3069 10.6764 30.3907 10.897 29.6264 11.4215L13.3851 32.7646C13.2577 32.9264 13.1059 32.9411 12.9148 32.9656C11.5332 33.147 9.9556 32.745 8.55929 32.8235C8.5201 32.6274 8.5593 32.5784 8.65238 32.4313C8.81406 32.1813 9.32849 31.6274 9.55876 31.348C12.9442 27.348 16.6383 23.5048 20.1266 19.5784C22.1843 17.2646 24.1686 14.7352 26.2753 12.4852C28.4506 10.1617 30.4789 9.97542 33.6292 9.80875C36.314 9.6666 43.0212 9.65189 45.0201 11.4656L45.025 11.4705Z" fill="#C6C8C8"/>
<path d="M7.62357 25.201C7.52559 25.1176 8.24089 24.2794 8.33888 24.1764C11.2589 21.1078 14.9334 18.0441 18.0542 15.1029C20.3618 12.9313 22.4783 10.1176 25.5747 9.11272C30.9885 7.35781 42.3598 7.3137 47.6462 9.44605C49.361 10.1372 50.1498 11.3186 51.4187 12.4951C55.4459 16.2353 60.1444 20.25 63.8777 24.1764C64.103 24.4166 64.5048 24.8774 64.593 25.201H61.7171C57.6996 21.1323 53.7998 16.9215 49.797 12.848C49.0131 12.049 48.3811 11.0931 47.4649 10.4313C43.3054 7.42154 29.6314 7.53919 25.2367 10.1127C24.0755 10.7941 23.4631 11.7941 22.5567 12.7157C18.4952 16.8431 14.5659 21.098 10.4995 25.201H7.62357Z" fill="#C6C8C8"/>
</g>
<path d="M15.0411 7.25489C15.0411 7.25489 23.6199 4.76959 36.1817 4.76959C48.7436 4.76959 57.6261 7.17155 57.6261 7.17155" stroke="#C6C8C8" stroke-width="0.7" stroke-miterlimit="10"/>
<path d="M57.3615 9.87253C57.3909 9.66665 57.577 9.32841 57.6113 9.049C57.6701 8.50488 57.5966 7.89704 57.6211 7.34312C57.6211 7.24018 57.5575 7.02449 57.7044 7.0441C57.577 7.42645 57.8661 7.63724 57.9396 7.87743C59.2624 12.2647 60.2129 17.1323 61.0409 21.6666C61.4279 23.7892 61.8395 25.951 62.153 28.098C62.1922 28.3578 62.2069 29.4804 62.153 29.7059C62.1383 29.7745 62.0158 29.7745 61.9864 29.8284C59.0272 35.2941 55.2009 40.8235 51.3843 45.7745C50.2134 47.2892 48.8121 48.7549 47.7588 50.3382C47.3717 50.9265 47.1023 51.1519 47.0092 51.9461C46.8769 53.0539 46.8818 54.3039 46.725 55.4363C46.6123 56.2598 46.436 57.2647 46.2841 58.0784C46.1959 58.5392 46.0244 58.9951 45.9509 59.4608C42.9428 62.0294 39.7141 64.3725 36.3972 66.5245C36.2503 66.5392 35.6819 66.1716 35.5154 66.0637C33.1 64.549 29.4206 61.9216 27.3286 60.0245C26.873 59.6078 26.7456 59.2059 26.6182 58.5931C26.2605 56.8823 26.1871 54.7206 25.996 52.9559C25.9274 52.3088 25.6922 51.7206 25.7412 51.0686C25.7216 50.9608 25.413 50.6863 25.3101 50.598C24.7124 49.6372 23.8795 48.8333 23.174 47.9559C19.1173 42.9314 15.193 37.3774 11.9153 31.8088C11.6948 31.4314 10.5386 29.5196 10.4945 29.2892C10.4602 29.1029 10.4651 28.6274 10.4945 28.4412C11.6115 21.5833 12.8462 14.7549 14.7079 8.049C14.7863 7.76469 15.0852 7.5539 14.948 7.13233C15.0999 7.11273 15.0264 7.32841 15.0313 7.43135C15.046 7.799 15.0019 8.17155 15.0411 8.5343C15.5212 13.049 16.3737 17.3627 17.5789 21.6863C20.4107 31.8578 25.5256 41.5 32.4239 49.6078C33.3842 50.7353 34.8883 52.5539 35.9661 53.4804C36.4805 53.9215 36.6765 53.5 37.0538 53.1274C47.9646 42.201 56.0485 25.4166 57.3566 10.2206C57.3664 10.1078 57.3419 9.98527 57.3566 9.87743L57.3615 9.87253Z" fill="#035DBA"/>
<path d="M35.9563 46.5539C39.2141 46.5539 41.8551 43.9115 41.8551 40.652C41.8551 37.3924 39.2141 34.75 35.9563 34.75C32.6985 34.75 30.0575 37.3924 30.0575 40.652C30.0575 43.9115 32.6985 46.5539 35.9563 46.5539Z" fill="#035DBA"/>
<path d="M36.3336 60.4804C48.1752 56.3774 62.8389 32.3823 62.8389 32.3823L63.9462 44.2108C63.9462 44.2108 56.2003 52.9264 49.7136 58.0196C43.222 63.1127 36.4022 67.3088 36.4022 67.3088C36.4022 67.3088 29.7832 63.049 23.0956 58.2647C16.408 53.4755 8.72095 44.9804 8.72095 44.9804L9.46075 31.4313C9.46075 31.4313 20.6704 52.7598 36.3385 60.4853" fill="#E7032A"/>
<path d="M11.2832 92.348C10.8863 92.0637 10.4209 91.8431 9.89176 91.6813C10.1514 91.5588 10.3964 91.4117 10.6218 91.2451C11.5232 90.5784 11.9789 89.6421 11.9789 88.4411C11.9789 87.2402 11.5036 86.2843 10.5483 85.6225C9.5978 84.9657 8.26518 84.6323 6.55532 84.6323H-0.293945V99.3431H6.95216C8.82861 99.3431 10.2445 98.9755 11.2048 98.2402C12.165 97.5049 12.6452 96.4902 12.6452 95.201C12.6452 93.9117 12.1895 93 11.2783 92.3431L11.2832 92.348ZM3.06699 87.1568H6.26136C6.99136 87.1568 7.54498 87.3088 7.93203 87.6078C8.31907 87.9117 8.51015 88.3529 8.51015 88.9412C8.51015 89.5294 8.31907 89.9559 7.93203 90.2647C7.54498 90.5735 6.99136 90.7255 6.26136 90.7255H3.06699V87.1519V87.1568ZM8.61303 96.3627C8.20639 96.6715 7.61357 96.8235 6.82968 96.8235H3.07189V93.1029H6.82968C7.61357 93.1029 8.21129 93.2549 8.61303 93.5539C9.01968 93.8578 9.22055 94.3235 9.22055 94.951C9.22055 95.5784 9.01968 96.049 8.61303 96.3578V96.3627Z" fill="#EFEFEF"/>
<path d="M30.8804 86.2304C29.8369 85.8284 28.6022 85.5882 27.1814 85.5049V84H24.0312V85.5098C22.6496 85.5931 21.4345 85.8284 20.3959 86.2157C19.0632 86.7108 18.0589 87.4461 17.373 88.4118C16.6871 89.3775 16.3441 90.5539 16.3441 91.9412C16.3441 93.3284 16.6871 94.5049 17.373 95.4706C18.0589 96.4363 19.0632 97.1716 20.3861 97.6667C21.4198 98.0539 22.6398 98.2892 24.0312 98.3775V99.9706H27.1814V98.3922C28.6316 98.3186 29.8957 98.0784 30.9637 97.6618C32.2522 97.1569 33.2272 96.4167 33.8935 95.4461C34.5598 94.4706 34.893 93.3039 34.893 91.9461C34.893 90.5882 34.55 89.402 33.8641 88.4363C33.1782 87.4706 32.1836 86.7353 30.8804 86.2304ZM22.3311 95.3824C21.4492 95.1078 20.778 94.6912 20.3273 94.1225C19.8716 93.5539 19.6463 92.8284 19.6463 91.9461C19.6463 91.0637 19.8618 90.3431 20.2979 89.7794C20.7339 89.2206 21.3806 88.8039 22.2527 88.5294C22.7671 88.3676 23.3649 88.2549 24.0361 88.1912V95.7157C23.409 95.6471 22.8406 95.5392 22.336 95.3824H22.3311ZM30.9539 94.0931C30.5424 94.652 29.9104 95.0784 29.0628 95.3627C28.5238 95.5441 27.8967 95.6667 27.1814 95.7353V88.1765C27.8869 88.2402 28.5092 88.3627 29.0383 88.5392C29.8712 88.8186 30.5032 89.2402 30.9294 89.799C31.3557 90.3578 31.5712 91.0686 31.5712 91.9216C31.5712 92.7745 31.3655 93.5245 30.9539 94.0882V94.0931Z" fill="#EFEFEF"/>
<path d="M44.2214 84.6323L37.8572 99.348H41.2573L45.7941 88.848L50.228 99.348H53.9466L47.5823 84.6323H44.2214Z" fill="#EFEFEF"/>
<path d="M69.2423 99.348H72.9609L66.5966 84.6373H63.2357L56.8715 99.348H60.2765L67.8362 96.0098L69.2472 99.348H69.2423ZM62.0158 95.3088L64.8084 88.8481L66.675 93.2647L62.0158 95.3088Z" fill="#EFEFEF"/>
</g>
<defs>
<clipPath id="clip0_931_2">
<rect width="73" height="100" fill="white"/>
</clipPath>
</defs>
</svg>
