<svg width="146" height="142" viewBox="0 0 146 142" fill="none" xmlns="http://www.w3.org/2000/svg">
<path d="M25.51 118.746L23.9862 117.096C23.634 116.715 23.2993 116.494 22.983 116.433C22.6659 116.373 22.3576 116.481 22.0601 116.757C21.7787 117.018 21.6553 117.308 21.6903 117.629C21.726 117.95 21.9196 118.302 22.2718 118.682L23.7956 120.332L25.51 118.746ZM23.0088 121.06L21.6766 119.618C21.3544 119.269 21.0411 119.068 20.7342 119.014C20.4278 118.959 20.1395 119.057 19.8688 119.308C19.5986 119.557 19.4779 119.838 19.5084 120.148C19.5391 120.458 19.7153 120.787 20.0367 121.135L21.3688 122.578L23.0088 121.06ZM27.326 119.049L21.5287 124.413L19.1319 121.818C18.5248 121.161 18.1807 120.531 18.1004 119.929C18.0203 119.326 18.2233 118.801 18.7095 118.351C19.1789 117.916 19.7008 117.753 20.2766 117.861C20.8525 117.969 21.4084 118.314 21.9441 118.893L21.5093 119.004C20.9114 118.358 20.5768 117.74 20.5041 117.151C20.4315 116.562 20.6407 116.041 21.132 115.586C21.6402 115.116 22.2066 114.934 22.8338 115.042C23.4599 115.149 24.1096 115.567 24.7839 116.297L27.326 119.049Z" fill="black"/>
<path d="M19.7082 109.739C20.0615 110.235 20.3059 110.749 20.44 111.282C20.5748 111.815 20.6024 112.343 20.5228 112.866C20.4432 113.389 20.2658 113.879 19.9896 114.334C19.7137 114.79 19.3342 115.191 18.8503 115.536C18.3667 115.88 17.8647 116.109 17.3447 116.222C16.8246 116.334 16.3026 116.341 15.7807 116.243C15.2575 116.144 14.7674 115.944 14.3076 115.644C13.8488 115.343 13.4422 114.944 13.0894 114.447C12.7134 113.921 12.4616 113.375 12.3319 112.811C12.2028 112.247 12.209 111.689 12.35 111.135L13.6258 111.389C13.5449 111.808 13.5443 112.205 13.6239 112.583C13.7028 112.96 13.8607 113.315 14.0964 113.645C14.3363 113.983 14.6115 114.251 14.9196 114.452C15.2292 114.652 15.5569 114.782 15.9059 114.844C16.2537 114.905 16.6072 114.895 16.9656 114.815C17.3241 114.735 17.6686 114.577 17.9994 114.341C18.3297 114.105 18.5915 113.83 18.7839 113.517C18.977 113.204 19.101 112.873 19.1567 112.523C19.2125 112.175 19.1963 111.821 19.1074 111.463C19.0196 111.106 18.8553 110.759 18.6148 110.422C18.3798 110.09 18.0965 109.826 17.7658 109.627C17.4349 109.429 17.0559 109.302 16.6285 109.246L16.8038 107.957C17.3729 108.003 17.9042 108.18 18.3979 108.483C18.891 108.787 19.3285 109.206 19.7082 109.739Z" fill="black"/>
<path d="M12.4326 107.076L10.5552 103.626L11.6154 103.048L13.4921 106.498L12.4326 107.076ZM15.3401 105.362L13.2095 101.446L14.2992 100.852L17.1308 106.057L10.1974 109.836L7.44098 104.77L8.53014 104.177L10.5854 107.954L15.3401 105.362Z" fill="black"/>
<path d="M10.4754 99.0199L10.0411 99.8848L9.17277 97.691C8.93458 97.0896 8.62819 96.6869 8.25217 96.4837C7.87632 96.2812 7.45768 96.2711 6.99658 96.4537C6.5353 96.6373 6.23708 96.9308 6.10245 97.3367C5.96834 97.7424 6.01968 98.246 6.25769 98.8475L7.12624 101.041L6.21825 100.709L10.4754 99.0199ZM13.6159 99.353L6.27651 102.265L5.07971 99.2419C4.82163 98.5916 4.70441 97.9927 4.72572 97.4451C4.74775 96.899 4.90494 96.4217 5.19623 96.0146C5.48824 95.6069 5.90689 95.2953 6.452 95.0789C6.9909 94.8656 7.50279 94.808 7.99089 94.9058C8.47845 95.0037 8.92144 95.2432 9.31877 95.624C9.71664 96.0046 10.0431 96.5202 10.3012 97.1705L11.1948 99.427L10.3287 99.0784L13.0758 97.9883L13.6159 99.353Z" fill="black"/>
<path d="M8.71702 88.5051C8.62181 88.1181 8.46888 87.7782 8.25769 87.4847C8.0465 87.1924 7.79091 86.9547 7.49073 86.7723C7.19002 86.591 6.85912 86.4724 6.49766 86.4179C6.13603 86.3633 5.75753 86.3846 5.36339 86.4819C4.96925 86.5784 4.62414 86.7334 4.32769 86.9453C4.03125 87.158 3.79253 87.4157 3.61153 87.7199C3.43107 88.0241 3.31437 88.3553 3.26251 88.7121C3.211 89.0701 3.23302 89.4427 3.32769 89.8296C3.42289 90.2173 3.57707 90.561 3.79004 90.8607C4.00247 91.1611 4.26126 91.402 4.56517 91.5832C4.86908 91.7645 5.20051 91.8842 5.55894 91.9439C5.91862 92.0022 6.29518 91.9834 6.68931 91.8861C7.07652 91.7914 7.41737 91.634 7.71133 91.4139C8.00636 91.1949 8.24579 90.9341 8.43193 90.6331C8.61737 90.3315 8.73513 89.9983 8.78469 89.634C8.83424 89.2691 8.81222 88.8927 8.71702 88.5051ZM9.96586 88.199C10.1106 88.7905 10.1476 89.3649 10.0742 89.9212C10.0021 90.4776 9.83228 90.9862 9.56603 91.4465C9.29978 91.9075 8.95254 92.2995 8.52465 92.6212C8.09659 92.9428 7.60174 93.1738 7.03904 93.3117C6.46942 93.4515 5.9204 93.478 5.39163 93.3907C4.86339 93.3036 4.37653 93.118 3.93036 92.8312C3.4856 92.5459 3.10141 92.1752 2.78063 91.7194C2.46038 91.2634 2.2261 90.7359 2.07939 90.1364C1.9341 89.545 1.89644 88.9724 1.96607 88.4211C2.03552 87.8685 2.2023 87.3649 2.46607 86.9091C2.72983 86.4524 3.07761 86.063 3.50869 85.74C3.94048 85.417 4.44172 85.1855 5.01134 85.0451C5.58079 84.9051 6.12981 84.8796 6.65859 84.9661C7.18754 85.0532 7.67563 85.2376 8.12359 85.5185C8.57172 85.8001 8.9552 86.169 9.27225 86.6248C9.5893 87.082 9.82039 87.6063 9.96586 88.199Z" fill="black"/>
<path d="M8.39174 78.8852C8.45497 79.4916 8.4143 80.0592 8.26954 80.5892C8.12478 81.1191 7.88855 81.592 7.56137 82.0084C7.23562 82.4255 6.83952 82.7641 6.37523 83.0244C5.91164 83.2846 5.38394 83.4459 4.79318 83.5079C4.20295 83.57 3.65269 83.5218 3.14523 83.3631C2.63706 83.2045 2.17951 82.9536 1.77294 82.6105C1.36691 82.2674 1.03796 81.8516 0.786628 81.3638C0.534765 80.8752 0.377392 80.3277 0.31416 79.7218C0.246487 79.0777 0.295327 78.4788 0.460158 77.9238C0.624988 77.37 0.905095 76.8864 1.30047 76.4738L2.28555 77.3241C2.00917 77.6479 1.81308 77.9945 1.6971 78.3614C1.58058 78.7303 1.54293 79.1159 1.58556 79.5198C1.62872 79.9312 1.73529 80.3006 1.9058 80.6274C2.07614 80.9534 2.29799 81.2295 2.57063 81.4541C2.84381 81.6791 3.15588 81.8454 3.50739 81.9513C3.8589 82.0585 4.23599 82.0912 4.63954 82.0486C5.04433 82.0059 5.4065 81.8962 5.7287 81.7186C6.05001 81.5412 6.3207 81.3134 6.5413 81.037C6.76244 80.7604 6.92177 80.4448 7.0207 80.0905C7.1191 79.7357 7.14734 79.3524 7.10471 78.9403C7.06209 78.5364 6.94556 78.1671 6.75569 77.831C6.56581 77.4953 6.29815 77.1981 5.95356 76.939L6.7406 75.903C7.21306 76.2242 7.58908 76.6386 7.86919 77.1467C8.14858 77.6546 8.32336 78.2342 8.39174 78.8852Z" fill="black"/>
<path d="M8.12089 70.9355C8.11645 71.5457 8.01254 72.1057 7.80952 72.615C7.6065 73.1254 7.31948 73.5702 6.94861 73.9471C6.57703 74.324 6.14647 74.617 5.65589 74.8232C5.16513 75.0308 4.62375 75.1323 4.02979 75.1281C3.43512 75.1229 2.89499 75.0145 2.40813 74.8001C1.92075 74.5855 1.49392 74.2845 1.12874 73.8987C0.762667 73.5124 0.482031 73.0621 0.287182 72.5491C0.0916239 72.0362 -0.00429311 71.4742 0.000147365 70.8648C0.0051207 70.2175 0.120399 69.628 0.345975 69.0955C0.571552 68.5624 0.904408 68.1133 1.34295 67.7478L2.22713 68.703C1.9163 68.9938 1.68326 69.3156 1.52589 69.6682C1.36994 70.0212 1.28966 70.4001 1.28665 70.8065C1.28345 71.2202 1.34863 71.599 1.48149 71.9426C1.61364 72.2863 1.80405 72.585 2.05041 72.8388C2.29659 73.0923 2.58806 73.2923 2.92518 73.4378C3.26283 73.5834 3.63441 73.6573 4.04045 73.6605C4.44649 73.6635 4.81931 73.594 5.15838 73.4541C5.49799 73.3137 5.79248 73.1179 6.04239 72.8678C6.29302 72.6175 6.48679 72.322 6.62391 71.9803C6.76175 71.6385 6.83262 71.2609 6.83582 70.8472C6.83884 70.4408 6.76424 70.0607 6.61273 69.7058C6.46157 69.3508 6.22854 69.0253 5.91469 68.7299L6.81255 67.788C7.24683 68.1599 7.57383 68.6139 7.79567 69.1494C8.01681 69.6858 8.12587 70.2808 8.12089 70.9355Z" fill="black"/>
<path d="M8.1969 66.4547L0.390015 65.277L0.606887 63.837L6.14984 64.6736L1.2385 59.64L1.44151 58.2891L9.24965 59.4668L9.03278 60.9068L3.50048 60.0727L8.40241 65.0926L8.1969 66.4547Z" fill="black"/>
<path d="M9.72464 57.3447L2.16482 55.0658L2.584 53.6715L7.952 55.2896L3.80708 49.6075L4.20122 48.2999L11.7605 50.5778L11.3406 51.9719L5.98451 50.3577L10.122 56.026L9.72464 57.3447ZM2.67174 51.5405C2.4769 52.189 2.19288 52.6361 1.82131 52.882C1.44848 53.1271 1.01314 53.1785 0.513672 53.0363L0.806206 52.0635C1.07565 52.1362 1.30762 52.1081 1.50372 51.9789C1.69981 51.8491 1.84457 51.6288 1.93729 51.3191C2.03125 51.0098 2.03196 50.7446 1.94102 50.525C1.85079 50.3044 1.67281 50.1506 1.40851 50.0628L1.70106 49.0907C2.19555 49.2475 2.52947 49.5335 2.70371 49.9469C2.87778 50.3607 2.86712 50.8919 2.67174 51.5405Z" fill="black"/>
<path d="M14.178 45.273C13.9256 45.8281 13.6022 46.2965 13.21 46.6803C12.8164 47.0636 12.3729 47.3515 11.8809 47.5447C11.3885 47.7378 10.8759 47.8281 10.3432 47.8174C9.81198 47.8062 9.27485 47.6777 8.73489 47.4311C8.19404 47.1852 7.74484 46.8642 7.38765 46.4704C7.02975 46.0759 6.76297 45.6268 6.58624 45.1251C6.41004 44.6233 6.33739 44.0978 6.36812 43.5497C6.39884 43.0014 6.53988 42.4496 6.79174 41.8946C7.06048 41.3056 7.40577 40.814 7.82868 40.4195C8.2523 40.0256 8.73862 39.7509 9.28746 39.5961L9.70611 40.8284C9.30434 40.9676 8.95976 41.1671 8.67272 41.4249C8.3864 41.6826 8.15887 41.9961 7.99049 42.3662C7.81926 42.7431 7.72407 43.115 7.70524 43.4832C7.68659 43.8507 7.73845 44.2012 7.86012 44.533C7.98108 44.8654 8.16651 45.1671 8.41518 45.4373C8.66331 45.7077 8.9729 45.9273 9.342 46.096C9.71162 46.2647 10.0802 46.3536 10.4473 46.3637C10.8145 46.3744 11.1629 46.3161 11.4931 46.1893C11.8239 46.0633 12.121 45.872 12.3866 45.6162C12.651 45.3609 12.8692 45.0448 13.0402 44.6679C13.2088 44.2985 13.2958 43.9203 13.302 43.5346C13.3089 43.149 13.2288 42.757 13.0628 42.358L14.2665 41.865C14.5109 42.3818 14.6242 42.9299 14.6086 43.5095C14.5929 44.0896 14.4494 44.6773 14.178 45.273Z" fill="black"/>
<path d="M18.8002 36.7543L14.1233 37.0089L14.1308 35.621L19.6706 35.3418L18.8002 36.7543ZM13.7592 38.5888L12.694 37.9308L14.0862 35.673L15.1509 36.331L13.7592 38.5888ZM14.8645 35.9145L14.0054 36.9637L12.0818 32.6044L12.8988 31.2786L14.8645 35.9145ZM16.0576 41.2021L9.33917 37.0522L10.091 35.8318L16.8095 39.9817L16.0576 41.2021Z" fill="black"/>
<path d="M19.1765 33.0157L18.5342 31.9779L21.1979 28.6595L22.342 29.0735L19.1765 33.0157ZM19.5768 35.4372L15.6475 27.7156L16.5516 26.5892L24.9393 28.7579L23.9713 29.9633L16.5154 27.8781L16.883 27.4196L20.5161 34.2664L19.5768 35.4372Z" fill="black"/>
<path d="M25.1755 28.5661L24.6153 25.18L25.6773 24.1508L26.2851 27.4899L25.1755 28.5661ZM26.767 22.8438L23.9498 19.932L24.4842 19.9645L22.9366 21.4641C22.5043 21.8831 22.2693 22.3027 22.2304 22.7228C22.1915 23.1423 22.3601 23.5469 22.7373 23.9357C23.0983 24.3089 23.4862 24.4908 23.9009 24.4813C24.3158 24.4726 24.7368 24.2612 25.1636 23.8474L26.7514 22.3082L26.767 22.8438ZM28.8542 25.0006L27.0885 23.1755L27.5828 23.1681L25.9217 24.778C25.4418 25.244 24.9537 25.562 24.4592 25.7325C23.9642 25.9025 23.4793 25.9258 23.0024 25.8003C22.5256 25.6755 22.0857 25.4052 21.6834 24.9887C21.2548 24.5453 20.9878 24.0756 20.8844 23.5789C20.7805 23.0822 20.8274 22.5786 21.0242 22.068C21.2215 21.5581 21.5599 21.0696 22.0413 20.6042L24.3984 18.3188L29.8906 23.9953L28.8542 25.0006Z" fill="black"/>
<path d="M37.1799 18.8739L32.5362 11.7161L33.6715 10.9786L38.3147 18.137L37.1799 18.8739ZM36.6598 16.8702C36.6724 16.862 36.6911 16.8501 36.7163 16.8332C36.7419 16.8168 36.757 16.8067 36.7632 16.8025C37.3747 16.4055 37.8397 15.9978 38.1568 15.5808C38.4738 15.1642 38.6431 14.7422 38.6662 14.3145C38.6895 13.8874 38.5616 13.4584 38.2834 13.0288C38.0083 12.606 37.6717 12.3226 37.2733 12.1778C36.8742 12.0329 36.4236 12.0215 35.9191 12.1425C35.4154 12.2636 34.8634 12.5189 34.265 12.9077C34.258 12.9121 34.2392 12.9246 34.2072 12.9454C34.176 12.966 34.1541 12.9799 34.1415 12.9886C33.5168 13.3937 33.0387 13.8058 32.7048 14.2249C32.3714 14.6437 32.1916 15.0652 32.1671 15.4892C32.1414 15.9143 32.2705 16.344 32.5531 16.7792C32.8319 17.2088 33.1765 17.496 33.5888 17.6409C34.0012 17.7857 34.4648 17.7921 34.9794 17.6592C35.4943 17.5267 36.054 17.264 36.6598 16.8702ZM37.1511 17.8968C36.3182 18.4375 35.5382 18.7861 34.8088 18.9404C34.0808 19.096 33.4222 19.059 32.8351 18.8313C32.2472 18.603 31.7529 18.179 31.3518 17.5607C30.9502 16.9416 30.7641 16.3157 30.7923 15.6823C30.8211 15.0496 31.0536 14.4293 31.4891 13.8234C31.9252 13.2169 32.5593 12.6432 33.3922 12.1018C33.4041 12.0944 33.4328 12.0755 33.4767 12.0472C33.5211 12.0184 33.5682 11.9877 33.619 11.9552C33.6698 11.9219 33.6978 11.9036 33.7042 11.8993C34.5369 11.3587 35.3151 11.0137 36.0396 10.8663C36.7639 10.7184 37.4181 10.7628 38.0014 10.998C38.5841 11.2339 39.076 11.661 39.4777 12.28C39.8705 12.8858 40.0586 13.5036 40.0417 14.1338C40.0246 14.7641 39.8035 15.3769 39.3781 15.9713C38.9532 16.5665 38.3298 17.1304 37.5101 17.6629C37.4976 17.6716 37.465 17.6937 37.4111 17.7274C37.3573 17.7626 37.304 17.7971 37.25 17.8321C37.1962 17.8673 37.163 17.8892 37.1511 17.8968Z" fill="black"/>
<path d="M42.3147 10.2393L45.8719 8.5785L46.3818 9.6729L42.8254 11.3337L42.3147 10.2393ZM43.8422 13.2509L47.88 11.365L48.4045 12.4907L43.039 14.9963L39.7005 7.83468L44.9232 5.39575L45.4475 6.52143L41.554 8.34011L43.8422 13.2509Z" fill="black"/>
<path d="M49.5134 13.7753L48.6418 10.985L56.9961 8.33526L57.8786 11.123L56.5876 11.5319L56.0802 9.92816L50.3067 11.7596L50.8148 13.3632L49.5134 13.7753ZM54.7041 9.6542L52.8983 3.95072L49.9526 4.8846L50.321 6.23605C50.4658 6.74343 50.586 7.22824 50.6814 7.69118C50.7766 8.15464 50.8423 8.58165 50.88 8.97241C50.9162 9.3637 50.9026 9.70379 50.8361 9.99286C50.7702 10.2819 50.6456 10.499 50.4621 10.6444L48.8892 10.9059C49.1637 10.827 49.358 10.6613 49.4708 10.408C49.5836 10.1553 49.6336 9.83356 49.6205 9.44281C49.6074 9.05205 49.5491 8.60673 49.4463 8.10699C49.3436 7.60655 49.2113 7.06592 49.0516 6.48512L48.3843 4.07927L53.9002 2.33081L56.0807 9.21828L54.7041 9.6542Z" fill="black"/>
<path d="M59.243 4.5131L63.1066 3.8219L63.3197 5.01105L59.4554 5.70227L59.243 4.5131ZM59.948 7.81569L64.3336 7.03168L64.5515 8.25407L58.7229 9.29711L57.3331 1.51843L63.0069 0.502441L63.225 1.72538L58.9949 2.48164L59.948 7.81569Z" fill="black"/>
<path d="M67.4881 5.20482L66.8057 4.51932L69.1591 4.38687C69.8046 4.34989 70.2833 4.18634 70.5947 3.89337C70.9055 3.60057 71.0469 3.20607 71.0194 2.7106C70.9911 2.21443 70.8071 1.83879 70.465 1.58225C70.1229 1.32697 69.6284 1.21727 68.9831 1.25371L66.6297 1.38545L67.2311 0.628296L67.4881 5.20482ZM66.1815 8.08215L65.738 0.191837L68.9812 0.00997976C69.6792 -0.0294869 70.284 0.0481936 70.7964 0.241438C71.3076 0.434505 71.7105 0.734425 72.0044 1.13958C72.2982 1.54527 72.4613 2.04145 72.495 2.62776C72.527 3.20607 72.4199 3.71148 72.173 4.14366C71.9261 4.57566 71.5595 4.92074 71.0734 5.17781C70.5872 5.43488 69.995 5.5835 69.2965 5.62314L66.8751 5.75861L67.4792 5.04679L67.6453 7.99932L66.1815 8.08215Z" fill="black"/>
<path d="M74.5275 5.95455L75.0064 4.83136L79.2502 5.10532L79.5705 6.27936L74.5275 5.95455ZM72.7781 7.67473L76.831 0.0166016L78.2715 0.109935L81.3213 8.22478L79.7792 8.12575L77.1975 0.82122L77.7827 0.858911L74.2751 7.77073L72.7781 7.67473Z" fill="black"/>
<path d="M88.7134 11.4766L89.132 9.44268L89.3819 9.85103L87.8024 9.52553L88.0535 8.30881L90.6377 8.84304L90.0386 11.7506L88.7134 11.4766ZM82.4894 8.42792L84.0848 0.688721L85.5097 0.983478L84.1649 7.50598L88.0535 8.30881L89.3978 1.78632L90.8226 2.07983L89.2272 9.81903L82.4894 8.42792Z" fill="black"/>
<path d="M91.6265 10.4798L94.3171 3.0498L95.6849 3.54651L93.7745 8.821L99.6714 4.99274L100.955 5.45869L98.2647 12.8875L96.8969 12.3913L98.803 7.12767L92.9205 10.949L91.6265 10.4798Z" fill="black"/>
<path d="M105.71 13.2781L107.591 9.6895L107.727 10.2076L105.819 9.20542C105.287 8.92559 104.815 8.83351 104.405 8.92755C103.994 9.02284 103.663 9.30941 103.412 9.78995C103.171 10.2495 103.119 10.6755 103.258 11.0668C103.397 11.458 103.729 11.7917 104.255 12.0684L106.213 13.0962L105.71 13.2781ZM104.316 15.9373L105.495 13.6883L105.657 14.1562L103.61 13.0811C103.017 12.7695 102.563 12.4058 102.246 11.9887C101.93 11.5716 101.756 11.1176 101.726 10.6253C101.695 10.1336 101.814 9.63047 102.083 9.11759C102.369 8.57127 102.732 8.17057 103.171 7.91653C103.61 7.66319 104.102 7.54959 104.648 7.57733C105.194 7.60488 105.763 7.77359 106.356 8.0847L109.262 9.61109L105.594 16.609L104.316 15.9373ZM99.7814 13.556L102.82 11.9649L104.128 12.6516L101.15 14.2747L99.7814 13.556Z" fill="black"/>
<path d="M110.02 19.5434C109.92 19.4644 109.822 19.3784 109.728 19.2856C109.633 19.1915 109.539 19.0843 109.444 18.9613L110.318 18.0118C110.382 18.1003 110.462 18.1818 110.556 18.2564C110.811 18.4566 111.089 18.5129 111.392 18.4251C111.694 18.338 112.034 18.1217 112.41 17.7761C112.786 17.4305 113.216 16.9739 113.699 16.407L115.802 13.9103L120.37 17.5007L115.494 23.7165L114.349 22.8171L118.683 17.2945L118.734 17.7942L115.78 15.4724L116.259 15.3753L114.748 17.1727C114.245 17.7642 113.779 18.2683 113.347 18.6842C112.914 19.1007 112.508 19.4193 112.124 19.6394C111.741 19.8602 111.377 19.9642 111.033 19.9522C110.689 19.9398 110.351 19.8036 110.02 19.5434Z" fill="black"/>
<path d="M121.35 22.9463L124.106 25.7429L123.247 26.5915L120.491 23.7949L121.35 22.9463ZM119.028 25.3974L122.157 28.5714L121.274 29.4438L117.115 25.2249L122.736 19.675L126.783 23.7812L125.9 24.6535L122.883 21.5917L119.028 25.3974Z" fill="black"/>
<path d="M122.332 30.7279L128.522 25.8223L131.855 30.0342L130.875 30.7963L128.235 27.4603L128.72 27.5081L123.236 31.8694L122.332 30.7279Z" fill="black"/>
<path d="M131.634 37.2528L131.078 36.0167L135.835 36.2331L136.657 37.5565L131.634 37.2528ZM129.734 35.0717L130.798 34.41L132.197 36.6633L131.134 37.325L129.734 35.0717ZM129.131 40.4062L130.985 36.1021L132.223 36.7266L130.006 41.8155L129.131 40.4062ZM126.373 35.9678L133.077 31.7947L133.834 33.0119L127.129 37.1851L126.373 35.9678Z" fill="black"/>
<path d="M133.034 45.5515C133.198 45.9152 133.41 46.2212 133.672 46.4708C133.933 46.7198 134.227 46.9074 134.556 47.031C134.884 47.155 135.231 47.2109 135.597 47.1977C135.962 47.1858 136.33 47.0955 136.7 46.9287C137.07 46.7613 137.382 46.5462 137.634 46.2827C137.887 46.0199 138.075 45.7227 138.197 45.391C138.319 45.0585 138.373 44.7124 138.359 44.3511C138.344 43.9899 138.254 43.6279 138.09 43.2642C137.927 42.9005 137.713 42.5913 137.449 42.3348C137.184 42.0782 136.886 41.8894 136.554 41.7671C136.222 41.6436 135.875 41.5865 135.511 41.594C135.148 41.6022 134.78 41.6894 134.411 41.8569C134.047 42.0212 133.742 42.2381 133.492 42.5078C133.242 42.7774 133.054 43.0774 132.926 43.4071C132.799 43.7376 132.743 44.0864 132.761 44.4546C132.779 44.8221 132.869 45.1878 133.034 45.5515ZM131.862 46.0814C131.611 45.5257 131.471 44.9675 131.441 44.4075C131.411 43.8468 131.485 43.3163 131.662 42.8146C131.841 42.3134 132.11 41.8644 132.472 41.4699C132.834 41.0747 133.279 40.7581 133.807 40.5191C134.341 40.2777 134.876 40.151 135.412 40.1403C135.947 40.1291 136.46 40.2237 136.95 40.4231C137.441 40.6226 137.885 40.9174 138.283 41.3062C138.682 41.6962 139.009 42.1723 139.262 42.7348C139.513 43.2905 139.655 43.8455 139.686 44.4006C139.719 44.9563 139.647 45.4825 139.471 45.9785C139.295 46.4752 139.025 46.9223 138.659 47.3188C138.293 47.7145 137.843 48.0343 137.308 48.2758C136.774 48.5179 136.239 48.6439 135.704 48.6546C135.168 48.666 134.654 48.5737 134.162 48.3792C133.67 48.1849 133.226 47.8926 132.831 47.5006C132.436 47.1099 132.112 46.637 131.862 46.0814Z" fill="black"/>
<path d="M143.277 52.4729C143.091 51.8214 143.088 51.2921 143.269 50.8843C143.448 50.4761 143.788 50.197 144.284 50.0464L144.564 51.0237C144.299 51.1076 144.118 51.2569 144.024 51.4728C143.929 51.6872 143.926 51.9506 144.015 52.261C144.104 52.5721 144.246 52.796 144.442 52.9314C144.637 53.0676 144.87 53.1008 145.139 53.0312L145.418 54.0077C144.918 54.1437 144.482 54.0841 144.112 53.8308C143.742 53.5762 143.464 53.1247 143.277 52.4729ZM134.209 51.4105L141.798 49.2336L142.2 50.6329L136.811 52.1789L143.368 54.7138L143.744 56.0271L136.154 58.204L135.753 56.8041L141.131 55.2614L134.588 52.7344L134.209 51.4105Z" fill="black"/>
<path d="M139 64.0066L140.182 64.3083L140.564 68.5467L139.454 69.0439L139 64.0066ZM137.034 62.541L145.215 65.3727L145.345 66.812L137.802 71.0745L137.663 69.5344L144.478 65.8587L144.53 66.4438L137.168 64.0356L137.034 62.541Z" fill="black"/>
<path d="M137.69 73.5479L144.7 73.827L144.326 74.1625L144.443 71.2073L145.683 71.2564L145.418 77.9342L144.178 77.8848L144.295 74.9296L144.643 75.2707L137.633 74.9916L137.69 73.5479Z" fill="black"/>
<path d="M137.43 78.3639C137.447 78.2365 137.473 78.1092 137.506 77.9813C137.539 77.8533 137.585 77.7166 137.643 77.573L138.903 77.8534C138.858 77.9531 138.828 78.0628 138.811 78.1826C138.766 78.5024 138.856 78.7721 139.084 78.9904C139.311 79.2087 139.669 79.3943 140.156 79.5467C140.644 79.6991 141.253 79.8422 141.987 79.9757L145.198 80.5433L144.387 86.2999L136.569 85.1968L136.772 83.7549L143.719 84.7351L143.313 85.0311L143.837 81.309L144.162 81.674L141.85 81.2676C141.087 81.1296 140.417 80.9785 139.841 80.813C139.264 80.648 138.784 80.4548 138.401 80.234C138.019 80.0126 137.747 79.7499 137.585 79.4457C137.422 79.1415 137.371 78.781 137.43 78.3639Z" fill="black"/>
<path d="M140.173 89.8723L139.135 93.6617L137.971 93.3418L139.009 89.5532L140.173 89.8723ZM136.89 89.0891L135.713 93.3895L134.517 93.0615L136.082 87.3456L143.696 89.4346L142.172 94.9982L140.975 94.6695L142.112 90.5216L136.89 89.0891Z" fill="black"/>
<path d="M133.322 96.1694L139.833 98.7808L139.368 98.9716L140.468 96.2258L141.619 96.6875L139.136 102.891L137.984 102.43L139.083 99.6839L139.297 100.122L132.785 97.5109L133.322 96.1694Z" fill="black"/>
<path d="M131.282 101.084L138.185 104.919L137.479 106.193L132.578 103.469L135.42 109.904L134.758 111.098L127.855 107.263L128.561 105.989L133.453 108.707L130.614 102.288L131.282 101.084Z" fill="black"/>
<path d="M127.354 114.463L128.301 113.494L129.836 118.005L128.905 119.254L127.354 114.463ZM128.689 111.896L129.692 112.646L128.108 114.772L127.105 114.023L128.689 111.896ZM126.629 109.091L132.958 113.815L132.102 114.965L125.772 110.241L126.629 109.091ZM123.507 113.281L128.188 113.438L128.059 114.82L122.515 114.611L123.507 113.281Z" fill="black"/>
<path d="M121.849 115.357L127.516 120.859L126.503 121.904L122.48 117.997L123.55 124.951L122.601 125.931L116.933 120.429L117.946 119.384L121.962 123.282L120.891 116.345L121.849 115.357Z" fill="black"/>
<path d="M46.3076 137.559C45.9159 137.857 45.342 138.005 44.5857 138.005H40.9602V134.417H44.5857C45.342 134.417 45.9159 134.562 46.3076 134.853C46.6992 135.144 46.8953 135.593 46.8953 136.201C46.8953 136.809 46.6992 137.262 46.3076 137.559ZM40.9602 128.679H44.0387C44.7412 128.679 45.2776 128.824 45.6491 129.115C46.0207 129.406 46.2062 129.835 46.2062 130.402C46.2062 130.957 46.0207 131.383 45.6491 131.68C45.2776 131.977 44.7412 132.126 44.0387 132.126H40.9602V128.679ZM48.8804 133.687C48.5001 133.412 48.0497 133.2 47.5376 133.044C47.7895 132.924 48.0244 132.783 48.242 132.623C49.1129 131.981 49.549 131.078 49.549 129.916C49.549 128.74 49.0898 127.835 48.1712 127.199C47.2525 126.564 45.9699 126.246 44.3225 126.246H37.7188V140.438H44.7072C46.517 140.438 47.8841 140.084 48.809 139.374C49.7346 138.665 50.1969 137.688 50.1969 136.444C50.1969 135.242 49.7576 134.323 48.8804 133.687Z" fill="black"/>
<path d="M67.8505 135.37C67.4521 135.91 66.8442 136.319 66.0272 136.597C65.5089 136.772 64.9043 136.892 64.2144 136.956V129.665C64.8954 129.728 65.4938 129.845 66.0071 130.017C66.8103 130.288 67.4181 130.693 67.8306 131.234C68.2421 131.774 68.4483 132.457 68.4483 133.281C68.4483 134.133 68.2485 134.829 67.8505 135.37ZM59.5349 136.617C58.6846 136.353 58.0391 135.947 57.6006 135.4C57.1621 134.853 56.9427 134.153 56.9427 133.302C56.9427 132.45 57.1514 131.754 57.5706 131.214C57.9885 130.673 58.6169 130.27 59.4541 130.007C59.9498 129.851 60.5249 129.743 61.1761 129.679V136.938C60.57 136.874 60.0217 136.767 59.5349 136.617ZM67.7798 127.787C66.7741 127.397 65.5835 127.167 64.2144 127.089V125.638H61.1761V127.094C59.8437 127.176 58.674 127.402 57.6715 127.777C56.3882 128.256 55.4162 128.963 54.7546 129.895C54.093 130.829 53.7621 131.964 53.7621 133.302C53.7621 134.64 54.093 135.775 54.7546 136.708C55.4162 137.641 56.3857 138.347 57.6613 138.827C58.6601 139.202 59.8338 139.429 61.1761 139.51V141.047H64.2144V139.522C65.6142 139.453 66.8316 139.219 67.8606 138.817C69.103 138.33 70.0449 137.617 70.6865 136.677C71.3274 135.738 71.6481 134.613 71.6481 133.302C71.6481 131.978 71.3174 130.849 70.6558 129.916C69.9941 128.983 69.0354 128.274 67.7798 127.787Z" fill="black"/>
<path d="M80.6424 126.246L74.5048 140.438H77.7863L82.16 130.311L86.4358 140.438H90.0212L83.8838 126.246H80.6424Z" fill="black"/>
<path d="M97.8004 136.544L100.492 130.311L102.292 134.573L97.8004 136.544ZM104.767 140.439H108.354L102.215 126.246H98.9746L92.837 140.439H96.1185V140.437L103.408 137.218L104.767 140.439Z" fill="black"/>
<path d="M72.8417 33.6921C85.1356 33.6921 94.8587 35.4495 99.0475 36.3538C99.0512 36.1963 99.0656 36.0434 99.0944 35.8973C94.8542 34.9847 85.1243 33.2356 72.8417 33.2356C60.61 33.2356 51.1296 35.0324 46.9765 35.9812C47.0065 36.1268 47.0229 36.2797 47.0278 36.4372C51.1271 35.4976 60.5976 33.6921 72.8417 33.6921Z" fill="black"/>
<path d="M91.6583 67.0151L81.0726 45.7406C79.7067 43.7374 76.5236 43.432 74.2671 43.303C71.5834 43.1486 66.2524 43.3248 64.6007 45.7406L54.4047 66.7556C55.6416 69.6624 57.0226 72.5127 58.5409 75.2886C58.7496 74.7241 58.9506 74.1654 59.138 73.6153C62.2686 64.4358 65.3463 55.1543 68.4367 45.9803C68.8396 44.9792 69.9199 44.6055 70.9017 44.3979C72.9074 43.9739 75.2866 44.1771 76.9175 45.4516C80.4692 55.3325 84.1786 65.2002 87.7127 75.1097C89.1494 72.4701 90.4666 69.7629 91.6583 67.0151Z" fill="black"/>
<path d="M98.6002 41.5277C97.1208 40.7285 95.6496 39.946 94.1972 39.192C83.6396 33.7125 64.5679 34.933 53.3267 38.1981C51.3466 39.2185 49.3878 40.2784 47.4385 41.3577C47.498 41.7842 47.5589 42.2112 47.6239 42.6377C49.1937 41.7051 50.7713 40.7876 52.3649 39.9033C61.4199 34.8791 81.8305 34.5184 91.1788 38.8347L98.4198 43.088C98.4857 42.5668 98.5464 42.0462 98.6002 41.5277Z" fill="black"/>
<path d="M95.9709 54.9787L84.6589 42.3319C84.3099 42.1031 84.0003 41.7763 83.6325 41.5799C79.901 39.5906 64.4825 39.341 61.2004 41.9838L50.1578 54.5008C50.2136 54.7052 50.2642 54.9077 50.3212 55.1129C50.6898 56.4356 51.0889 57.7513 51.5156 59.059C55.7076 53.4471 59.8363 47.7851 64.1542 42.2718C65.0833 41.4734 67.6894 41.003 68.9489 40.845C71.786 40.4894 79.5408 40.4624 81.6431 42.5038L94.6111 59.3506C95.1019 57.8962 95.558 56.438 95.9709 54.9787Z" fill="black"/>
<path d="M97.6518 47.9079C94.3846 44.6754 90.6401 40.2923 86.4317 38.9927C79.39 36.8183 65.8006 36.9538 58.7475 39.1759C56.2354 39.9668 55.2623 40.7846 53.3706 42.5087C51.7127 44.0201 50.0609 45.5641 48.4149 47.122C48.5966 48.0327 48.7921 48.9458 48.9994 49.8621C51.0241 47.6797 53.0585 45.509 55.1464 43.3954C56.0706 42.4598 57.196 41.1622 58.2969 40.503C63.8849 37.1565 82.5763 36.9351 87.841 40.927C88.7276 41.5986 89.7941 42.8367 90.6143 43.6646C92.8262 45.8978 94.9635 48.2134 97.099 50.5312C97.2976 49.6559 97.4837 48.7803 97.6518 47.9079Z" fill="black"/>
<path d="M40.5984 69.1862C49.0475 83.0148 58.3482 95.8898 73.1909 105.359C85.7742 97.4496 98.7317 81.0669 107.371 66.3865C106.648 56.3104 104.037 45.9254 101.45 36.2601C100.006 58.8349 89.5703 82.656 73.0938 98.2518C56.3337 82.4699 46.5179 59.0656 44.6268 36.3743C42.0854 45.6061 40.2124 55.1741 38.7105 64.7056C38.3044 65.965 39.9719 67.9687 40.5984 69.1862Z" fill="black"/>
<path d="M64.7029 80.9454C64.7029 85.2804 68.2137 88.7943 72.5446 88.7943C76.8757 88.7943 80.3866 85.2804 80.3866 80.9454C80.3866 76.6105 76.8757 73.0966 72.5446 73.0966C68.2137 73.0966 64.7029 76.6105 64.7029 80.9454Z" fill="black"/>
<path d="M107.448 73.3233C100.391 84.3995 83.2809 102.128 73.2207 107.569C62.3996 102.648 46.0459 84.6635 38.2618 72.4038L37.506 86.2785C42.7488 92.9371 62.7048 109.437 73.1236 115.342C83.7891 109.12 103.264 92.2459 108.566 85.2883C108.567 85.289 107.448 73.3233 107.448 73.3233Z" fill="black"/>
</svg>
