<svg width="104" height="100" viewBox="0 0 104 100" fill="none" xmlns="http://www.w3.org/2000/svg">
<path d="M18.0861 84.1887L17.0058 83.0193C16.756 82.7489 16.5188 82.5924 16.2945 82.5493C16.0697 82.5067 15.8511 82.5831 15.6402 82.7788C15.4407 82.9637 15.3532 83.1697 15.378 83.3968C15.4033 83.6249 15.5406 83.874 15.7903 84.1438L16.8706 85.3132L18.0861 84.1887ZM16.3128 85.8295L15.3683 84.8072C15.1399 84.56 14.9177 84.4172 14.7001 84.3786C14.4829 84.34 14.2785 84.4093 14.0866 84.5871C13.8951 84.7641 13.8094 84.9634 13.8311 85.1829C13.8529 85.4026 13.9778 85.636 14.2056 85.8828L15.1501 86.9055L16.3128 85.8295ZM19.3736 84.4035L15.2634 88.207L13.5641 86.3671C13.1337 85.9011 12.8898 85.4547 12.8329 85.0274C12.7761 84.6005 12.92 84.2279 13.2647 83.9086C13.5975 83.6008 13.9675 83.4853 14.3757 83.5618C14.784 83.6383 15.1782 83.8824 15.558 84.2932L15.2497 84.372C14.8258 83.9136 14.5886 83.4756 14.537 83.0585C14.4855 82.6409 14.6339 82.271 14.9822 81.9486C15.3425 81.6151 15.7441 81.4866 16.1887 81.5626C16.6326 81.6386 17.0933 81.9352 17.5713 82.4524L19.3736 84.4035Z" fill="#EFEFEF"/>
<path d="M13.9727 77.8029C14.2232 78.1551 14.3965 78.5196 14.4916 78.8972C14.5872 79.2747 14.6067 79.6491 14.5503 80.0204C14.4938 80.3912 14.368 80.7384 14.1722 81.0612C13.9766 81.3845 13.7075 81.6682 13.3645 81.9131C13.0216 82.1573 12.6657 82.3196 12.297 82.3997C11.9283 82.4792 11.5582 82.4837 11.1882 82.4143C10.8172 82.3445 10.4698 82.2027 10.1437 81.9897C9.81847 81.7763 9.53022 81.4934 9.28013 81.1413C9.01353 80.7682 8.83497 80.3814 8.74304 79.9812C8.65149 79.5815 8.6559 79.1853 8.75589 78.7927L9.66043 78.9732C9.603 79.2698 9.60263 79.5516 9.65904 79.8193C9.71496 80.0871 9.82691 80.3382 9.99402 80.5726C10.1641 80.8118 10.3592 81.0021 10.5777 81.1444C10.7972 81.2862 11.0295 81.3787 11.277 81.4223C11.5235 81.4655 11.7742 81.4588 12.0283 81.4019C12.2824 81.345 12.5267 81.2333 12.7612 81.0658C12.9954 80.8985 13.181 80.7038 13.3174 80.4819C13.4543 80.26 13.5422 80.0253 13.5817 79.7771C13.6213 79.53 13.6098 79.2791 13.5467 79.0257C13.4845 78.7722 13.368 78.5263 13.1975 78.2871C13.0309 78.0524 12.8301 77.8647 12.5956 77.7238C12.361 77.5832 12.0922 77.4934 11.7893 77.4538L11.9136 76.5396C12.317 76.5725 12.6937 76.6975 13.0438 76.9127C13.3933 77.1284 13.7035 77.4249 13.9727 77.8029Z" fill="#EFEFEF"/>
<path d="M8.8145 75.9148L7.48343 73.4689L8.2351 73.0594L9.56566 75.5053L8.8145 75.9148ZM10.8758 74.7L9.36531 71.9237L10.1379 71.5026L12.1454 75.1928L7.2298 77.8723L5.27551 74.2803L6.04771 73.8597L7.50484 76.5374L10.8758 74.7Z" fill="#EFEFEF"/>
<path d="M7.42695 70.2035L7.11905 70.8167L6.50338 69.2613C6.33451 68.8349 6.11728 68.5494 5.85069 68.4054C5.58422 68.2618 5.28741 68.2546 4.9605 68.3841C4.63346 68.5143 4.42202 68.7224 4.32657 69.0101C4.23149 69.2977 4.26789 69.6548 4.43664 70.0812L5.05243 71.6367L4.40868 71.401L7.42695 70.2035ZM9.6535 70.4397L4.44998 72.5041L3.60147 70.3609C3.4185 69.8998 3.33539 69.4752 3.3505 69.087C3.36611 68.6998 3.47756 68.3614 3.68408 68.0727C3.89111 67.7837 4.18793 67.5628 4.5744 67.4094C4.95647 67.2581 5.31939 67.2173 5.66545 67.2866C6.01112 67.3561 6.32519 67.5258 6.60689 67.7958C6.88898 68.0657 7.12043 68.4312 7.30341 68.8923L7.93696 70.4921L7.32293 70.2449L9.27055 69.4721L9.6535 70.4397Z" fill="#EFEFEF"/>
<path d="M6.1802 62.7487C6.11271 62.4743 6.00428 62.2333 5.85455 62.0252C5.70482 61.818 5.52361 61.6495 5.31079 61.5202C5.09759 61.3916 4.86298 61.3076 4.60672 61.2689C4.35033 61.2302 4.08197 61.2453 3.80254 61.3142C3.5231 61.3827 3.27842 61.4926 3.06825 61.6428C2.85807 61.7936 2.68882 61.9763 2.5605 62.192C2.43256 62.4076 2.34982 62.6425 2.31305 62.8954C2.27653 63.1493 2.29214 63.4135 2.35926 63.6877C2.42676 63.9626 2.53607 64.2063 2.68706 64.4188C2.83767 64.6318 3.02115 64.8026 3.23661 64.931C3.45208 65.0596 3.68706 65.1444 3.94118 65.1867C4.19619 65.2281 4.46316 65.2147 4.7426 65.1458C5.01712 65.0786 5.25878 64.967 5.46719 64.811C5.67636 64.6557 5.84611 64.4708 5.97809 64.2574C6.10956 64.0435 6.19305 63.8073 6.22818 63.5491C6.26332 63.2903 6.2477 63.0235 6.1802 62.7487ZM7.06561 62.5317C7.16824 62.951 7.19443 63.3583 7.14242 63.7526C7.0913 64.1471 6.97091 64.5077 6.78214 64.8341C6.59338 65.1609 6.34719 65.4388 6.04382 65.667C5.74033 65.895 5.38949 66.0587 4.99055 66.1565C4.5867 66.2556 4.19745 66.2744 3.82256 66.2125C3.44805 66.1507 3.10287 66.0191 2.78654 65.8158C2.47121 65.6135 2.19883 65.3507 1.9714 65.0276C1.74435 64.7043 1.57825 64.3303 1.47423 63.9053C1.37122 63.4859 1.34453 63.08 1.39389 62.6891C1.44313 62.2974 1.56138 61.9403 1.74838 61.6171C1.93539 61.2933 2.18196 61.0173 2.48759 60.7883C2.79372 60.5592 3.14909 60.3951 3.55294 60.2956C3.95667 60.1964 4.34592 60.1782 4.72081 60.2396C5.09583 60.3014 5.44188 60.4321 5.75947 60.6312C6.07719 60.8309 6.34907 61.0924 6.57386 61.4156C6.79864 61.7398 6.96248 62.1114 7.06561 62.5317Z" fill="#EFEFEF"/>
<path d="M5.94957 55.9283C5.9944 56.3582 5.96556 56.7607 5.86293 57.1364C5.7603 57.5122 5.59281 57.8474 5.36085 58.1426C5.12989 58.4383 4.84907 58.6784 4.51989 58.8629C4.19122 59.0475 3.81708 59.1618 3.39824 59.2058C2.97978 59.2498 2.58966 59.2156 2.22988 59.1031C1.86959 58.9906 1.5452 58.8128 1.25695 58.5695C0.969071 58.3263 0.735854 58.0315 0.557664 57.6856C0.379097 57.3392 0.267522 56.951 0.222692 56.5215C0.174713 56.0648 0.20934 55.6402 0.326202 55.2467C0.443064 54.8541 0.641655 54.5112 0.921973 54.2187L1.62037 54.8215C1.42443 55.0511 1.2854 55.2968 1.20317 55.557C1.12056 55.8185 1.09387 56.0919 1.12409 56.3783C1.15469 56.6699 1.23025 56.9319 1.35114 57.1635C1.47191 57.3947 1.62919 57.5904 1.82249 57.7496C2.01617 57.9092 2.23743 58.027 2.48664 58.1022C2.73585 58.1782 3.0032 58.2014 3.28932 58.1711C3.57631 58.1409 3.83307 58.0631 4.06151 57.9372C4.28932 57.8114 4.48123 57.6499 4.63764 57.4539C4.79442 57.2578 4.90738 57.0341 4.97752 56.7829C5.04729 56.5313 5.06731 56.2596 5.03709 55.9674C5.00686 55.681 4.92425 55.4192 4.78963 55.1809C4.65501 54.9429 4.46524 54.7322 4.22094 54.5485L4.77893 53.814C5.1139 54.0417 5.38049 54.3355 5.57908 54.6958C5.77717 55.0559 5.90108 55.4667 5.94957 55.9283Z" fill="#EFEFEF"/>
<path d="M5.75758 50.2922C5.75443 50.7247 5.68076 51.1218 5.53682 51.4829C5.39289 51.8447 5.18939 52.1601 4.92645 52.4273C4.66301 52.6945 4.35775 52.9022 4.00994 53.0484C3.66199 53.1957 3.27816 53.2676 2.85706 53.2646C2.43545 53.2609 2.0525 53.1841 1.70733 53.0321C1.36178 52.8799 1.05917 52.6665 0.800258 52.393C0.540718 52.1191 0.341752 51.7999 0.203608 51.4361C0.0649599 51.0725 -0.00304375 50.6741 0.000104479 50.242C0.00363049 49.7831 0.0853611 49.3651 0.245291 48.9876C0.405221 48.6096 0.64121 48.2912 0.952129 48.0321L1.579 48.7093C1.35863 48.9155 1.19341 49.1437 1.08183 49.3936C0.971268 49.6439 0.914351 49.9125 0.912211 50.2006C0.909944 50.4939 0.956156 50.7625 1.05035 51.0062C1.14404 51.2498 1.27904 51.4616 1.45371 51.6416C1.62824 51.8213 1.83489 51.9631 2.07391 52.0662C2.3133 52.1694 2.57674 52.2219 2.86461 52.2241C3.15249 52.2263 3.41681 52.177 3.65721 52.0778C3.89799 51.9782 4.10678 51.8394 4.28396 51.6621C4.46165 51.4846 4.59903 51.2752 4.69625 51.0329C4.79397 50.7905 4.84422 50.5228 4.84648 50.2295C4.84863 49.9414 4.79573 49.6719 4.68832 49.4203C4.58115 49.1686 4.41593 48.9378 4.19342 48.7284L4.82999 48.0606C5.13788 48.3243 5.36972 48.6462 5.52701 49.0258C5.68379 49.4061 5.76111 49.8279 5.75758 50.2922Z" fill="#EFEFEF"/>
<path d="M5.81145 47.1153L0.276489 46.2803L0.430248 45.2594L4.36011 45.8525L0.878052 42.2838L1.02199 41.326L6.55783 42.161L6.40407 43.182L2.48176 42.5906L5.95715 46.1496L5.81145 47.1153Z" fill="#EFEFEF"/>
<path d="M6.89457 40.6565L1.53477 39.0408L1.83197 38.0522L5.63779 39.1995L2.69911 35.1709L2.97855 34.2439L8.33796 35.8589L8.04027 36.8473L4.24287 35.7028L7.17626 39.7215L6.89457 40.6565ZM1.89417 36.5414C1.75603 37.0012 1.55467 37.3182 1.29123 37.4925C1.0269 37.6663 0.718248 37.7027 0.364136 37.6019L0.571537 36.9122C0.762572 36.9638 0.927035 36.9438 1.06606 36.8522C1.20509 36.7602 1.30772 36.604 1.37346 36.3845C1.44007 36.1651 1.44058 35.9771 1.3761 35.8214C1.31213 35.665 1.18595 35.556 0.998565 35.4937L1.20597 34.8045C1.55656 34.9157 1.7933 35.1185 1.91684 35.4116C2.04025 35.705 2.0327 36.0816 1.89417 36.5414Z" fill="#EFEFEF"/>
<path d="M10.0521 32.0979C9.87314 32.4914 9.64383 32.8235 9.36578 33.0956C9.08672 33.3674 8.77227 33.5714 8.42345 33.7084C8.07437 33.8453 7.71094 33.9094 7.33328 33.9018C6.95663 33.8939 6.57582 33.8027 6.19299 33.6279C5.80954 33.4536 5.49106 33.226 5.23782 32.9468C4.98407 32.6671 4.79493 32.3487 4.66963 31.993C4.54471 31.6372 4.4932 31.2646 4.51499 30.876C4.53677 30.4873 4.63676 30.0961 4.81533 29.7026C5.00586 29.285 5.25067 28.9365 5.5505 28.6568C5.85084 28.3775 6.19564 28.1828 6.58476 28.073L6.88157 28.9467C6.59672 29.0454 6.35242 29.1868 6.14892 29.3696C5.94592 29.5523 5.7846 29.7746 5.66522 30.037C5.54383 30.3042 5.47633 30.5679 5.46299 30.8289C5.44976 31.0894 5.48653 31.338 5.57279 31.5732C5.65855 31.8089 5.79002 32.0228 5.96632 32.2143C6.14224 32.4061 6.36174 32.5617 6.62342 32.6813C6.88548 32.8009 7.14678 32.864 7.40708 32.8712C7.66737 32.8787 7.91444 32.8374 8.14854 32.7475C8.38302 32.6581 8.5937 32.5225 8.78197 32.3411C8.96947 32.1601 9.12412 31.936 9.24539 31.6688C9.36489 31.4069 9.4266 31.1388 9.431 30.8653C9.43592 30.5919 9.37912 30.314 9.26138 30.0312L10.1148 29.6817C10.2881 30.0481 10.3684 30.4367 10.3573 30.8475C10.3463 31.2588 10.2445 31.6755 10.0521 32.0979Z" fill="#EFEFEF"/>
<path d="M13.3291 26.0582L10.0132 26.2387L10.0185 25.2547L13.9461 25.0568L13.3291 26.0582ZM9.75508 27.3588L8.99988 26.8924L9.98692 25.2916L10.7417 25.7581L9.75508 27.3588ZM10.5387 25.4628L9.92962 26.2067L8.56581 23.116L9.14508 22.176L10.5387 25.4628ZM11.3846 29.2117L6.62134 26.2695L7.1544 25.4042L11.9177 28.3464L11.3846 29.2117Z" fill="#EFEFEF"/>
<path d="M13.5957 23.4076L13.1403 22.6718L15.0289 20.3191L15.84 20.6126L13.5957 23.4076ZM13.8795 25.1244L11.0938 19.6499L11.7347 18.8513L17.6815 20.3889L16.9952 21.2435L11.709 19.7651L11.9697 19.4401L14.5455 24.2943L13.8795 25.1244Z" fill="#EFEFEF"/>
<path d="M17.8491 20.253L17.4519 17.8522L18.2048 17.1226L18.6358 19.4899L17.8491 20.253ZM18.9774 16.1959L16.9801 14.1315L17.359 14.1546L16.2618 15.2177C15.9552 15.5148 15.7886 15.8123 15.7611 16.1101C15.7335 16.4075 15.853 16.6944 16.1205 16.9701C16.3764 17.2346 16.6514 17.3636 16.9454 17.3569C17.2396 17.3507 17.538 17.2009 17.8407 16.9074L18.9663 15.8162L18.9774 16.1959ZM20.4572 17.7251L19.2053 16.4311L19.5558 16.4258L18.3781 17.5673C18.0379 17.8976 17.6918 18.1231 17.3412 18.244C16.9903 18.3645 16.6465 18.381 16.3084 18.292C15.9704 18.2035 15.6584 18.0119 15.3732 17.7166C15.0693 17.4023 14.8801 17.0693 14.8068 16.7171C14.7331 16.3649 14.7664 16.0079 14.9059 15.6459C15.0458 15.2844 15.2857 14.938 15.6269 14.6081L17.2982 12.9878L21.192 17.0123L20.4572 17.7251Z" fill="#EFEFEF"/>
<path d="M26.36 13.3813L23.0677 8.30651L23.8726 7.7837L27.1645 12.8589L26.36 13.3813ZM25.9913 11.9607C26.0002 11.9549 26.0134 11.9465 26.0313 11.9345C26.0494 11.9229 26.0601 11.9157 26.0646 11.9127C26.4981 11.6312 26.8278 11.3422 27.0526 11.0465C27.2774 10.7512 27.3974 10.452 27.4138 10.1487C27.4303 9.84599 27.3396 9.54184 27.1424 9.2372C26.9473 8.93747 26.7087 8.73657 26.4262 8.63385C26.1433 8.53113 25.8238 8.52305 25.4661 8.60889C25.109 8.69472 24.7176 8.87572 24.2934 9.15137C24.2885 9.15452 24.2751 9.16335 24.2524 9.17809C24.2303 9.19271 24.2148 9.20254 24.2058 9.20872C23.7629 9.49597 23.424 9.78813 23.1872 10.0852C22.9508 10.3822 22.8234 10.681 22.806 10.9816C22.7878 11.283 22.8793 11.5876 23.0797 11.8962C23.2774 12.2008 23.5217 12.4044 23.814 12.5071C24.1064 12.6098 24.435 12.6144 24.7998 12.5201C25.1649 12.4262 25.5617 12.2399 25.9913 11.9607ZM26.3396 12.6886C25.7491 13.0719 25.196 13.3191 24.679 13.4285C24.1628 13.5388 23.6958 13.5125 23.2796 13.3511C22.8628 13.1892 22.5123 12.8886 22.228 12.4503C21.9433 12.0114 21.8113 11.5676 21.8313 11.1185C21.8517 10.6699 22.0166 10.2302 22.3253 9.80061C22.6345 9.37055 23.0841 8.96382 23.6745 8.58002C23.683 8.57473 23.7034 8.56137 23.7345 8.54133C23.766 8.52091 23.7993 8.49911 23.8354 8.47604C23.8714 8.45247 23.8913 8.43949 23.8958 8.43647C24.4862 8.05317 25.0379 7.80852 25.5515 7.70404C26.0651 7.59917 26.5289 7.63068 26.9424 7.79743C27.3556 7.96469 27.7043 8.26745 27.9891 8.70632C28.2676 9.13587 28.4009 9.57386 28.389 10.0207C28.3769 10.4675 28.2201 10.902 27.9185 11.3234C27.6173 11.7454 27.1753 12.1452 26.5941 12.5227C26.5853 12.5289 26.5621 12.5445 26.5239 12.5685C26.4858 12.5934 26.448 12.6179 26.4097 12.6427C26.3716 12.6677 26.348 12.6832 26.3396 12.6886Z" fill="#EFEFEF"/>
<path d="M30.0004 7.25951L32.5224 6.08201L32.8839 6.85793L30.3624 8.03541L30.0004 7.25951ZM31.0834 9.39464L33.9461 8.05759L34.318 8.85569L30.5139 10.6321L28.147 5.55466L31.8498 3.8255L32.2215 4.62359L29.461 5.913L31.0834 9.39464Z" fill="#EFEFEF"/>
<path d="M35.1042 9.76645L34.4863 7.78823L40.4094 5.90958L41.035 7.88605L40.1197 8.17594L39.76 7.03892L35.6666 8.3374L36.0269 9.47429L35.1042 9.76645ZM38.7844 6.84469L37.5041 2.80102L35.4157 3.46312L35.6768 4.42128C35.7795 4.781 35.8647 5.12473 35.9324 5.45294C35.9999 5.78153 36.0464 6.08427 36.0731 6.36131C36.0988 6.63873 36.0891 6.87985 36.042 7.0848C35.9953 7.28974 35.9069 7.44364 35.7768 7.54674L34.6617 7.73215C34.8563 7.67619 34.9941 7.55871 35.074 7.3791C35.154 7.19999 35.1895 6.97186 35.1802 6.69482C35.1709 6.41778 35.1296 6.10205 35.0566 5.74775C34.9839 5.39294 34.89 5.00964 34.7768 4.59786L34.3037 2.89215L38.2144 1.65253L39.7603 6.53563L38.7844 6.84469Z" fill="#EFEFEF"/>
<path d="M42.0024 3.19969L44.7416 2.70965L44.8928 3.55273L42.153 4.04279L42.0024 3.19969ZM42.5022 5.54117L45.6116 4.98532L45.7661 5.85198L41.6337 6.59148L40.6483 1.07652L44.671 0.356201L44.8256 1.22324L41.8265 1.75942L42.5022 5.54117Z" fill="#EFEFEF"/>
<path d="M47.8479 3.69014L47.3641 3.20412L49.0327 3.11022C49.4903 3.084 49.8297 2.96805 50.0505 2.76033C50.2708 2.55274 50.3711 2.27305 50.3515 1.92177C50.3315 1.56999 50.2011 1.30367 49.9585 1.12179C49.716 0.940797 49.3654 0.863023 48.9079 0.888862L47.2393 0.982261L47.6657 0.445452L47.8479 3.69014ZM46.9216 5.73011L46.6072 0.13601L48.9065 0.00707549C49.4014 -0.0209057 49.8302 0.0341685 50.1935 0.171176C50.5559 0.308057 50.8415 0.520695 51.05 0.807944C51.2582 1.09557 51.3738 1.44735 51.3978 1.86304C51.4204 2.27305 51.3445 2.63138 51.1694 2.93779C50.9944 3.24407 50.7345 3.48873 50.3898 3.67098C50.0452 3.85324 49.6253 3.95861 49.13 3.98672L47.4134 4.08276L47.8417 3.57809L47.9594 5.67139L46.9216 5.73011Z" fill="#EFEFEF"/>
<path d="M52.8388 4.22169L53.1783 3.42536L56.1871 3.6196L56.4142 4.45198L52.8388 4.22169ZM51.5985 5.44127L54.472 0.0117798L55.4932 0.0779516L57.6555 5.83124L56.5621 5.76104L54.7318 0.582241L55.1467 0.608963L52.6598 5.50933L51.5985 5.44127Z" fill="#EFEFEF"/>
<path d="M62.8964 8.13674L63.1933 6.6947L63.3704 6.98421L62.2506 6.75343L62.4286 5.8908L64.2608 6.26956L63.836 8.33097L62.8964 8.13674ZM58.4838 5.97525L59.6149 0.488281L60.6251 0.697259L59.6717 5.32161L62.4286 5.8908L63.3817 1.26646L64.3919 1.47456L63.2608 6.96153L58.4838 5.97525Z" fill="#EFEFEF"/>
<path d="M64.9617 7.43007L66.8692 2.16229L67.839 2.51445L66.4845 6.25398L70.6654 3.5398L71.5752 3.87016L69.668 9.13706L68.6982 8.78527L70.0497 5.05343L65.8791 7.7627L64.9617 7.43007Z" fill="#EFEFEF"/>
<path d="M74.9464 9.41399L76.2805 6.86971L76.377 7.23701L75.0241 6.52651C74.6466 6.32812 74.3125 6.26283 74.0215 6.32951C73.7301 6.39707 73.4955 6.60024 73.3174 6.94093C73.1464 7.26675 73.1099 7.56875 73.2085 7.84617C73.3067 8.12358 73.5422 8.36016 73.9153 8.55628L75.3032 9.28505L74.9464 9.41399ZM73.9584 11.2993L74.794 9.70477L74.9091 10.0365L73.4578 9.27434C73.0375 9.05339 72.7155 8.7955 72.4911 8.49981C72.2668 8.20412 72.1436 7.88221 72.1218 7.5332C72.1002 7.18457 72.1845 6.82787 72.3751 6.46424C72.5782 6.07691 72.8353 5.79282 73.1464 5.61271C73.4578 5.4331 73.8069 5.35256 74.1939 5.37222C74.5812 5.39175 74.9842 5.51137 75.4049 5.73194L77.4654 6.81413L74.8642 11.7755L73.9584 11.2993ZM70.7434 9.61099L72.8976 8.48292L73.8251 8.96982L71.7136 10.1206L70.7434 9.61099Z" fill="#EFEFEF"/>
<path d="M78.0024 13.8559C77.9314 13.8 77.862 13.739 77.7953 13.6732C77.7282 13.6065 77.6616 13.5305 77.5941 13.4433L78.2138 12.7701C78.2591 12.8329 78.3156 12.8906 78.3827 12.9435C78.563 13.0855 78.7602 13.1254 78.9748 13.0631C79.1894 13.0014 79.4302 12.848 79.6967 12.603C79.9633 12.3579 80.2685 12.0343 80.611 11.6323L82.1015 9.86218L85.3405 12.4077L81.8834 16.8146L81.0716 16.177L84.1442 12.2615L84.1806 12.6158L82.0864 10.9697L82.4254 10.9009L81.3542 12.1752C80.998 12.5945 80.6674 12.952 80.3609 13.2468C80.0544 13.5421 79.766 13.768 79.4941 13.924C79.2228 14.0806 78.9646 14.1543 78.7207 14.1458C78.4764 14.137 78.237 14.0405 78.0024 13.8559Z" fill="#EFEFEF"/>
<path d="M86.0351 16.2686L87.9894 18.2513L87.3803 18.8529L85.4261 16.8702L86.0351 16.2686ZM84.3892 18.0063L86.6073 20.2567L85.9813 20.8751L83.0328 17.884L87.0179 13.9493L89.8873 16.8605L89.2613 17.4789L87.1218 15.3081L84.3892 18.0063Z" fill="#EFEFEF"/>
<path d="M86.7316 21.7855L91.1198 18.3076L93.4829 21.2937L92.7885 21.8341L90.9168 19.4689L91.2602 19.5028L87.3722 22.5949L86.7316 21.7855Z" fill="#EFEFEF"/>
<path d="M93.3267 26.4117L92.9325 25.5353L96.3049 25.6887L96.8877 26.6269L93.3267 26.4117ZM91.9796 24.8653L92.7336 24.3961L93.7256 25.9937L92.9721 26.4628L91.9796 24.8653ZM91.5519 28.6474L92.8664 25.5958L93.7443 26.0386L92.1721 29.6465L91.5519 28.6474ZM89.5967 25.5006L94.3498 22.5419L94.8865 23.4049L90.1325 26.3636L89.5967 25.5006Z" fill="#EFEFEF"/>
<path d="M94.3186 32.2953C94.435 32.5532 94.5856 32.7701 94.7714 32.947C94.9561 33.1236 95.1649 33.2566 95.3981 33.3442C95.6304 33.4322 95.8766 33.4717 96.136 33.4624C96.3946 33.454 96.6558 33.3899 96.9179 33.2717C97.1805 33.153 97.4013 33.0005 97.5803 32.8137C97.7593 32.6274 97.8926 32.4166 97.9793 32.1815C98.0659 31.9458 98.1041 31.7004 98.0942 31.4442C98.0837 31.1881 98.0201 30.9315 97.9037 30.6736C97.7877 30.4157 97.6362 30.1965 97.4489 30.0147C97.2613 29.8328 97.0499 29.6989 96.8148 29.6122C96.5794 29.5246 96.3333 29.4842 96.0752 29.4895C95.8176 29.4953 95.5572 29.5571 95.2951 29.6759C95.0374 29.7923 94.8206 29.9461 94.6434 30.1373C94.4666 30.3285 94.3329 30.5412 94.2422 30.775C94.1524 31.0093 94.1129 31.2566 94.1253 31.5176C94.1383 31.7781 94.2023 32.0374 94.3186 32.2953ZM93.4879 32.671C93.3102 32.277 93.2107 31.8812 93.1893 31.4842C93.168 31.0867 93.2204 30.7106 93.3462 30.3549C93.4728 29.9995 93.6638 29.6812 93.9206 29.4015C94.1773 29.1213 94.4928 28.8968 94.8668 28.7274C95.2457 28.5562 95.6252 28.4664 96.005 28.4588C96.3844 28.4509 96.7478 28.5179 97.0956 28.6594C97.4434 28.8008 97.758 29.0098 98.0406 29.2854C98.3236 29.5619 98.555 29.8995 98.7345 30.2983C98.9127 30.6923 99.013 31.0858 99.0352 31.4793C99.0584 31.8733 99.0072 32.2464 98.8824 32.598C98.758 32.9502 98.5661 33.2672 98.3067 33.5483C98.0476 33.8288 97.7287 34.0556 97.3493 34.2267C96.9703 34.3984 96.5909 34.4878 96.2116 34.4953C95.8322 34.5034 95.4675 34.438 95.1187 34.3001C94.77 34.1623 94.4554 33.9551 94.1751 33.6772C93.8948 33.4001 93.6656 33.0649 93.4879 32.671Z" fill="#EFEFEF"/>
<path d="M101.581 37.2025C101.449 36.7405 101.447 36.3653 101.575 36.0762C101.703 35.7868 101.943 35.5889 102.295 35.4821L102.493 36.175C102.305 36.2345 102.177 36.3404 102.11 36.4934C102.043 36.6454 102.041 36.8322 102.104 37.0522C102.167 37.2728 102.268 37.4315 102.407 37.5275C102.545 37.6241 102.71 37.6477 102.901 37.5983L103.099 38.2906C102.744 38.387 102.435 38.3448 102.173 38.1652C101.911 37.9847 101.714 37.6646 101.581 37.2025ZM95.1516 36.4493L100.532 34.9059L100.817 35.898L96.9966 36.994L101.645 38.7912L101.912 39.7223L96.531 41.2657L96.2467 40.2732L100.06 39.1794L95.4208 37.3879L95.1516 36.4493Z" fill="#EFEFEF"/>
<path d="M98.5488 45.3797L99.3871 45.5936L99.6576 48.5985L98.8704 48.9511L98.5488 45.3797ZM97.1548 44.3406L102.955 46.3482L103.047 47.3686L97.6994 50.3907L97.6008 49.2988L102.433 46.6928L102.47 47.1076L97.2499 45.4002L97.1548 44.3406Z" fill="#EFEFEF"/>
<path d="M97.6203 52.1443L102.59 52.3422L102.324 52.58L102.407 50.4848L103.287 50.5196L103.099 55.2541L102.22 55.2191L102.303 53.1239L102.55 53.3657L97.5798 53.1679L97.6203 52.1443Z" fill="#EFEFEF"/>
<path d="M97.4354 55.5587C97.4478 55.4684 97.466 55.3781 97.4896 55.2875C97.5131 55.1967 97.5456 55.0998 97.5869 54.998L98.4798 55.1968C98.4483 55.2675 98.4265 55.3452 98.4145 55.4302C98.3826 55.6569 98.4469 55.8481 98.6082 56.0029C98.7695 56.1577 99.0232 56.2893 99.3683 56.3973C99.714 56.5053 100.146 56.6068 100.666 56.7014L102.943 57.1039L102.368 61.1852L96.8254 60.4032L96.9694 59.3808L101.894 60.0758L101.606 60.2857L101.978 57.6468L102.208 57.9055L100.569 57.6174C100.028 57.5196 99.5536 57.4124 99.1449 57.2951C98.7362 57.1781 98.3959 57.0411 98.1244 56.8846C97.853 56.7277 97.6602 56.5414 97.5456 56.3257C97.43 56.11 97.3936 55.8544 97.4354 55.5587Z" fill="#EFEFEF"/>
<path d="M99.3803 63.7181L98.6446 66.4046L97.8192 66.1779L98.5549 63.4918L99.3803 63.7181ZM97.0529 63.1627L96.2181 66.2117L95.3701 65.9791L96.4798 61.9266L101.878 63.4077L100.798 67.3522L99.9494 67.1192L100.755 64.1784L97.0529 63.1627Z" fill="#EFEFEF"/>
<path d="M94.5229 68.1826L99.1396 70.034L98.8099 70.1692L99.5891 68.2225L100.406 68.5498L98.6452 72.9478L97.8285 72.621L98.6078 70.6743L98.7593 70.9847L94.1422 69.1337L94.5229 68.1826Z" fill="#EFEFEF"/>
<path d="M93.0772 71.6666L97.971 74.3857L97.4703 75.2888L93.9954 73.3581L96.0109 77.9202L95.5413 78.7668L90.6471 76.0477L91.1478 75.1447L94.616 77.0713L92.6035 72.5204L93.0772 71.6666Z" fill="#EFEFEF"/>
<path d="M90.2919 81.1523L90.9632 80.4654L92.0516 83.6637L91.3919 84.549L90.2919 81.1523ZM91.2386 79.3328L91.9499 79.8642L90.8268 81.3715L90.1151 80.8406L91.2386 79.3328ZM89.778 77.344L94.2648 80.693L93.658 81.508L89.1706 78.159L89.778 77.344ZM87.5643 80.3147L90.8832 80.4258L90.7917 81.4058L86.8615 81.2577L87.5643 80.3147Z" fill="#EFEFEF"/>
<path d="M86.3891 81.7861L90.4069 85.687L89.6886 86.4277L86.8364 83.6581L87.5953 88.5884L86.9218 89.2828L82.9039 85.382L83.6218 84.6412L86.4691 87.4051L85.7099 82.4869L86.3891 81.7861Z" fill="#EFEFEF"/>
<path d="M32.8312 97.5274C32.5536 97.7382 32.1467 97.8437 31.6105 97.8437H29.04V95.2994H31.6105C32.1467 95.2994 32.5536 95.4025 32.8312 95.6083C33.1089 95.8147 33.2479 96.133 33.2479 96.5643C33.2479 96.9957 33.1089 97.3167 32.8312 97.5274ZM29.04 91.2313H31.2226C31.7207 91.2313 32.101 91.3344 32.3644 91.5403C32.6279 91.7467 32.7593 92.0508 32.7593 92.4531C32.7593 92.8463 32.6279 93.1481 32.3644 93.3589C32.101 93.5697 31.7207 93.6751 31.2226 93.6751H29.04V91.2313ZM34.6553 94.7817C34.3857 94.587 34.0664 94.4368 33.7033 94.326C33.8819 94.2406 34.0485 94.1411 34.2027 94.0273C34.8202 93.5724 35.1293 92.9325 35.1293 92.1082C35.1293 91.2744 34.8038 90.6328 34.1525 90.1819C33.5012 89.7319 32.5919 89.5065 31.4239 89.5065H26.7419V99.5684H31.6966C32.9797 99.5684 33.949 99.3172 34.6047 98.8138C35.2609 98.3109 35.5887 97.6186 35.5887 96.7369C35.5887 95.8841 35.2773 95.2326 34.6553 94.7817Z" fill="#EFEFEF"/>
<path d="M48.1049 95.9749C47.8224 96.3582 47.3915 96.6481 46.8122 96.8448C46.4448 96.9692 46.0161 97.0541 45.527 97.0995V91.9305C46.0098 91.9749 46.4341 92.0577 46.798 92.18C47.3674 92.3721 47.7984 92.6593 48.0908 93.0426C48.3826 93.4259 48.5288 93.91 48.5288 94.4944C48.5288 95.0982 48.3871 95.5917 48.1049 95.9749ZM42.2093 96.859C41.6064 96.6722 41.1488 96.3845 40.8379 95.9964C40.527 95.6086 40.3715 95.1123 40.3715 94.509C40.3715 93.9052 40.5194 93.4116 40.8166 93.0284C41.1129 92.6451 41.5585 92.3596 42.152 92.1728C42.5034 92.0625 42.9112 91.9856 43.3728 91.9402V97.087C42.9432 97.0413 42.5544 96.9656 42.2093 96.859ZM48.0548 90.5988C47.3418 90.3226 46.4977 90.159 45.527 90.1039V89.0754H43.3728V90.1075C42.4283 90.1657 41.5989 90.3261 40.8881 90.5917C39.9783 90.9318 39.2892 91.4325 38.8201 92.0936C38.3511 92.7553 38.1165 93.5601 38.1165 94.509C38.1165 95.4574 38.3511 96.2622 38.8201 96.9239C39.2892 97.585 39.9765 98.0858 40.881 98.4258C41.5891 98.6923 42.4212 98.8527 43.3728 98.9106V100H45.527V98.919C46.5194 98.8701 47.3826 98.7043 48.1121 98.4188C48.9929 98.0737 49.6607 97.5681 50.1156 96.9021C50.57 96.236 50.7974 95.4383 50.7974 94.509C50.7974 93.57 50.5629 92.7696 50.0938 92.1084C49.6247 91.4472 48.945 90.9439 48.0548 90.5988Z" fill="#EFEFEF"/>
<path d="M57.1741 89.5065L52.8226 99.5684H55.1492L58.2501 92.3887L61.2815 99.5684H63.8235L59.4722 89.5065H57.1741Z" fill="#EFEFEF"/>
<path d="M69.3389 96.8074L71.2474 92.3885L72.5233 95.4104L69.3389 96.8074ZM74.2785 99.5687H76.821L72.469 89.5067H70.1714L65.8199 99.5687H68.1465V99.5677L73.3145 97.285L74.2785 99.5687Z" fill="#EFEFEF"/>
<path d="M51.6436 23.8871C60.3598 23.8871 67.2532 25.1331 70.223 25.7742C70.2257 25.6626 70.2359 25.5542 70.2563 25.4506C67.2501 24.8036 60.3517 23.5635 51.6436 23.5635C42.9715 23.5635 36.25 24.8374 33.3055 25.5101C33.3268 25.6133 33.3384 25.7217 33.3419 25.8334C36.2482 25.1672 42.9627 23.8871 51.6436 23.8871Z" fill="#EFEFEF"/>
<path d="M64.9842 47.5127L57.4791 32.4294C56.5107 31.0091 54.254 30.7926 52.6542 30.7011C50.7515 30.5917 46.9719 30.7166 45.8009 32.4294L38.572 47.3286C39.449 49.3895 40.4281 51.4104 41.5045 53.3784C41.6525 52.9782 41.7951 52.582 41.9279 52.1921C44.1474 45.6839 46.3295 39.1035 48.5205 32.5993C48.8061 31.8895 49.572 31.6246 50.2682 31.4774C51.6902 31.1768 53.377 31.3208 54.5333 32.2244C57.0513 39.2298 59.6813 46.2259 62.1869 53.2516C63.2055 51.3801 64.1394 49.4608 64.9842 47.5127Z" fill="#EFEFEF"/>
<path d="M69.9059 29.4425C68.857 28.8759 67.814 28.3211 66.7843 27.7865C59.299 23.9017 45.7775 24.7669 37.8077 27.0818C36.4039 27.8053 35.0151 28.5568 33.6331 29.322C33.6752 29.6243 33.7184 29.9271 33.7645 30.2295C34.8775 29.5682 35.996 28.9177 37.1258 28.2908C43.5457 24.7288 58.0164 24.473 64.6442 27.5332L69.778 30.5487C69.8247 30.1792 69.8677 29.8101 69.9059 29.4425Z" fill="#EFEFEF"/>
<path d="M68.0419 38.979L60.0219 30.0126C59.7744 29.8504 59.5549 29.6187 59.2941 29.4795C56.6486 28.069 45.7171 27.8921 43.3902 29.7658L35.5612 38.6402C35.6007 38.7851 35.6366 38.9287 35.677 39.0741C35.9383 40.0119 36.2213 40.9447 36.5238 41.8719C39.4958 37.8931 42.423 33.8788 45.4844 29.97C46.1431 29.404 47.9907 29.0705 48.8837 28.9584C50.8952 28.7063 56.3932 28.6872 57.8837 30.1345L67.0778 42.0786C67.4257 41.0474 67.7491 40.0136 68.0419 38.979Z" fill="#EFEFEF"/>
<path d="M69.2335 33.966C66.9171 31.6741 64.2623 28.5666 61.2787 27.6452C56.2862 26.1036 46.6515 26.1997 41.651 27.7751C39.87 28.3358 39.18 28.9156 37.8389 30.138C36.6635 31.2096 35.4923 32.3042 34.3253 33.4087C34.4541 34.0544 34.5928 34.7018 34.7398 35.3514C36.1752 33.8041 37.6176 32.2652 39.0979 30.7666C39.7531 30.1033 40.551 29.1833 41.3315 28.7159C45.2934 26.3433 58.5453 26.1864 62.2778 29.0166C62.9064 29.4928 63.6625 30.3705 64.244 30.9575C65.8122 32.5408 67.3275 34.1825 68.8416 35.8258C68.9824 35.2052 69.1144 34.5844 69.2335 33.966Z" fill="#EFEFEF"/>
<path d="M28.7835 49.0519C34.7738 58.8561 41.3679 67.9843 51.8911 74.698C60.8124 69.0902 69.9991 57.4751 76.124 47.0669C75.6117 39.9232 73.7602 32.5603 71.9263 25.7078C70.9022 41.713 63.5038 58.6018 51.8222 69.6589C39.9396 58.4698 32.9804 41.8766 31.6396 25.7887C29.8378 32.334 28.5099 39.1175 27.445 45.8752C27.1571 46.7681 28.3394 48.1887 28.7835 49.0519Z" fill="#EFEFEF"/>
<path d="M45.8733 57.389C45.8733 60.4624 48.3624 62.9538 51.4329 62.9538C54.5036 62.9538 56.9928 60.4624 56.9928 57.389C56.9928 54.3156 54.5036 51.8243 51.4329 51.8243C48.3624 51.8243 45.8733 54.3156 45.8733 57.389Z" fill="#EFEFEF"/>
<path d="M76.1786 51.985C71.176 59.8379 59.0449 72.4071 51.9124 76.2645C44.2404 72.7758 32.6459 60.0251 27.127 51.3331L26.5912 61.17C30.3082 65.8909 44.4567 77.5891 51.8435 81.7759C59.4051 77.3641 73.2124 65.4009 76.9716 60.468C76.9721 60.4685 76.1786 51.985 76.1786 51.985Z" fill="#EFEFEF"/>
</svg>
