<svg width="1600" height="879" viewBox="0 0 1600 879" fill="none" xmlns="http://www.w3.org/2000/svg">
<g clip-path="url(#clip0_9_4066)">
<g filter="url(#filter0_d_9_4066)">
<circle cx="52.4012" cy="881.371" r="2" transform="rotate(-45 52.4012 881.371)" fill="#EFEFEF"/>
<circle cx="52.4012" cy="762.577" r="2" transform="rotate(-45 52.4012 762.577)" fill="#EFEFEF"/>
<circle cx="111.798" cy="821.974" r="2" transform="rotate(-45 111.798 821.974)" fill="#EFEFEF"/>
<circle cx="52.4012" cy="643.783" r="2" transform="rotate(-45 52.4012 643.783)" fill="#EFEFEF"/>
<circle cx="111.798" cy="703.18" r="2" transform="rotate(-45 111.798 703.18)" fill="#EFEFEF"/>
<circle cx="171.195" cy="762.577" r="2" transform="rotate(-45 171.195 762.577)" fill="#EFEFEF"/>
<circle cx="52.4012" cy="524.989" r="2" transform="rotate(-45 52.4012 524.989)" fill="#EFEFEF"/>
<circle cx="111.798" cy="584.386" r="2" transform="rotate(-45 111.798 584.386)" fill="#EFEFEF"/>
<circle cx="171.195" cy="643.783" r="2" transform="rotate(-45 171.195 643.783)" fill="#EFEFEF"/>
<circle cx="230.592" cy="703.18" r="2" transform="rotate(-45 230.592 703.18)" fill="#EFEFEF"/>
<circle cx="52.4012" cy="406.195" r="2" transform="rotate(-45 52.4012 406.195)" fill="#EFEFEF"/>
<circle cx="111.798" cy="465.592" r="2" transform="rotate(-45 111.798 465.592)" fill="#EFEFEF"/>
<circle cx="171.195" cy="524.989" r="2" transform="rotate(-45 171.195 524.989)" fill="#EFEFEF"/>
<circle cx="230.592" cy="584.386" r="2" transform="rotate(-45 230.592 584.386)" fill="#EFEFEF"/>
<circle cx="289.989" cy="643.783" r="2" transform="rotate(-45 289.989 643.783)" fill="#EFEFEF"/>
<circle cx="52.4012" cy="287.401" r="2" transform="rotate(-45 52.4012 287.401)" fill="#EFEFEF"/>
<circle cx="111.798" cy="346.798" r="2" transform="rotate(-45 111.798 346.798)" fill="#EFEFEF"/>
<circle cx="171.195" cy="406.195" r="2" transform="rotate(-45 171.195 406.195)" fill="#EFEFEF"/>
<circle cx="230.592" cy="465.592" r="2" transform="rotate(-45 230.592 465.592)" fill="#EFEFEF"/>
<circle cx="289.989" cy="524.989" r="2" transform="rotate(-45 289.989 524.989)" fill="#EFEFEF"/>
<circle cx="349.386" cy="584.386" r="2" transform="rotate(-45 349.386 584.386)" fill="#EFEFEF"/>
<circle cx="111.798" cy="228.004" r="2" transform="rotate(-45 111.798 228.004)" fill="#EFEFEF"/>
<circle cx="171.195" cy="287.401" r="2" transform="rotate(-45 171.195 287.401)" fill="#EFEFEF"/>
<circle cx="230.592" cy="346.798" r="2" transform="rotate(-45 230.592 346.798)" fill="#EFEFEF"/>
<circle cx="289.989" cy="406.195" r="2" transform="rotate(-45 289.989 406.195)" fill="#EFEFEF"/>
<circle cx="349.386" cy="465.592" r="2" transform="rotate(-45 349.386 465.592)" fill="#EFEFEF"/>
<circle cx="408.783" cy="524.989" r="2" transform="rotate(-45 408.783 524.989)" fill="#EFEFEF"/>
<circle cx="171.195" cy="168.607" r="2" transform="rotate(-45 171.195 168.607)" fill="#EFEFEF"/>
<circle cx="230.592" cy="228.004" r="2" transform="rotate(-45 230.592 228.004)" fill="#EFEFEF"/>
<circle cx="289.989" cy="287.401" r="2" transform="rotate(-45 289.989 287.401)" fill="#EFEFEF"/>
<circle cx="349.386" cy="346.798" r="2" transform="rotate(-45 349.386 346.798)" fill="#EFEFEF"/>
<circle cx="408.783" cy="406.195" r="2" transform="rotate(-45 408.783 406.195)" fill="#EFEFEF"/>
<circle cx="468.18" cy="465.592" r="2" transform="rotate(-45 468.18 465.592)" fill="#EFEFEF"/>
<circle cx="230.592" cy="109.21" r="2" transform="rotate(-45 230.592 109.21)" fill="#EFEFEF"/>
<circle cx="289.989" cy="168.607" r="2" transform="rotate(-45 289.989 168.607)" fill="#EFEFEF"/>
<circle cx="349.386" cy="228.004" r="2" transform="rotate(-45 349.386 228.004)" fill="#EFEFEF"/>
<circle cx="408.783" cy="287.401" r="2" transform="rotate(-45 408.783 287.401)" fill="#EFEFEF"/>
<circle cx="468.18" cy="346.798" r="2" transform="rotate(-45 468.18 346.798)" fill="#EFEFEF"/>
<circle cx="527.577" cy="406.195" r="2" transform="rotate(-45 527.577 406.195)" fill="#EFEFEF"/>
<circle cx="289.989" cy="49.813" r="2" transform="rotate(-45 289.989 49.813)" fill="#EFEFEF"/>
<circle cx="349.386" cy="109.21" r="2" transform="rotate(-45 349.386 109.21)" fill="#EFEFEF"/>
<circle cx="408.783" cy="168.607" r="2" transform="rotate(-45 408.783 168.607)" fill="#EFEFEF"/>
<circle cx="468.18" cy="228.004" r="2" transform="rotate(-45 468.18 228.004)" fill="#EFEFEF"/>
<circle cx="527.577" cy="287.401" r="2" transform="rotate(-45 527.577 287.401)" fill="#EFEFEF"/>
<circle cx="586.974" cy="346.798" r="2" transform="rotate(-45 586.974 346.798)" fill="#EFEFEF"/>
<circle cx="408.783" cy="49.813" r="2" transform="rotate(-45 408.783 49.813)" fill="#EFEFEF"/>
<circle cx="468.18" cy="109.21" r="2" transform="rotate(-45 468.18 109.21)" fill="#EFEFEF"/>
<circle cx="527.577" cy="168.607" r="2" transform="rotate(-45 527.577 168.607)" fill="#EFEFEF"/>
<circle cx="586.974" cy="228.004" r="2" transform="rotate(-45 586.974 228.004)" fill="#EFEFEF"/>
<circle cx="646.371" cy="287.401" r="2" transform="rotate(-45 646.371 287.401)" fill="#EFEFEF"/>
<circle cx="527.577" cy="49.813" r="2" transform="rotate(-45 527.577 49.813)" fill="#EFEFEF"/>
<circle cx="586.974" cy="109.21" r="2" transform="rotate(-45 586.974 109.21)" fill="#EFEFEF"/>
<circle cx="646.371" cy="168.607" r="2" transform="rotate(-45 646.371 168.607)" fill="#EFEFEF"/>
<circle cx="705.768" cy="228.004" r="2" transform="rotate(-45 705.768 228.004)" fill="#EFEFEF"/>
<circle cx="646.371" cy="49.813" r="2" transform="rotate(-45 646.371 49.813)" fill="#EFEFEF"/>
<circle cx="705.768" cy="109.21" r="2" transform="rotate(-45 705.768 109.21)" fill="#EFEFEF"/>
<circle cx="765.165" cy="168.607" r="2" transform="rotate(-45 765.165 168.607)" fill="#EFEFEF"/>
<circle cx="765.165" cy="49.813" r="2" transform="rotate(-45 765.165 49.813)" fill="#EFEFEF"/>
<circle cx="824.562" cy="109.21" r="2" transform="rotate(-45 824.562 109.21)" fill="#EFEFEF"/>
<circle cx="231.85" cy="823.232" r="2" transform="rotate(-45 231.85 823.232)" fill="#EFEFEF"/>
<circle cx="291.247" cy="763.835" r="2" transform="rotate(-45 291.247 763.835)" fill="#EFEFEF"/>
<circle cx="350.644" cy="823.232" r="2" transform="rotate(-45 350.644 823.232)" fill="#EFEFEF"/>
<circle cx="350.644" cy="704.438" r="2" transform="rotate(-45 350.644 704.438)" fill="#EFEFEF"/>
<circle cx="410.041" cy="763.835" r="2" transform="rotate(-45 410.041 763.835)" fill="#EFEFEF"/>
<circle cx="469.438" cy="823.232" r="2" transform="rotate(-45 469.438 823.232)" fill="#EFEFEF"/>
<circle cx="410.041" cy="645.042" r="2" transform="rotate(-45 410.041 645.042)" fill="#EFEFEF"/>
<circle cx="469.438" cy="704.438" r="2" transform="rotate(-45 469.438 704.438)" fill="#EFEFEF"/>
<circle cx="528.835" cy="763.835" r="2" transform="rotate(-45 528.835 763.835)" fill="#EFEFEF"/>
<circle cx="588.232" cy="823.232" r="2" transform="rotate(-45 588.232 823.232)" fill="#EFEFEF"/>
<circle cx="780.507" cy="274.576" r="2" transform="rotate(-45 780.507 274.576)" fill="#EFEFEF"/>
<circle cx="839.904" cy="333.973" r="2" transform="rotate(-45 839.904 333.973)" fill="#EFEFEF"/>
<circle cx="899.301" cy="393.37" r="2" transform="rotate(-45 899.301 393.37)" fill="#EFEFEF"/>
<circle cx="958.698" cy="452.767" r="2" transform="rotate(-45 958.698 452.767)" fill="#EFEFEF"/>
<circle cx="1018.09" cy="512.164" r="2" transform="rotate(-45 1018.09 512.164)" fill="#EFEFEF"/>
<circle cx="1077.49" cy="571.561" r="2" transform="rotate(-45 1077.49 571.561)" fill="#EFEFEF"/>
<circle cx="839.904" cy="215.179" r="2" transform="rotate(-45 839.904 215.179)" fill="#EFEFEF"/>
<circle cx="899.301" cy="274.576" r="2" transform="rotate(-45 899.301 274.576)" fill="#EFEFEF"/>
<circle cx="958.698" cy="333.973" r="2" transform="rotate(-45 958.698 333.973)" fill="#EFEFEF"/>
<circle cx="1018.09" cy="393.37" r="2" transform="rotate(-45 1018.09 393.37)" fill="#EFEFEF"/>
<circle cx="1077.49" cy="452.767" r="2" transform="rotate(-45 1077.49 452.767)" fill="#EFEFEF"/>
<circle cx="1136.89" cy="512.164" r="2" transform="rotate(-45 1136.89 512.164)" fill="#EFEFEF"/>
<circle cx="899.301" cy="155.782" r="2" transform="rotate(-45 899.301 155.782)" fill="#EFEFEF"/>
<circle cx="958.698" cy="215.179" r="2" transform="rotate(-45 958.698 215.179)" fill="#EFEFEF"/>
<circle cx="1018.09" cy="274.576" r="2" transform="rotate(-45 1018.09 274.576)" fill="#EFEFEF"/>
<circle cx="1077.49" cy="333.973" r="2" transform="rotate(-45 1077.49 333.973)" fill="#EFEFEF"/>
<circle cx="1136.89" cy="393.37" r="2" transform="rotate(-45 1136.89 393.37)" fill="#EFEFEF"/>
<circle cx="1196.29" cy="452.767" r="2" transform="rotate(-45 1196.29 452.767)" fill="#EFEFEF"/>
<circle cx="958.698" cy="96.3853" r="2" transform="rotate(-45 958.698 96.3853)" fill="#EFEFEF"/>
<circle cx="1018.09" cy="155.782" r="2" transform="rotate(-45 1018.09 155.782)" fill="#EFEFEF"/>
<circle cx="1077.49" cy="215.179" r="2" transform="rotate(-45 1077.49 215.179)" fill="#EFEFEF"/>
<circle cx="1136.89" cy="274.576" r="2" transform="rotate(-45 1136.89 274.576)" fill="#EFEFEF"/>
<circle cx="1196.29" cy="333.973" r="2" transform="rotate(-45 1196.29 333.973)" fill="#EFEFEF"/>
<circle cx="1255.68" cy="393.37" r="2" transform="rotate(-45 1255.68 393.37)" fill="#EFEFEF"/>
<circle cx="1018.09" cy="36.9883" r="2" transform="rotate(-45 1018.09 36.9883)" fill="#EFEFEF"/>
<circle cx="1077.49" cy="96.3853" r="2" transform="rotate(-45 1077.49 96.3853)" fill="#EFEFEF"/>
<circle cx="1136.89" cy="155.782" r="2" transform="rotate(-45 1136.89 155.782)" fill="#EFEFEF"/>
<circle cx="1196.29" cy="215.179" r="2" transform="rotate(-45 1196.29 215.179)" fill="#EFEFEF"/>
<circle cx="1255.68" cy="274.576" r="2" transform="rotate(-45 1255.68 274.576)" fill="#EFEFEF"/>
<circle cx="1315.08" cy="333.973" r="2" transform="rotate(-45 1315.08 333.973)" fill="#EFEFEF"/>
<circle cx="1136.89" cy="36.9883" r="2" transform="rotate(-45 1136.89 36.9883)" fill="#EFEFEF"/>
<circle cx="1196.29" cy="96.3853" r="2" transform="rotate(-45 1196.29 96.3853)" fill="#EFEFEF"/>
<circle cx="1255.68" cy="155.782" r="2" transform="rotate(-45 1255.68 155.782)" fill="#EFEFEF"/>
<circle cx="1315.08" cy="215.179" r="2" transform="rotate(-45 1315.08 215.179)" fill="#EFEFEF"/>
<circle cx="1374.48" cy="274.576" r="2" transform="rotate(-45 1374.48 274.576)" fill="#EFEFEF"/>
<circle cx="1255.68" cy="36.9883" r="2" transform="rotate(-45 1255.68 36.9883)" fill="#EFEFEF"/>
<circle cx="1315.08" cy="96.3853" r="2" transform="rotate(-45 1315.08 96.3853)" fill="#EFEFEF"/>
<circle cx="1374.48" cy="155.782" r="2" transform="rotate(-45 1374.48 155.782)" fill="#EFEFEF"/>
<circle cx="1433.87" cy="215.179" r="2" transform="rotate(-45 1433.87 215.179)" fill="#EFEFEF"/>
<circle cx="1374.48" cy="36.9883" r="2" transform="rotate(-45 1374.48 36.9883)" fill="#EFEFEF"/>
<circle cx="1433.87" cy="96.3853" r="2" transform="rotate(-45 1433.87 96.3853)" fill="#EFEFEF"/>
<circle cx="1493.27" cy="155.782" r="2" transform="rotate(-45 1493.27 155.782)" fill="#EFEFEF"/>
</g>
<g filter="url(#filter1_d_9_4066)">
<mask id="path-112-inside-1_9_4066" fill="white">
<path fill-rule="evenodd" clip-rule="evenodd" d="M77.6396 524.356L49.3553 552.64L84.7107 587.995L49.3553 623.35L77.6396 651.635L112.995 616.279L148.35 651.635L176.635 623.35L141.279 587.995L176.635 552.64L148.35 524.356L112.995 559.711L77.6396 524.356Z"/>
</mask>
<path d="M49.3553 552.64L45.1127 548.397L40.8701 552.64L45.1127 556.882L49.3553 552.64ZM77.6396 524.356L81.8822 520.113L77.6396 515.87L73.397 520.113L77.6396 524.356ZM84.7107 587.995L88.9533 592.238L93.196 587.995L88.9533 583.752L84.7107 587.995ZM49.3553 623.35L45.1127 619.108L40.8701 623.35L45.1127 627.593L49.3553 623.35ZM77.6396 651.635L73.397 655.877L77.6396 660.12L81.8822 655.877L77.6396 651.635ZM112.995 616.279L117.238 612.037L112.995 607.794L108.752 612.037L112.995 616.279ZM148.35 651.635L144.108 655.877L148.35 660.12L152.593 655.877L148.35 651.635ZM176.635 623.35L180.877 627.593L185.12 623.35L180.877 619.108L176.635 623.35ZM141.279 587.995L137.037 583.752L132.794 587.995L137.037 592.238L141.279 587.995ZM176.635 552.64L180.877 556.882L185.12 552.64L180.877 548.397L176.635 552.64ZM148.35 524.356L152.593 520.113L148.35 515.87L144.108 520.113L148.35 524.356ZM112.995 559.711L108.752 563.953L112.995 568.196L117.238 563.953L112.995 559.711ZM53.598 556.882L81.8822 528.598L73.397 520.113L45.1127 548.397L53.598 556.882ZM88.9533 583.752L53.598 548.397L45.1127 556.882L80.468 592.238L88.9533 583.752ZM53.598 627.593L88.9533 592.238L80.468 583.752L45.1127 619.108L53.598 627.593ZM81.8822 647.392L53.598 619.108L45.1127 627.593L73.397 655.877L81.8822 647.392ZM108.752 612.037L73.397 647.392L81.8822 655.877L117.238 620.522L108.752 612.037ZM152.593 647.392L117.238 612.037L108.752 620.522L144.108 655.877L152.593 647.392ZM172.392 619.108L144.108 647.392L152.593 655.877L180.877 627.593L172.392 619.108ZM137.037 592.238L172.392 627.593L180.877 619.108L145.522 583.752L137.037 592.238ZM172.392 548.397L137.037 583.752L145.522 592.238L180.877 556.882L172.392 548.397ZM144.108 528.598L172.392 556.882L180.877 548.397L152.593 520.113L144.108 528.598ZM117.238 563.953L152.593 528.598L144.108 520.113L108.752 555.468L117.238 563.953ZM73.397 528.598L108.752 563.953L117.238 555.468L81.8822 520.113L73.397 528.598Z" fill="#83D0F7" mask="url(#path-112-inside-1_9_4066)"/>
</g>
<g filter="url(#filter2_d_9_4066)">
<mask id="path-114-inside-2_9_4066" fill="white">
<path fill-rule="evenodd" clip-rule="evenodd" d="M1397.64 59.3555L1369.36 87.6398L1404.71 122.995L1369.36 158.35L1397.64 186.635L1432.99 151.279L1468.35 186.635L1496.63 158.35L1461.28 122.995L1496.63 87.6398L1468.35 59.3555L1432.99 94.7108L1397.64 59.3555Z"/>
</mask>
<path d="M1369.36 87.6398L1365.11 83.3971L1360.87 87.6398L1365.11 91.8824L1369.36 87.6398ZM1397.64 59.3555L1401.88 55.1129L1397.64 50.8702L1393.4 55.1129L1397.64 59.3555ZM1404.71 122.995L1408.95 127.238L1413.2 122.995L1408.95 118.752L1404.71 122.995ZM1369.36 158.35L1365.11 154.108L1360.87 158.35L1365.11 162.593L1369.36 158.35ZM1397.64 186.635L1393.4 190.877L1397.64 195.12L1401.88 190.877L1397.64 186.635ZM1432.99 151.279L1437.24 147.037L1432.99 142.794L1428.75 147.037L1432.99 151.279ZM1468.35 186.635L1464.11 190.877L1468.35 195.12L1472.59 190.877L1468.35 186.635ZM1496.63 158.35L1500.88 162.593L1505.12 158.35L1500.88 154.108L1496.63 158.35ZM1461.28 122.995L1457.04 118.752L1452.79 122.995L1457.04 127.238L1461.28 122.995ZM1496.63 87.6398L1500.88 91.8824L1505.12 87.6398L1500.88 83.3971L1496.63 87.6398ZM1468.35 59.3555L1472.59 55.1129L1468.35 50.8702L1464.11 55.1129L1468.35 59.3555ZM1432.99 94.7108L1428.75 98.9535L1432.99 103.196L1437.24 98.9535L1432.99 94.7108ZM1373.6 91.8824L1401.88 63.5981L1393.4 55.1129L1365.11 83.3971L1373.6 91.8824ZM1408.95 118.752L1373.6 83.3971L1365.11 91.8824L1400.47 127.238L1408.95 118.752ZM1373.6 162.593L1408.95 127.238L1400.47 118.752L1365.11 154.108L1373.6 162.593ZM1401.88 182.392L1373.6 154.108L1365.11 162.593L1393.4 190.877L1401.88 182.392ZM1428.75 147.037L1393.4 182.392L1401.88 190.877L1437.24 155.522L1428.75 147.037ZM1472.59 182.392L1437.24 147.037L1428.75 155.522L1464.11 190.877L1472.59 182.392ZM1492.39 154.108L1464.11 182.392L1472.59 190.877L1500.88 162.593L1492.39 154.108ZM1457.04 127.238L1492.39 162.593L1500.88 154.108L1465.52 118.752L1457.04 127.238ZM1492.39 83.3971L1457.04 118.752L1465.52 127.238L1500.88 91.8824L1492.39 83.3971ZM1464.11 63.5981L1492.39 91.8824L1500.88 83.3971L1472.59 55.1129L1464.11 63.5981ZM1437.24 98.9535L1472.59 63.5981L1464.11 55.1129L1428.75 90.4682L1437.24 98.9535ZM1393.4 63.5981L1428.75 98.9535L1437.24 90.4682L1401.88 55.1129L1393.4 63.5981Z" fill="#8D9CDC" mask="url(#path-114-inside-2_9_4066)"/>
</g>
</g>
<defs>
<filter id="filter0_d_9_4066" x="-505" y="-270" width="2068.53" height="2068.53" filterUnits="userSpaceOnUse" color-interpolation-filters="sRGB">
<feFlood flood-opacity="0" result="BackgroundImageFix"/>
<feColorMatrix in="SourceAlpha" type="matrix" values="0 0 0 0 0 0 0 0 0 0 0 0 0 0 0 0 0 0 127 0" result="hardAlpha"/>
<feOffset/>
<feGaussianBlur stdDeviation="10"/>
<feComposite in2="hardAlpha" operator="out"/>
<feColorMatrix type="matrix" values="0 0 0 0 0 0 0 0 0 0 0 0 0 0 0 0 0 0 0.25 0"/>
<feBlend mode="normal" in2="BackgroundImageFix" result="effect1_dropShadow_9_4066"/>
<feBlend mode="normal" in="SourceGraphic" in2="effect1_dropShadow_9_4066" result="shape"/>
</filter>
<filter id="filter1_d_9_4066" x="29.3553" y="504.355" width="167.279" height="167.279" filterUnits="userSpaceOnUse" color-interpolation-filters="sRGB">
<feFlood flood-opacity="0" result="BackgroundImageFix"/>
<feColorMatrix in="SourceAlpha" type="matrix" values="0 0 0 0 0 0 0 0 0 0 0 0 0 0 0 0 0 0 127 0" result="hardAlpha"/>
<feOffset/>
<feGaussianBlur stdDeviation="10"/>
<feComposite in2="hardAlpha" operator="out"/>
<feColorMatrix type="matrix" values="0 0 0 0 0 0 0 0 0 0 0 0 0 0 0 0 0 0 0.25 0"/>
<feBlend mode="normal" in2="BackgroundImageFix" result="effect1_dropShadow_9_4066"/>
<feBlend mode="normal" in="SourceGraphic" in2="effect1_dropShadow_9_4066" result="shape"/>
</filter>
<filter id="filter2_d_9_4066" x="1349.36" y="39.3555" width="167.279" height="167.279" filterUnits="userSpaceOnUse" color-interpolation-filters="sRGB">
<feFlood flood-opacity="0" result="BackgroundImageFix"/>
<feColorMatrix in="SourceAlpha" type="matrix" values="0 0 0 0 0 0 0 0 0 0 0 0 0 0 0 0 0 0 127 0" result="hardAlpha"/>
<feOffset/>
<feGaussianBlur stdDeviation="10"/>
<feComposite in2="hardAlpha" operator="out"/>
<feColorMatrix type="matrix" values="0 0 0 0 0 0 0 0 0 0 0 0 0 0 0 0 0 0 0.25 0"/>
<feBlend mode="normal" in2="BackgroundImageFix" result="effect1_dropShadow_9_4066"/>
<feBlend mode="normal" in="SourceGraphic" in2="effect1_dropShadow_9_4066" result="shape"/>
</filter>
<clipPath id="clip0_9_4066">
<rect width="1600" height="879" fill="white"/>
</clipPath>
</defs>
</svg>
